<?xml version="1.0" encoding="UTF-8"?><svg id="Layer_1" xmlns="http://www.w3.org/2000/svg" xmlns:xlink="http://www.w3.org/1999/xlink" viewBox="0 0 119.74 196.73"><defs><style>.cls-1,.cls-2,.cls-3,.cls-4,.cls-5{fill:none;}.cls-6{letter-spacing:0em;}.cls-7{letter-spacing:0em;}.cls-8{clip-path:url(#clippath);}.cls-2{stroke-width:.41px;}.cls-2,.cls-3,.cls-4,.cls-5{stroke:#231f20;stroke-miterlimit:10;}.cls-9{letter-spacing:0em;}.cls-3{stroke-width:1.66px;}.cls-10,.cls-11,.cls-12{font-family:Helvetica-Bold, Helvetica;font-weight:700;}.cls-10,.cls-11,.cls-12,.cls-13{fill:#231f20;}.cls-10,.cls-13{font-size:6.63px;}.cls-4{stroke-width:.83px;}.cls-5{stroke-width:.41px;}.cls-14{letter-spacing:-.01em;}.cls-15{fill:#fff;}.cls-16{letter-spacing:0em;}.cls-17{letter-spacing:-.02em;}.cls-18{letter-spacing:-.02em;}.cls-11{font-size:10.77px;}.cls-19{letter-spacing:-.05em;}.cls-20{letter-spacing:0em;}.cls-21{letter-spacing:-.02em;}.cls-22{letter-spacing:-.03em;}.cls-23{letter-spacing:-.02em;}.cls-24{clip-path:url(#clippath-1);}.cls-25{clip-path:url(#clippath-2);}.cls-26{letter-spacing:0em;}.cls-27{letter-spacing:0em;}.cls-28{letter-spacing:0em;}.cls-29{letter-spacing:0em;}.cls-30{letter-spacing:0em;}.cls-31{letter-spacing:-.01em;}.cls-12{font-size:4.97px;}.cls-32{letter-spacing:0em;}.cls-33{letter-spacing:-.12em;}.cls-34{letter-spacing:-.02em;}.cls-35{letter-spacing:0em;}.cls-36{letter-spacing:0em;}.cls-37{letter-spacing:0em;}.cls-38{letter-spacing:0em;}.cls-39{letter-spacing:-.06em;}.cls-40{letter-spacing:0em;}.cls-41{letter-spacing:0em;}.cls-42{letter-spacing:-.05em;}.cls-13{font-family:Helvetica, Helvetica;}</style><clipPath id="clippath"><rect class="cls-1" x="0" width="119.74" height="196.73"/></clipPath><clipPath id="clippath-1"><rect class="cls-1" x="0" width="119.74" height="196.73"/></clipPath><clipPath id="clippath-2"><rect class="cls-1" x="0" width="119.74" height="196.73"/></clipPath></defs><rect class="cls-15" x=".21" y=".21" width="119.33" height="196.32"/><g class="cls-8"><rect class="cls-5" x=".21" y=".21" width="119.33" height="196.32"/></g><text class="cls-11" transform="translate(1.86 11.82)"><tspan class="cls-32" x="0" y="0">Va</tspan><tspan class="cls-9" x="13.09" y="0">le</tspan><tspan class="cls-30" x="21.97" y="0">ur</tspan><tspan x="32.65" y="0"> </tspan><tspan class="cls-31" x="35.65" y="0">n</tspan><tspan class="cls-38" x="42.08" y="0">ut</tspan><tspan class="cls-27" x="52.14" y="0">r</tspan><tspan class="cls-9" x="56.28" y="0">it</tspan><tspan class="cls-27" x="62.76" y="0">i</tspan><tspan class="cls-38" x="65.71" y="0">v</tspan><tspan x="71.64" y="0">e</tspan></text><text class="cls-11" transform="translate(1.86 23.42)"><tspan class="cls-27" x="0" y="0">Nu</tspan><tspan class="cls-38" x="14.27" y="0">t</tspan><tspan class="cls-27" x="17.81" y="0">ri</tspan><tspan class="cls-9" x="24.91" y="0">ti</tspan><tspan class="cls-30" x="31.38" y="0">o</tspan><tspan class="cls-38" x="37.92" y="0">n</tspan><tspan class="cls-16" x="44.44" y="0"> </tspan><tspan class="cls-18" x="47.44" y="0">F</tspan><tspan class="cls-38" x="53.76" y="0">a</tspan><tspan class="cls-27" x="59.69" y="0">c</tspan><tspan class="cls-38" x="65.64" y="0">t</tspan><tspan x="69.18" y="0">s</tspan></text><text class="cls-13" transform="translate(1.86 31.71)"><tspan class="cls-20" x="0" y="0">pou</tspan><tspan class="cls-36" x="11" y="0">r</tspan><tspan class="cls-6" x="13.18" y="0" xml:space="preserve"> 1</tspan><tspan class="cls-36" x="18.67" y="0"> </tspan><tspan class="cls-6" x="20.49" y="0">t</tspan><tspan class="cls-36" x="22.31" y="0">r</tspan><tspan class="cls-20" x="24.49" y="0">anche</tspan><tspan class="cls-36" x="42.45" y="0" xml:space="preserve"> (</tspan><tspan class="cls-20" x="46.45" y="0">30 g</tspan><tspan x="59.27" y="0">)</tspan></text><text class="cls-13" transform="translate(1.86 39.17)"><tspan class="cls-42" x="0" y="0">P</tspan><tspan class="cls-20" x="4.07" y="0">e</tspan><tspan class="cls-29" x="7.74" y="0">r</tspan><tspan class="cls-20" x="9.92" y="0" xml:space="preserve"> 1 slice </tspan><tspan class="cls-29" x="32.21" y="0">(</tspan><tspan class="cls-20" x="34.39" y="0">3</tspan><tspan class="cls-36" x="38.06" y="0">0</tspan><tspan class="cls-6" x="41.72" y="0" xml:space="preserve"> g</tspan><tspan x="47.21" y="0">)</tspan></text><g class="cls-24"><line class="cls-3" x1="1.86" y1="42.99" x2="117.87" y2="42.99"/></g><text class="cls-12" transform="translate(1.86 49.04)"><tspan class="cls-39" x="0" y="0">T</tspan><tspan x="2.72" y="0">e</tspan><tspan class="cls-28" x="5.48" y="0">neur</tspan><tspan x="16.18" y="0"> </tspan></text><text class="cls-12" transform="translate(67.54 49.04)"><tspan class="cls-28" x="0" y="0">%</tspan><tspan x="4.4" y="0"> </tspan><tspan class="cls-22" x="5.78" y="0">v</tspan><tspan class="cls-26" x="8.42" y="0">aleur</tspan><tspan x="20.21" y="0"> </tspan><tspan class="cls-28" x="21.59" y="0">quotidienn</tspan><tspan x="46.8" y="0">e</tspan></text><text class="cls-12" transform="translate(1.86 55.01)"><tspan x="0" y="0">Amount </tspan></text><text class="cls-12" transform="translate(84.71 55.01)"><tspan x="0" y="0">% Daily Value</tspan></text><line class="cls-4" x1="1.86" y1="57.75" x2="117.87" y2="57.75"/><line class="cls-2" x1="1.86" y1="67.81" x2="117.87" y2="67.81"/><text class="cls-10" transform="translate(1.86 64.79)"><tspan x="0" y="0">Calories / Calories </tspan></text><text class="cls-13" transform="translate(61.55 64.79)"><tspan class="cls-36" x="0" y="0">9</tspan><tspan x="3.66" y="0">0</tspan></text><text class="cls-10" transform="translate(68.89 64.79)"><tspan x="0" y="0"> </tspan></text><line class="cls-2" x1="1.86" y1="77.76" x2="117.87" y2="77.76"/><text class="cls-10" transform="translate(1.86 74.73)"><tspan class="cls-20" x="0" y="0">L</tspan><tspan class="cls-29" x="4.03" y="0">i</tspan><tspan class="cls-20" x="5.84" y="0">p</tspan><tspan class="cls-29" x="9.87" y="0">i</tspan><tspan class="cls-20" x="11.69" y="0">des</tspan><tspan x="23.05" y="0"> </tspan><tspan class="cls-29" x="24.89" y="0">/</tspan><tspan x="26.71" y="0"> </tspan><tspan class="cls-17" x="28.55" y="0">F</tspan><tspan class="cls-37" x="32.44" y="0">a</tspan><tspan class="cls-29" x="36.1" y="0">t</tspan><tspan x="38.28" y="0"> </tspan></text><text class="cls-13" transform="translate(41.92 74.73)"><tspan class="cls-36" x="0" y="0">2</tspan><tspan x="3.66" y="0" xml:space="preserve"> g</tspan></text><text class="cls-13" transform="translate(6.83 84.67)"><tspan class="cls-37" x="0" y="0">s</tspan><tspan class="cls-29" x="3.28" y="0">a</tspan><tspan class="cls-37" x="6.94" y="0">t</tspan><tspan class="cls-36" x="8.75" y="0">u</tspan><tspan class="cls-37" x="12.41" y="0">r</tspan><tspan class="cls-29" x="14.58" y="0">é</tspan><tspan class="cls-37" x="18.25" y="0">s</tspan><tspan x="21.53" y="0"> </tspan><tspan class="cls-37" x="23.37" y="0">/</tspan><tspan x="25.18" y="0"> </tspan><tspan class="cls-29" x="27.02" y="0">S</tspan><tspan class="cls-37" x="31.41" y="0">a</tspan><tspan class="cls-29" x="35.07" y="0">t</tspan><tspan class="cls-37" x="36.88" y="0">u</tspan><tspan class="cls-34" x="40.54" y="0">r</tspan><tspan class="cls-37" x="42.65" y="0">at</tspan><tspan class="cls-36" x="48.11" y="0">e</tspan><tspan class="cls-37" x="51.77" y="0">d</tspan><tspan x="55.42" y="0"> </tspan><tspan class="cls-37" x="57.26" y="0">0,</tspan><tspan class="cls-36" x="62.73" y="0">2</tspan><tspan x="66.39" y="0" xml:space="preserve"> g</tspan></text><text class="cls-13" transform="translate(6.83 92.13)"><tspan class="cls-35" x="0" y="0">+</tspan><tspan x="3.84" y="0"> </tspan><tspan class="cls-36" x="5.68" y="0">t</tspan><tspan class="cls-14" x="7.5" y="0">r</tspan><tspan class="cls-7" x="9.6" y="0">a</tspan><tspan class="cls-29" x="13.26" y="0">n</tspan><tspan class="cls-37" x="16.92" y="0">s</tspan><tspan x="20.2" y="0"> </tspan><tspan class="cls-37" x="22.04" y="0">/</tspan><tspan class="cls-19" x="23.85" y="0"> </tspan><tspan class="cls-33" x="25.37" y="0">T</tspan><tspan class="cls-14" x="28.59" y="0">r</tspan><tspan class="cls-7" x="30.7" y="0">a</tspan><tspan class="cls-29" x="34.35" y="0">n</tspan><tspan class="cls-37" x="38.01" y="0">s</tspan><tspan x="41.29" y="0"> </tspan><tspan class="cls-37" x="43.13" y="0">0</tspan><tspan x="46.79" y="0" xml:space="preserve"> g</tspan></text><path class="cls-2" d="m1.86,105.1h116.01M1.86,95.16h116.01"/><text class="cls-10" transform="translate(1.86 102.07)"><tspan class="cls-20" x="0" y="0">Ch</tspan><tspan class="cls-29" x="8.8" y="0">o</tspan><tspan class="cls-20" x="12.82" y="0">les</tspan><tspan class="cls-29" x="21.98" y="0">t</tspan><tspan class="cls-20" x="24.16" y="0">é</tspan><tspan class="cls-17" x="27.82" y="0">r</tspan><tspan class="cls-29" x="30.24" y="0">o</tspan><tspan class="cls-20" x="34.27" y="0">l</tspan><tspan x="36.09" y="0"> </tspan><tspan class="cls-6" x="37.93" y="0">/</tspan><tspan x="39.75" y="0"> </tspan><tspan class="cls-20" x="41.59" y="0">Ch</tspan><tspan class="cls-29" x="50.39" y="0">o</tspan><tspan class="cls-20" x="54.41" y="0">lest</tspan><tspan class="cls-36" x="65.76" y="0">e</tspan><tspan class="cls-21" x="69.42" y="0">r</tspan><tspan class="cls-20" x="71.84" y="0">ol</tspan><tspan x="77.69" y="0"> </tspan></text><text class="cls-13" transform="translate(81.27 102.07)"><tspan class="cls-36" x="0" y="0">0</tspan><tspan x="3.66" y="0"> </tspan><tspan class="cls-35" x="5.5" y="0">m</tspan><tspan class="cls-41" x="10.99" y="0">g</tspan></text><text class="cls-10" transform="translate(95.94 102.07)"><tspan x="0" y="0"> </tspan></text><line class="cls-2" x1="1.86" y1="115.05" x2="117.87" y2="115.05"/><text class="cls-10" transform="translate(1.86 112.02)"><tspan class="cls-29" x="0" y="0">S</tspan><tspan class="cls-37" x="4.4" y="0">odi</tspan><tspan class="cls-36" x="14.24" y="0">um</tspan><tspan x="24.13" y="0"> </tspan><tspan class="cls-37" x="25.97" y="0">/</tspan><tspan x="27.78" y="0"> </tspan><tspan class="cls-29" x="29.62" y="0">S</tspan><tspan class="cls-37" x="34.01" y="0">o</tspan><tspan class="cls-29" x="38.03" y="0">d</tspan><tspan class="cls-37" x="42.05" y="0">iu</tspan><tspan class="cls-36" x="47.88" y="0">m</tspan><tspan x="53.75" y="0"> </tspan></text><text class="cls-13" transform="translate(57.46 112.02)"><tspan class="cls-36" x="0" y="0">1</tspan><tspan class="cls-37" x="3.66" y="0">1</tspan><tspan class="cls-36" x="7.31" y="0">5</tspan><tspan x="10.97" y="0"> </tspan><tspan class="cls-35" x="12.82" y="0">m</tspan><tspan x="18.31" y="0">g</tspan></text><line class="cls-2" x1="1.86" y1="124.99" x2="117.87" y2="124.99"/><text class="cls-10" transform="translate(1.86 121.96)"><tspan class="cls-29" x="0" y="0">G</tspan><tspan class="cls-37" x="5.13" y="0">lu</tspan><tspan class="cls-29" x="10.95" y="0">c</tspan><tspan class="cls-37" x="14.62" y="0">ide</tspan><tspan class="cls-36" x="24.09" y="0">s</tspan><tspan x="27.75" y="0"> </tspan><tspan class="cls-37" x="29.6" y="0">/</tspan><tspan x="31.4" y="0"> </tspan><tspan class="cls-36" x="33.25" y="0">Car</tspan><tspan class="cls-37" x="44.22" y="0">bo</tspan><tspan class="cls-23" x="52.25" y="0">h</tspan><tspan class="cls-37" x="56.14" y="0">y</tspan><tspan class="cls-36" x="59.79" y="0">dra</tspan><tspan class="cls-37" x="70.03" y="0">t</tspan><tspan class="cls-29" x="72.2" y="0">e</tspan><tspan x="75.86" y="0"> </tspan></text><text class="cls-13" transform="translate(79.54 121.96)"><tspan class="cls-20" x="0" y="0">1</tspan><tspan class="cls-40" x="3.67" y="0">5</tspan><tspan x="7.34" y="0" xml:space="preserve"> g</tspan></text><line class="cls-2" x1="6.83" y1="134.93" x2="117.87" y2="134.93"/><text class="cls-13" transform="translate(6.83 131.91)"><tspan class="cls-37" x="0" y="0">F</tspan><tspan class="cls-29" x="4.02" y="0">ib</tspan><tspan class="cls-37" x="9.12" y="0">r</tspan><tspan class="cls-36" x="11.3" y="0">e</tspan><tspan class="cls-37" x="14.96" y="0">s</tspan><tspan x="18.24" y="0"> </tspan><tspan class="cls-35" x="20.08" y="0">/</tspan><tspan x="21.89" y="0"> </tspan><tspan class="cls-37" x="23.73" y="0">F</tspan><tspan class="cls-29" x="27.75" y="0">ibr</tspan><tspan class="cls-37" x="35.04" y="0">e</tspan><tspan x="38.69" y="0"> </tspan><tspan class="cls-36" x="40.53" y="0">1</tspan><tspan x="44.19" y="0" xml:space="preserve"> g</tspan></text><text class="cls-10" transform="translate(105.66 102.1)"><tspan class="cls-37" x="0" y="0">0</tspan><tspan x="3.65" y="0"> </tspan></text><text class="cls-13" transform="translate(111.16 102.1)"><tspan x="0" y="0">%</tspan></text><text class="cls-10" transform="translate(105.66 112.05)"><tspan class="cls-37" x="0" y="0">5</tspan><tspan x="3.65" y="0"> </tspan></text><text class="cls-13" transform="translate(111.16 112.05)"><tspan x="0" y="0">%</tspan></text><text class="cls-10" transform="translate(105.66 121.99)"><tspan class="cls-37" x="0" y="0">5</tspan><tspan x="3.65" y="0"> </tspan></text><text class="cls-13" transform="translate(111.16 121.99)"><tspan x="0" y="0">%</tspan></text><text class="cls-10" transform="translate(105.66 131.93)"><tspan class="cls-37" x="0" y="0">4</tspan><tspan x="3.65" y="0"> </tspan></text><text class="cls-13" transform="translate(111.16 131.93)"><tspan x="0" y="0">%</tspan></text><text class="cls-10" transform="translate(105.66 74.76)"><tspan class="cls-37" x="0" y="0">3</tspan><tspan x="3.65" y="0"> </tspan></text><text class="cls-13" transform="translate(111.16 74.76)"><tspan x="0" y="0">%</tspan></text><text class="cls-10" transform="translate(105.66 88.01)"><tspan class="cls-37" x="0" y="0">1</tspan><tspan x="3.65" y="0"> </tspan></text><text class="cls-13" transform="translate(111.16 88.01)"><tspan x="0" y="0">%</tspan></text><line class="cls-2" x1="1.86" y1="144.88" x2="117.87" y2="144.88"/><text class="cls-13" transform="translate(6.83 141.85)"><tspan class="cls-29" x="0" y="0">Su</tspan><tspan class="cls-35" x="8.06" y="0">c</tspan><tspan class="cls-29" x="11.34" y="0">r</tspan><tspan class="cls-7" x="13.52" y="0">e</tspan><tspan class="cls-29" x="17.17" y="0">s</tspan><tspan x="20.46" y="0"> </tspan><tspan class="cls-35" x="22.3" y="0">/</tspan><tspan x="24.11" y="0"> </tspan><tspan class="cls-29" x="25.95" y="0">Su</tspan><tspan class="cls-37" x="34.01" y="0">g</tspan><tspan class="cls-36" x="37.66" y="0">ar</tspan><tspan class="cls-37" x="43.5" y="0">s</tspan><tspan x="46.78" y="0"> </tspan><tspan class="cls-37" x="48.63" y="0">0</tspan><tspan x="52.28" y="0" xml:space="preserve"> g</tspan></text><g class="cls-25"><line class="cls-3" x1="1.86" y1="155.44" x2="117.87" y2="155.44"/></g><text class="cls-10" transform="translate(1.86 151.79)"><tspan class="cls-29" x="0" y="0">P</tspan><tspan class="cls-21" x="4.4" y="0">r</tspan><tspan class="cls-37" x="6.82" y="0">ot</tspan><tspan class="cls-29" x="13.01" y="0">é</tspan><tspan class="cls-37" x="16.67" y="0">in</tspan><tspan class="cls-36" x="22.49" y="0">e</tspan><tspan class="cls-37" x="26.15" y="0">s</tspan><tspan x="29.81" y="0"> </tspan><tspan class="cls-37" x="31.65" y="0">/</tspan><tspan x="33.46" y="0"> </tspan><tspan class="cls-29" x="35.3" y="0">P</tspan><tspan class="cls-21" x="39.69" y="0">r</tspan><tspan class="cls-37" x="42.11" y="0">ot</tspan><tspan class="cls-29" x="48.3" y="0">e</tspan><tspan class="cls-37" x="51.96" y="0">in</tspan><tspan x="57.79" y="0"> </tspan></text><text class="cls-13" transform="translate(61.45 151.79)"><tspan class="cls-36" x="0" y="0">3</tspan><tspan x="3.66" y="0" xml:space="preserve"> g</tspan></text><line class="cls-2" x1="1.86" y1="166.42" x2="117.87" y2="166.42"/><text class="cls-13" transform="translate(1.86 163.4)"><tspan x="0" y="0">Vitamine A / Vitamin A </tspan></text><line class="cls-2" x1="1.86" y1="176.37" x2="117.87" y2="176.37"/><text class="cls-13" transform="translate(1.86 173.34)"><tspan x="0" y="0">Vitamine C / Vitamine C</tspan></text><line class="cls-2" x1="1.86" y1="186.31" x2="117.87" y2="186.31"/><text class="cls-13" transform="translate(1.86 183.28)"><tspan x="0" y="0">Calcium / Calcium</tspan></text><text class="cls-13" transform="translate(1.86 193.23)"><tspan x="0" y="0">Fer / Iron</tspan></text><text class="cls-13" transform="translate(105.6 163.4)"><tspan x="0" y="0">0 %</tspan></text><text class="cls-13" transform="translate(105.6 173.35)"><tspan x="0" y="0">0 %</tspan></text><text class="cls-13" transform="translate(105.6 183.29)"><tspan x="0" y="0">0 %</tspan></text><text class="cls-13" transform="translate(105.6 193.23)"><tspan x="0" y="0">6 %</tspan></text></svg>