<?xml version="1.0" encoding="UTF-8"?><svg id="Layer_1" xmlns="http://www.w3.org/2000/svg" xmlns:xlink="http://www.w3.org/1999/xlink" viewBox="0 0 120.25 197.57"><defs><style>.cls-1,.cls-2,.cls-3,.cls-4,.cls-5{fill:none;}.cls-6{letter-spacing:0em;}.cls-7,.cls-8,.cls-9{font-family:Helvetica-Bold, Helvetica;font-weight:700;}.cls-7,.cls-8,.cls-9,.cls-10{fill:#231f20;}.cls-7,.cls-10{font-size:6.66px;}.cls-11{clip-path:url(#clippath);}.cls-2{stroke-width:1.66px;}.cls-2,.cls-3,.cls-4,.cls-5{stroke:#231f20;stroke-miterlimit:10;}.cls-12{letter-spacing:0em;}.cls-3{stroke-width:.41px;}.cls-13{letter-spacing:0em;}.cls-4{stroke-width:.42px;}.cls-14{fill:#fff;}.cls-15{letter-spacing:-.01em;}.cls-5{stroke-width:.83px;}.cls-16{letter-spacing:-.02em;}.cls-17{letter-spacing:-.02em;}.cls-18{letter-spacing:0em;}.cls-8{font-size:10.82px;}.cls-19{letter-spacing:-.03em;}.cls-20{letter-spacing:-.03em;}.cls-21{clip-path:url(#clippath-1);}.cls-22{clip-path:url(#clippath-2);}.cls-23{letter-spacing:-.01em;}.cls-9{font-size:4.99px;}.cls-24{letter-spacing:0em;}.cls-25{letter-spacing:0em;}.cls-26{letter-spacing:-.01em;}.cls-27{letter-spacing:0em;}.cls-28{letter-spacing:0em;}.cls-29{letter-spacing:0em;}.cls-30{letter-spacing:0em;}.cls-31{letter-spacing:0em;}.cls-32{letter-spacing:0em;}.cls-33{letter-spacing:0em;}.cls-34{letter-spacing:-.05em;}.cls-35{letter-spacing:-.01em;}.cls-36{letter-spacing:-.12em;}.cls-37{letter-spacing:0em;}.cls-38{letter-spacing:0em;}.cls-39{letter-spacing:0em;}.cls-40{letter-spacing:0em;}.cls-41{letter-spacing:0em;}.cls-42{letter-spacing:0em;}.cls-43{letter-spacing:-.06em;}.cls-44{letter-spacing:0em;}.cls-10{font-family:Helvetica, Helvetica;}.cls-45{letter-spacing:0em;}.cls-46{letter-spacing:-.05em;}</style><clipPath id="clippath"><rect class="cls-1" x="0" y="0" width="120.25" height="197.57"/></clipPath><clipPath id="clippath-1"><rect class="cls-1" x="0" y="0" width="120.25" height="197.57"/></clipPath><clipPath id="clippath-2"><rect class="cls-1" x="0" y="0" width="120.25" height="197.57"/></clipPath></defs><rect class="cls-14" x=".21" y=".21" width="119.83" height="197.16"/><g class="cls-11"><rect class="cls-3" x=".21" y=".21" width="119.83" height="197.16"/></g><text class="cls-8" transform="translate(1.87 11.87)"><tspan class="cls-32" x="0" y="0">Va</tspan><tspan class="cls-13" x="13.15" y="0">l</tspan><tspan class="cls-25" x="16.1" y="0">e</tspan><tspan class="cls-41" x="22.07" y="0">u</tspan><tspan class="cls-32" x="28.62" y="0">r</tspan><tspan x="32.79" y="0"> </tspan><tspan class="cls-35" x="35.8" y="0">n</tspan><tspan class="cls-41" x="42.25" y="0">u</tspan><tspan class="cls-25" x="48.81" y="0">tr</tspan><tspan class="cls-41" x="56.53" y="0">i</tspan><tspan class="cls-32" x="59.49" y="0">ti</tspan><tspan class="cls-42" x="66.01" y="0">v</tspan><tspan x="71.97" y="0">e</tspan></text><text class="cls-8" transform="translate(1.87 23.52)"><tspan class="cls-25" x="0" y="0">N</tspan><tspan class="cls-41" x="7.77" y="0">u</tspan><tspan class="cls-32" x="14.32" y="0">tr</tspan><tspan class="cls-13" x="22.05" y="0">i</tspan><tspan class="cls-25" x="25" y="0">ti</tspan><tspan class="cls-41" x="31.52" y="0">on</tspan><tspan class="cls-30" x="44.63" y="0"> </tspan><tspan class="cls-20" x="47.64" y="0">F</tspan><tspan class="cls-32" x="53.97" y="0">a</tspan><tspan class="cls-42" x="59.95" y="0">c</tspan><tspan class="cls-32" x="65.91" y="0">t</tspan><tspan x="69.47" y="0">s</tspan></text><text class="cls-10" transform="translate(1.87 31.84)"><tspan class="cls-24" x="0" y="0">pou</tspan><tspan class="cls-18" x="11.03" y="0">r </tspan><tspan class="cls-24" x="15.05" y="0">1</tspan><tspan class="cls-6" x="18.73" y="0" xml:space="preserve"> t</tspan><tspan class="cls-24" x="22.39" y="0">ran</tspan><tspan class="cls-18" x="31.93" y="0">c</tspan><tspan class="cls-24" x="35.24" y="0">he</tspan><tspan class="cls-18" x="42.59" y="0"> </tspan><tspan class="cls-24" x="44.42" y="0">(30</tspan><tspan class="cls-18" x="53.96" y="0"> </tspan><tspan class="cls-24" x="55.79" y="0">g</tspan><tspan x="59.47" y="0">)</tspan></text><text class="cls-10" transform="translate(1.87 39.33)"><tspan class="cls-46" x="0" y="0">P</tspan><tspan class="cls-28" x="4.09" y="0">er</tspan><tspan class="cls-18" x="9.95" y="0" xml:space="preserve"> 1 </tspan><tspan class="cls-28" x="17.3" y="0">s</tspan><tspan class="cls-18" x="20.6" y="0">li</tspan><tspan class="cls-28" x="23.52" y="0">c</tspan><tspan class="cls-18" x="26.82" y="0">e </tspan><tspan class="cls-28" x="32.33" y="0">(30</tspan><tspan class="cls-33" x="41.87" y="0"> </tspan><tspan class="cls-24" x="43.71" y="0">g</tspan><tspan class="cls-29" x="47.38" y="0">)</tspan></text><g class="cls-21"><line class="cls-2" x1="1.87" y1="43.18" x2="118.38" y2="43.18"/></g><text class="cls-9" transform="translate(1.87 49.25)"><tspan class="cls-43" x="0" y="0">T</tspan><tspan x="2.73" y="0">e</tspan><tspan class="cls-39" x="5.51" y="0">neur</tspan><tspan x="16.23" y="0"> </tspan></text><text class="cls-9" transform="translate(67.83 49.25)"><tspan class="cls-27" x="0" y="0">%</tspan><tspan x="4.42" y="0"> </tspan><tspan class="cls-16" x="5.81" y="0">v</tspan><tspan class="cls-27" x="8.46" y="0">aleur</tspan><tspan x="20.3" y="0"> </tspan><tspan class="cls-31" x="21.69" y="0">quotidienn</tspan><tspan x="47" y="0">e</tspan></text><text class="cls-9" transform="translate(1.87 55.24)"><tspan x="0" y="0">Amount </tspan></text><text class="cls-9" transform="translate(85.08 55.24)"><tspan x="0" y="0">% Daily Value</tspan></text><line class="cls-5" x1="1.87" y1="57.99" x2="118.38" y2="57.99"/><line class="cls-4" x1="1.87" y1="68.1" x2="118.38" y2="68.1"/><text class="cls-7" transform="translate(1.87 65.06)"><tspan x="0" y="0">Calories / Calories </tspan></text><text class="cls-10" transform="translate(61.81 65.06)"><tspan class="cls-24" x="0" y="0">7</tspan><tspan x="3.68" y="0">0</tspan></text><text class="cls-7" transform="translate(69.18 65.06)"><tspan x="0" y="0"> </tspan></text><line class="cls-4" x1="1.87" y1="78.09" x2="118.38" y2="78.09"/><text class="cls-7" transform="translate(1.87 75.05)"><tspan class="cls-28" x="0" y="0">L</tspan><tspan class="cls-18" x="4.04" y="0">ipi</tspan><tspan class="cls-24" x="11.75" y="0">de</tspan><tspan class="cls-45" x="19.46" y="0">s</tspan><tspan x="23.14" y="0"> </tspan><tspan class="cls-6" x="24.99" y="0">/</tspan><tspan x="26.82" y="0"> </tspan><tspan class="cls-19" x="28.67" y="0">F</tspan><tspan class="cls-24" x="32.57" y="0">at</tspan><tspan x="38.44" y="0"> </tspan></text><text class="cls-10" transform="translate(42.1 75.05)"><tspan class="cls-24" x="0" y="0">0,</tspan><tspan class="cls-12" x="5.5" y="0">3</tspan><tspan x="9.17" y="0" xml:space="preserve"> g</tspan></text><text class="cls-10" transform="translate(6.86 85.03)"><tspan class="cls-38" x="0" y="0">s</tspan><tspan class="cls-24" x="3.3" y="0">atu</tspan><tspan class="cls-38" x="12.47" y="0">r</tspan><tspan class="cls-24" x="14.65" y="0">é</tspan><tspan class="cls-38" x="18.33" y="0">s</tspan><tspan x="21.62" y="0"> </tspan><tspan class="cls-38" x="23.47" y="0">/</tspan><tspan x="25.29" y="0"> </tspan><tspan class="cls-28" x="27.14" y="0">Sa</tspan><tspan class="cls-38" x="35.23" y="0">t</tspan><tspan class="cls-24" x="37.05" y="0">u</tspan><tspan class="cls-15" x="40.72" y="0">r</tspan><tspan class="cls-24" x="42.84" y="0">ate</tspan><tspan class="cls-12" x="52.01" y="0">d</tspan><tspan x="55.68" y="0"> </tspan><tspan class="cls-38" x="57.53" y="0">0</tspan><tspan class="cls-24" x="61.2" y="0">,</tspan><tspan class="cls-38" x="63.03" y="0">1</tspan><tspan x="66.69" y="0" xml:space="preserve"> g</tspan></text><text class="cls-10" transform="translate(6.86 92.52)"><tspan class="cls-38" x="0" y="0">+</tspan><tspan x="3.85" y="0"> </tspan><tspan class="cls-28" x="5.7" y="0">t</tspan><tspan class="cls-26" x="7.53" y="0">r</tspan><tspan class="cls-24" x="9.65" y="0">an</tspan><tspan class="cls-38" x="17" y="0">s</tspan><tspan x="20.3" y="0"> </tspan><tspan class="cls-28" x="22.15" y="0">/</tspan><tspan class="cls-34" x="23.97" y="0"> </tspan><tspan class="cls-36" x="25.49" y="0">T</tspan><tspan class="cls-23" x="28.72" y="0">r</tspan><tspan class="cls-24" x="30.85" y="0">a</tspan><tspan class="cls-38" x="34.52" y="0">n</tspan><tspan class="cls-24" x="38.19" y="0">s</tspan><tspan x="41.49" y="0"> </tspan><tspan class="cls-24" x="43.34" y="0">0</tspan><tspan x="47.02" y="0" xml:space="preserve"> g</tspan></text><path class="cls-4" d="m1.87,105.55h116.5M1.87,95.56h116.5"/><text class="cls-7" transform="translate(1.87 102.51)"><tspan class="cls-18" x="0" y="0">C</tspan><tspan class="cls-28" x="4.79" y="0">h</tspan><tspan class="cls-6" x="8.83" y="0">ol</tspan><tspan class="cls-24" x="14.7" y="0">esté</tspan><tspan class="cls-17" x="27.92" y="0">r</tspan><tspan class="cls-28" x="30.35" y="0">o</tspan><tspan class="cls-18" x="34.39" y="0">l</tspan><tspan x="36.22" y="0"> </tspan><tspan class="cls-18" x="38.07" y="0">/</tspan><tspan x="39.9" y="0"> </tspan><tspan class="cls-18" x="41.75" y="0">C</tspan><tspan class="cls-28" x="46.54" y="0">h</tspan><tspan class="cls-6" x="50.58" y="0">ol</tspan><tspan class="cls-24" x="56.46" y="0">es</tspan><tspan class="cls-6" x="63.81" y="0">t</tspan><tspan class="cls-24" x="66" y="0">e</tspan><tspan class="cls-17" x="69.68" y="0">r</tspan><tspan class="cls-28" x="72.11" y="0">o</tspan><tspan class="cls-18" x="76.15" y="0">l</tspan><tspan x="77.98" y="0"> </tspan></text><text class="cls-10" transform="translate(81.61 102.51)"><tspan class="cls-24" x="0" y="0">0</tspan><tspan x="3.68" y="0"> </tspan><tspan class="cls-37" x="5.53" y="0">m</tspan><tspan class="cls-40" x="11.04" y="0">g</tspan></text><text class="cls-7" transform="translate(96.35 102.51)"><tspan x="0" y="0"> </tspan></text><line class="cls-4" x1="1.87" y1="115.53" x2="118.38" y2="115.53"/><text class="cls-7" transform="translate(1.87 112.5)"><tspan class="cls-24" x="0" y="0">So</tspan><tspan class="cls-37" x="8.45" y="0">diu</tspan><tspan class="cls-24" x="18.34" y="0">m</tspan><tspan x="24.23" y="0"> </tspan><tspan class="cls-28" x="26.08" y="0">/</tspan><tspan x="27.9" y="0"> </tspan><tspan class="cls-24" x="29.75" y="0">S</tspan><tspan class="cls-38" x="34.17" y="0">odiu</tspan><tspan class="cls-24" x="48.08" y="0">m</tspan><tspan x="53.97" y="0"> </tspan></text><text class="cls-10" transform="translate(57.7 112.5)"><tspan class="cls-24" x="0" y="0">170</tspan><tspan x="11.03" y="0"> </tspan><tspan class="cls-12" x="12.88" y="0">m</tspan><tspan x="18.39" y="0">g</tspan></text><line class="cls-4" x1="1.87" y1="125.52" x2="118.38" y2="125.52"/><text class="cls-7" transform="translate(1.87 122.48)"><tspan class="cls-38" x="0" y="0">G</tspan><tspan class="cls-28" x="5.15" y="0">l</tspan><tspan class="cls-38" x="6.97" y="0">u</tspan><tspan class="cls-24" x="11" y="0">ci</tspan><tspan class="cls-37" x="16.5" y="0">de</tspan><tspan class="cls-24" x="24.2" y="0">s</tspan><tspan x="27.88" y="0"> </tspan><tspan class="cls-28" x="29.73" y="0">/</tspan><tspan x="31.55" y="0"> </tspan><tspan class="cls-28" x="33.4" y="0">Car</tspan><tspan class="cls-37" x="44.42" y="0">bo</tspan><tspan class="cls-19" x="52.49" y="0">h</tspan><tspan class="cls-38" x="56.39" y="0">yd</tspan><tspan class="cls-24" x="64.09" y="0">ra</tspan><tspan class="cls-38" x="70.33" y="0">t</tspan><tspan class="cls-24" x="72.52" y="0">e</tspan><tspan x="76.19" y="0"> </tspan></text><text class="cls-10" transform="translate(79.88 122.48)"><tspan class="cls-18" x="0" y="0">1</tspan><tspan class="cls-44" x="3.68" y="0">4</tspan><tspan x="7.37" y="0" xml:space="preserve"> g</tspan></text><line class="cls-4" x1="6.86" y1="135.51" x2="118.38" y2="135.51"/><text class="cls-10" transform="translate(6.86 132.47)"><tspan class="cls-38" x="0" y="0">F</tspan><tspan class="cls-28" x="4.03" y="0">ibre</tspan><tspan class="cls-38" x="15.03" y="0">s</tspan><tspan x="18.32" y="0"> </tspan><tspan class="cls-24" x="20.17" y="0">/</tspan><tspan x="22" y="0"> </tspan><tspan class="cls-37" x="23.85" y="0">F</tspan><tspan class="cls-24" x="27.88" y="0">ib</tspan><tspan class="cls-37" x="33.01" y="0">r</tspan><tspan class="cls-24" x="35.19" y="0">e</tspan><tspan x="38.87" y="0"> </tspan><tspan class="cls-24" x="40.72" y="0">0</tspan><tspan x="44.39" y="0" xml:space="preserve"> g</tspan></text><text class="cls-7" transform="translate(106.11 102.54)"><tspan class="cls-38" x="0" y="0">0</tspan><tspan x="3.67" y="0"> </tspan></text><text class="cls-10" transform="translate(111.63 102.54)"><tspan x="0" y="0">%</tspan></text><text class="cls-7" transform="translate(106.11 112.52)"><tspan class="cls-38" x="0" y="0">7</tspan><tspan x="3.67" y="0"> </tspan></text><text class="cls-10" transform="translate(111.63 112.52)"><tspan x="0" y="0">%</tspan></text><text class="cls-7" transform="translate(106.11 122.51)"><tspan class="cls-38" x="0" y="0">5</tspan><tspan x="3.67" y="0"> </tspan></text><text class="cls-10" transform="translate(111.63 122.51)"><tspan x="0" y="0">%</tspan></text><text class="cls-7" transform="translate(106.11 132.49)"><tspan class="cls-38" x="0" y="0">0</tspan><tspan x="3.67" y="0"> </tspan></text><text class="cls-10" transform="translate(111.63 132.49)"><tspan x="0" y="0">%</tspan></text><text class="cls-7" transform="translate(106.11 75.07)"><tspan class="cls-38" x="0" y="0">0</tspan><tspan x="3.67" y="0"> </tspan></text><text class="cls-10" transform="translate(111.63 75.07)"><tspan x="0" y="0">%</tspan></text><text class="cls-7" transform="translate(106.11 88.39)"><tspan class="cls-38" x="0" y="0">1</tspan><tspan x="3.67" y="0"> </tspan></text><text class="cls-10" transform="translate(111.63 88.39)"><tspan x="0" y="0">%</tspan></text><line class="cls-4" x1="1.87" y1="145.49" x2="118.38" y2="145.49"/><text class="cls-10" transform="translate(6.86 142.45)"><tspan class="cls-24" x="0" y="0">Su</tspan><tspan class="cls-38" x="8.09" y="0">c</tspan><tspan class="cls-24" x="11.39" y="0">re</tspan><tspan class="cls-38" x="17.25" y="0">s</tspan><tspan x="20.55" y="0"> </tspan><tspan class="cls-38" x="22.4" y="0">/</tspan><tspan x="24.21" y="0"> </tspan><tspan class="cls-24" x="26.06" y="0">S</tspan><tspan class="cls-38" x="30.48" y="0">u</tspan><tspan class="cls-24" x="34.15" y="0">gar</tspan><tspan class="cls-38" x="43.69" y="0">s</tspan><tspan x="46.98" y="0"> </tspan><tspan class="cls-24" x="48.83" y="0">0</tspan><tspan x="52.51" y="0" xml:space="preserve"> g</tspan></text><g class="cls-22"><line class="cls-2" x1="1.87" y1="156.1" x2="118.38" y2="156.1"/></g><text class="cls-7" transform="translate(1.87 152.44)"><tspan class="cls-24" x="0" y="0">P</tspan><tspan class="cls-17" x="4.41" y="0">r</tspan><tspan class="cls-38" x="6.84" y="0">o</tspan><tspan class="cls-28" x="10.88" y="0">té</tspan><tspan class="cls-38" x="16.74" y="0">in</tspan><tspan class="cls-28" x="22.59" y="0">es</tspan><tspan x="29.95" y="0"> </tspan><tspan class="cls-24" x="31.8" y="0">/</tspan><tspan x="33.62" y="0"> </tspan><tspan class="cls-28" x="35.47" y="0">P</tspan><tspan class="cls-17" x="39.88" y="0">r</tspan><tspan class="cls-38" x="42.31" y="0">o</tspan><tspan class="cls-28" x="46.35" y="0">t</tspan><tspan class="cls-12" x="48.54" y="0">e</tspan><tspan class="cls-28" x="52.21" y="0">i</tspan><tspan class="cls-38" x="54.03" y="0">n</tspan><tspan x="58.06" y="0"> </tspan></text><text class="cls-10" transform="translate(61.71 152.44)"><tspan class="cls-24" x="0" y="0">2</tspan><tspan x="3.68" y="0" xml:space="preserve"> g</tspan></text><line class="cls-4" x1="1.87" y1="167.13" x2="118.38" y2="167.13"/><text class="cls-10" transform="translate(1.87 164.09)"><tspan x="0" y="0">Vitamine A / Vitamin A </tspan></text><line class="cls-4" x1="1.87" y1="177.12" x2="118.38" y2="177.12"/><text class="cls-10" transform="translate(1.87 174.08)"><tspan x="0" y="0">Vitamine C / Vitamine C</tspan></text><line class="cls-4" x1="1.87" y1="187.1" x2="118.38" y2="187.1"/><text class="cls-10" transform="translate(1.87 184.06)"><tspan x="0" y="0">Calcium / Calcium</tspan></text><text class="cls-10" transform="translate(1.87 194.05)"><tspan x="0" y="0">Fer / Iron</tspan></text><text class="cls-10" transform="translate(106.05 164.1)"><tspan x="0" y="0">0 %</tspan></text><text class="cls-10" transform="translate(106.05 174.08)"><tspan x="0" y="0">0 %</tspan></text><text class="cls-10" transform="translate(106.05 184.07)"><tspan x="0" y="0">0 %</tspan></text><text class="cls-10" transform="translate(106.05 194.06)"><tspan x="0" y="0">6 %</tspan></text></svg>