<?xml version="1.0" encoding="UTF-8"?><svg id="Layer_1" xmlns="http://www.w3.org/2000/svg" xmlns:xlink="http://www.w3.org/1999/xlink" viewBox="0 0 120.24 197.55"><defs><style>.cls-1,.cls-2,.cls-3,.cls-4,.cls-5{fill:none;}.cls-6{letter-spacing:0em;}.cls-7,.cls-8,.cls-9{font-family:Helvetica-Bold, Helvetica;font-weight:700;}.cls-7,.cls-8,.cls-9,.cls-10{fill:#231f20;}.cls-7,.cls-10{font-size:6.66px;}.cls-11{letter-spacing:0em;}.cls-12{clip-path:url(#clippath);}.cls-2{stroke-width:1.66px;}.cls-2,.cls-3,.cls-4,.cls-5{stroke:#231f20;stroke-miterlimit:10;}.cls-13{letter-spacing:0em;}.cls-3{stroke-width:.41px;}.cls-4{stroke-width:.42px;}.cls-14{letter-spacing:-.01em;}.cls-15{letter-spacing:-.01em;}.cls-16{letter-spacing:-.13em;}.cls-5{stroke-width:.83px;}.cls-17{letter-spacing:0em;}.cls-18{letter-spacing:-.02em;}.cls-19{letter-spacing:-.02em;}.cls-20{letter-spacing:0em;}.cls-8{font-size:10.82px;}.cls-21{letter-spacing:-.02em;}.cls-22{letter-spacing:-.03em;}.cls-23{clip-path:url(#clippath-1);}.cls-24{clip-path:url(#clippath-2);}.cls-25{letter-spacing:0em;}.cls-26{letter-spacing:0em;}.cls-27{letter-spacing:-.01em;}.cls-9{font-size:4.99px;}.cls-28{letter-spacing:0em;}.cls-29{letter-spacing:0em;}.cls-30{letter-spacing:0em;}.cls-31{letter-spacing:0em;}.cls-32{letter-spacing:0em;}.cls-33{letter-spacing:-.05em;}.cls-34{letter-spacing:-.02em;}.cls-35{letter-spacing:0em;}.cls-36{letter-spacing:0em;}.cls-37{letter-spacing:0em;}.cls-38{letter-spacing:0em;}.cls-39{letter-spacing:0em;}.cls-40{letter-spacing:-.06em;}.cls-41{letter-spacing:0em;}.cls-42{letter-spacing:0em;}.cls-43{letter-spacing:-.05em;}.cls-10{font-family:Helvetica, Helvetica;}.cls-44{letter-spacing:0em;}</style><clipPath id="clippath"><rect class="cls-1" x="0" y="0" width="120.24" height="197.55"/></clipPath><clipPath id="clippath-1"><rect class="cls-1" x="0" y="0" width="120.24" height="197.55"/></clipPath><clipPath id="clippath-2"><rect class="cls-1" x="0" y="0" width="120.24" height="197.55"/></clipPath></defs><g class="cls-12"><rect class="cls-3" x=".21" y=".21" width="119.82" height="197.14"/></g><text class="cls-8" transform="translate(1.87 11.87)"><tspan class="cls-26" x="0" y="0">V</tspan><tspan class="cls-39" x="7.17" y="0">a</tspan><tspan class="cls-31" x="13.13" y="0">l</tspan><tspan class="cls-38" x="16.1" y="0">e</tspan><tspan class="cls-31" x="22.06" y="0">ur</tspan><tspan x="32.79" y="0"> </tspan><tspan class="cls-15" x="35.79" y="0">n</tspan><tspan class="cls-26" x="42.24" y="0">u</tspan><tspan class="cls-38" x="48.8" y="0">t</tspan><tspan class="cls-31" x="52.35" y="0">r</tspan><tspan class="cls-38" x="56.52" y="0">it</tspan><tspan class="cls-26" x="63.02" y="0">i</tspan><tspan class="cls-39" x="65.98" y="0">v</tspan><tspan x="71.94" y="0">e</tspan></text><text class="cls-8" transform="translate(1.87 23.52)"><tspan class="cls-31" x="0" y="0">N</tspan><tspan class="cls-38" x="7.77" y="0">u</tspan><tspan class="cls-26" x="14.32" y="0">tri</tspan><tspan class="cls-39" x="25.01" y="0">t</tspan><tspan class="cls-26" x="28.56" y="0">io</tspan><tspan class="cls-39" x="38.08" y="0">n</tspan><tspan x="44.64" y="0"> </tspan><tspan class="cls-21" x="47.64" y="0">F</tspan><tspan class="cls-39" x="53.98" y="0">act</tspan><tspan x="69.45" y="0">s</tspan></text><text class="cls-10" transform="translate(1.87 31.84)"><tspan class="cls-29" x="0" y="0">p</tspan><tspan class="cls-20" x="3.68" y="0">o</tspan><tspan class="cls-25" x="7.36" y="0">u</tspan><tspan class="cls-20" x="11.03" y="0">r</tspan><tspan class="cls-29" x="13.23" y="0" xml:space="preserve"> 1</tspan><tspan class="cls-20" x="18.73" y="0"> </tspan><tspan class="cls-25" x="20.56" y="0">tra</tspan><tspan class="cls-20" x="28.25" y="0">n</tspan><tspan class="cls-25" x="31.93" y="0">c</tspan><tspan class="cls-20" x="35.23" y="0">h</tspan><tspan class="cls-29" x="38.91" y="0">e </tspan><tspan class="cls-20" x="44.41" y="0">(</tspan><tspan class="cls-29" x="46.61" y="0">55</tspan><tspan class="cls-20" x="53.96" y="0"> </tspan><tspan class="cls-29" x="55.79" y="0">g</tspan><tspan x="59.46" y="0">)</tspan></text><text class="cls-10" transform="translate(1.87 39.33)"><tspan class="cls-43" x="0" y="0">P</tspan><tspan class="cls-25" x="4.09" y="0">er</tspan><tspan class="cls-42" x="9.95" y="0"> </tspan><tspan class="cls-29" x="11.79" y="0">1</tspan><tspan class="cls-42" x="15.46" y="0"> </tspan><tspan class="cls-20" x="17.3" y="0">slice </tspan><tspan class="cls-29" x="32.35" y="0">(</tspan><tspan class="cls-20" x="34.54" y="0">5</tspan><tspan class="cls-25" x="38.22" y="0">5</tspan><tspan class="cls-20" x="41.9" y="0" xml:space="preserve"> g</tspan><tspan x="47.41" y="0">)</tspan></text><g class="cls-23"><line class="cls-2" x1="1.87" y1="43.17" x2="118.36" y2="43.17"/></g><text class="cls-9" transform="translate(1.87 49.24)"><tspan class="cls-40" x="0" y="0">T</tspan><tspan x="2.73" y="0">e</tspan><tspan class="cls-11" x="5.51" y="0">neur</tspan><tspan x="16.23" y="0"> </tspan></text><text class="cls-9" transform="translate(67.82 49.24)"><tspan class="cls-28" x="0" y="0">%</tspan><tspan class="cls-17" x="4.42" y="0"> </tspan><tspan class="cls-19" x="5.81" y="0">v</tspan><tspan class="cls-11" x="8.46" y="0">aleur</tspan><tspan class="cls-17" x="20.27" y="0"> </tspan><tspan class="cls-35" x="21.66" y="0">quotidienn</tspan><tspan class="cls-17" x="46.92" y="0">e</tspan></text><text class="cls-9" transform="translate(1.87 55.24)"><tspan x="0" y="0">Amount </tspan></text><text class="cls-9" transform="translate(85.07 55.24)"><tspan x="0" y="0">% Daily Value</tspan></text><line class="cls-5" x1="1.87" y1="57.98" x2="118.36" y2="57.98"/><line class="cls-4" x1="1.87" y1="68.09" x2="118.36" y2="68.09"/><text class="cls-7" transform="translate(1.87 65.05)"><tspan x="0" y="0">Calories / Calories </tspan></text><text class="cls-10" transform="translate(61.81 65.05)"><tspan class="cls-36" x="0" y="0">11</tspan><tspan x="7.34" y="0">0</tspan></text><text class="cls-7" transform="translate(72.85 65.05)"><tspan x="0" y="0"> </tspan></text><line class="cls-4" x1="1.87" y1="78.08" x2="118.36" y2="78.08"/><text class="cls-7" transform="translate(1.87 75.04)"><tspan class="cls-20" x="0" y="0">L</tspan><tspan class="cls-25" x="4.05" y="0">ipi</tspan><tspan class="cls-20" x="11.73" y="0">d</tspan><tspan class="cls-29" x="15.78" y="0">e</tspan><tspan class="cls-20" x="19.45" y="0">s</tspan><tspan class="cls-37" x="23.14" y="0"> </tspan><tspan class="cls-29" x="24.98" y="0">/</tspan><tspan class="cls-37" x="26.81" y="0"> </tspan><tspan class="cls-22" x="28.66" y="0">F</tspan><tspan class="cls-29" x="32.56" y="0">at</tspan><tspan x="38.42" y="0"> </tspan></text><text class="cls-10" transform="translate(42.1 75.04)"><tspan class="cls-41" x="0" y="0">/</tspan><tspan x="1.84" y="0"> </tspan><tspan class="cls-41" x="3.69" y="0">0,5</tspan><tspan x="12.93" y="0" xml:space="preserve"> g</tspan></text><text class="cls-10" transform="translate(6.86 85.02)"><tspan class="cls-25" x="0" y="0">s</tspan><tspan class="cls-36" x="3.3" y="0">a</tspan><tspan class="cls-25" x="6.97" y="0">t</tspan><tspan class="cls-36" x="8.79" y="0">uré</tspan><tspan class="cls-25" x="18.31" y="0">s</tspan><tspan class="cls-37" x="21.62" y="0"> </tspan><tspan class="cls-29" x="23.47" y="0">/</tspan><tspan class="cls-37" x="25.29" y="0"> </tspan><tspan class="cls-29" x="27.14" y="0">Sa</tspan><tspan class="cls-13" x="35.23" y="0">t</tspan><tspan class="cls-29" x="37.04" y="0">u</tspan><tspan class="cls-34" x="40.72" y="0">r</tspan><tspan class="cls-36" x="42.84" y="0">a</tspan><tspan class="cls-25" x="46.5" y="0">t</tspan><tspan class="cls-36" x="48.33" y="0">e</tspan><tspan class="cls-29" x="52" y="0">d</tspan><tspan class="cls-37" x="55.67" y="0"> </tspan><tspan class="cls-36" x="57.52" y="0">0</tspan><tspan class="cls-29" x="61.19" y="0">,</tspan><tspan class="cls-36" x="63.01" y="0">1</tspan><tspan class="cls-37" x="66.68" y="0" xml:space="preserve"> g</tspan></text><text class="cls-10" transform="translate(6.86 92.51)"><tspan class="cls-13" x="0" y="0">+</tspan><tspan x="3.85" y="0"> </tspan><tspan class="cls-25" x="5.7" y="0">t</tspan><tspan class="cls-14" x="7.53" y="0">r</tspan><tspan class="cls-36" x="9.64" y="0">an</tspan><tspan class="cls-25" x="16.98" y="0">s</tspan><tspan class="cls-37" x="20.28" y="0"> </tspan><tspan class="cls-25" x="22.13" y="0">/</tspan><tspan class="cls-33" x="23.96" y="0"> </tspan><tspan class="cls-16" x="25.47" y="0">T</tspan><tspan class="cls-27" x="28.71" y="0">r</tspan><tspan class="cls-36" x="30.83" y="0">an</tspan><tspan class="cls-25" x="38.17" y="0">s</tspan><tspan x="41.47" y="0"> </tspan><tspan class="cls-36" x="43.32" y="0">0</tspan><tspan class="cls-37" x="46.99" y="0" xml:space="preserve"> g</tspan></text><path class="cls-4" d="m1.87,105.54h116.49M1.87,95.55h116.49"/><text class="cls-7" transform="translate(1.87 102.5)"><tspan class="cls-6" x="0" y="0">C</tspan><tspan class="cls-25" x="4.79" y="0">h</tspan><tspan class="cls-44" x="8.83" y="0">o</tspan><tspan class="cls-29" x="12.87" y="0">l</tspan><tspan class="cls-20" x="14.7" y="0">e</tspan><tspan class="cls-25" x="18.38" y="0">st</tspan><tspan class="cls-20" x="24.24" y="0">é</tspan><tspan class="cls-18" x="27.93" y="0">r</tspan><tspan class="cls-20" x="30.36" y="0">o</tspan><tspan class="cls-25" x="34.4" y="0">l</tspan><tspan x="36.23" y="0"> </tspan><tspan class="cls-25" x="38.08" y="0">/</tspan><tspan x="39.9" y="0"> </tspan><tspan class="cls-20" x="41.75" y="0">Ch</tspan><tspan class="cls-25" x="50.58" y="0">ol</tspan><tspan class="cls-6" x="56.44" y="0">e</tspan><tspan class="cls-25" x="60.13" y="0">s</tspan><tspan class="cls-20" x="63.8" y="0">t</tspan><tspan class="cls-29" x="66" y="0">e</tspan><tspan class="cls-18" x="69.67" y="0">r</tspan><tspan class="cls-20" x="72.1" y="0">o</tspan><tspan class="cls-25" x="76.15" y="0">l</tspan><tspan x="77.97" y="0"> </tspan></text><text class="cls-10" transform="translate(81.61 102.5)"><tspan class="cls-36" x="0" y="0">0</tspan><tspan x="3.67" y="0"> </tspan><tspan class="cls-29" x="5.52" y="0">m</tspan><tspan x="11.04" y="0">g</tspan></text><text class="cls-7" transform="translate(96.34 102.5)"><tspan x="0" y="0"> </tspan></text><line class="cls-4" x1="1.87" y1="115.52" x2="118.36" y2="115.52"/><text class="cls-7" transform="translate(1.87 112.48)"><tspan class="cls-29" x="0" y="0">So</tspan><tspan class="cls-13" x="8.45" y="0">d</tspan><tspan class="cls-25" x="12.49" y="0">i</tspan><tspan class="cls-36" x="14.31" y="0">u</tspan><tspan class="cls-25" x="18.34" y="0">m</tspan><tspan x="24.23" y="0"> </tspan><tspan class="cls-36" x="26.08" y="0">/</tspan><tspan class="cls-37" x="27.9" y="0"> </tspan><tspan class="cls-29" x="29.75" y="0">S</tspan><tspan class="cls-36" x="34.16" y="0">od</tspan><tspan class="cls-25" x="42.23" y="0">ium</tspan><tspan x="53.98" y="0"> </tspan></text><text class="cls-10" transform="translate(57.69 112.48)"><tspan class="cls-36" x="0" y="0">25</tspan><tspan class="cls-25" x="7.34" y="0">0</tspan><tspan x="11.01" y="0"> </tspan><tspan class="cls-36" x="12.86" y="0">m</tspan><tspan class="cls-30" x="18.37" y="0">g</tspan></text><line class="cls-4" x1="1.87" y1="125.51" x2="118.36" y2="125.51"/><text class="cls-7" transform="translate(1.87 122.47)"><tspan class="cls-29" x="0" y="0">Gl</tspan><tspan class="cls-13" x="6.97" y="0">uc</tspan><tspan class="cls-29" x="14.68" y="0">id</tspan><tspan class="cls-36" x="20.54" y="0">es</tspan><tspan class="cls-37" x="27.88" y="0"> </tspan><tspan class="cls-25" x="29.73" y="0">/</tspan><tspan x="31.55" y="0"> </tspan><tspan class="cls-29" x="33.4" y="0">C</tspan><tspan class="cls-36" x="38.18" y="0">a</tspan><tspan class="cls-29" x="41.85" y="0">r</tspan><tspan class="cls-13" x="44.41" y="0">bo</tspan><tspan class="cls-22" x="52.48" y="0">h</tspan><tspan class="cls-36" x="56.38" y="0">yd</tspan><tspan class="cls-29" x="64.08" y="0">r</tspan><tspan class="cls-36" x="66.64" y="0">ate</tspan><tspan class="cls-37" x="76.16" y="0"> </tspan></text><text class="cls-10" transform="translate(79.87 122.47)"><tspan class="cls-32" x="0" y="0">2</tspan><tspan class="cls-20" x="3.69" y="0">2</tspan><tspan x="7.37" y="0" xml:space="preserve"> g</tspan></text><line class="cls-4" x1="6.86" y1="135.49" x2="118.36" y2="135.49"/><text class="cls-10" transform="translate(6.86 132.45)"><tspan class="cls-13" x="0" y="0">F</tspan><tspan class="cls-29" x="4.03" y="0">i</tspan><tspan class="cls-36" x="5.49" y="0">bre</tspan><tspan class="cls-25" x="15.01" y="0">s</tspan><tspan x="18.31" y="0"> </tspan><tspan class="cls-25" x="20.16" y="0">/</tspan><tspan x="21.98" y="0"> </tspan><tspan class="cls-36" x="23.83" y="0">F</tspan><tspan class="cls-25" x="27.86" y="0">i</tspan><tspan class="cls-36" x="29.32" y="0">bre</tspan><tspan x="38.84" y="0"> </tspan><tspan class="cls-36" x="40.69" y="0">1</tspan><tspan x="44.35" y="0" xml:space="preserve"> g</tspan></text><text class="cls-7" transform="translate(106.1 102.53)"><tspan class="cls-29" x="0" y="0">0</tspan><tspan class="cls-37" x="3.68" y="0"> </tspan></text><text class="cls-10" transform="translate(111.62 102.53)"><tspan x="0" y="0">%</tspan></text><text class="cls-7" transform="translate(102.43 112.51)"><tspan class="cls-29" x="0" y="0">1</tspan><tspan class="cls-13" x="3.68" y="0">1</tspan><tspan x="7.34" y="0"> </tspan></text><text class="cls-10" transform="translate(111.62 112.51)"><tspan x="0" y="0">%</tspan></text><text class="cls-7" transform="translate(106.1 122.5)"><tspan class="cls-29" x="0" y="0">8</tspan><tspan class="cls-37" x="3.68" y="0"> </tspan></text><text class="cls-10" transform="translate(111.62 122.5)"><tspan x="0" y="0">%</tspan></text><text class="cls-7" transform="translate(106.1 132.48)"><tspan class="cls-29" x="0" y="0">4</tspan><tspan class="cls-37" x="3.68" y="0"> </tspan></text><text class="cls-10" transform="translate(111.62 132.48)"><tspan x="0" y="0">%</tspan></text><text class="cls-7" transform="translate(106.1 75.07)"><tspan class="cls-29" x="0" y="0">1</tspan><tspan class="cls-37" x="3.68" y="0"> </tspan></text><text class="cls-10" transform="translate(111.62 75.07)"><tspan x="0" y="0">%</tspan></text><text class="cls-7" transform="translate(106.1 88.38)"><tspan class="cls-29" x="0" y="0">1</tspan><tspan class="cls-37" x="3.68" y="0"> </tspan></text><text class="cls-10" transform="translate(111.62 88.38)"><tspan x="0" y="0">%</tspan></text><line class="cls-4" x1="1.87" y1="145.48" x2="118.36" y2="145.48"/><text class="cls-10" transform="translate(6.86 142.44)"><tspan class="cls-29" x="0" y="0">Su</tspan><tspan class="cls-36" x="8.09" y="0">cre</tspan><tspan class="cls-25" x="17.24" y="0">s</tspan><tspan x="20.54" y="0"> </tspan><tspan class="cls-25" x="22.39" y="0">/</tspan><tspan x="24.21" y="0"> </tspan><tspan class="cls-29" x="26.06" y="0">S</tspan><tspan class="cls-36" x="30.47" y="0">ugar</tspan><tspan class="cls-25" x="43.66" y="0">s</tspan><tspan x="46.97" y="0"> </tspan><tspan class="cls-36" x="48.81" y="0">0</tspan><tspan x="52.48" y="0" xml:space="preserve"> g</tspan></text><g class="cls-24"><line class="cls-2" x1="1.87" y1="156.09" x2="118.36" y2="156.09"/></g><text class="cls-7" transform="translate(1.87 152.42)"><tspan class="cls-29" x="0" y="0">P</tspan><tspan class="cls-18" x="4.41" y="0">r</tspan><tspan class="cls-25" x="6.84" y="0">o</tspan><tspan class="cls-36" x="10.88" y="0">té</tspan><tspan class="cls-25" x="16.74" y="0">i</tspan><tspan class="cls-13" x="18.56" y="0">nes</tspan><tspan x="29.93" y="0"> </tspan><tspan class="cls-25" x="31.78" y="0">/</tspan><tspan x="33.6" y="0"> </tspan><tspan class="cls-29" x="35.45" y="0">P</tspan><tspan class="cls-18" x="39.87" y="0">r</tspan><tspan class="cls-13" x="42.3" y="0">ote</tspan><tspan class="cls-25" x="52.18" y="0">i</tspan><tspan class="cls-36" x="54" y="0">n</tspan><tspan class="cls-37" x="58.04" y="0"> </tspan></text><text class="cls-10" transform="translate(61.71 152.42)"><tspan class="cls-36" x="0" y="0">4</tspan><tspan x="3.67" y="0" xml:space="preserve"> g</tspan></text><line class="cls-4" x1="1.87" y1="167.11" x2="118.36" y2="167.11"/><text class="cls-10" transform="translate(1.87 164.07)"><tspan x="0" y="0">Vitamine A / Vitamin A </tspan></text><line class="cls-4" x1="1.87" y1="177.1" x2="118.36" y2="177.1"/><text class="cls-10" transform="translate(1.87 174.06)"><tspan x="0" y="0">Vitamine C / Vitamine C</tspan></text><line class="cls-4" x1="1.87" y1="187.08" x2="118.36" y2="187.08"/><text class="cls-10" transform="translate(1.87 184.04)"><tspan x="0" y="0">Calcium / Calcium</tspan></text><text class="cls-10" transform="translate(1.87 194.03)"><tspan x="0" y="0">Fer / Iron</tspan></text><text class="cls-10" transform="translate(106.04 164.08)"><tspan x="0" y="0">0 %</tspan></text><text class="cls-10" transform="translate(106.04 174.07)"><tspan x="0" y="0">0 %</tspan></text><text class="cls-10" transform="translate(106.04 184.05)"><tspan x="0" y="0">0 %</tspan></text><text class="cls-10" transform="translate(102.34 194.04)"><tspan x="0" y="0">10 %</tspan></text></svg>