<?xml version="1.0" encoding="UTF-8"?><svg id="Layer_1" xmlns="http://www.w3.org/2000/svg" viewBox="0 0 119.85 174.96"><defs><style>.cls-1{font-family:HelveticaLTStd-Roman, 'Helvetica LT Std';}.cls-1,.cls-2{font-size:6.24px;}.cls-3{letter-spacing:-.01em;}.cls-4{letter-spacing:.05em;}.cls-5{letter-spacing:0em;}.cls-6{letter-spacing:-.04em;}.cls-7{letter-spacing:.05em;}.cls-8{letter-spacing:0em;}.cls-9{letter-spacing:0em;}.cls-10{letter-spacing:.05em;}.cls-11{font-size:7.73px;}.cls-11,.cls-12,.cls-13,.cls-2,.cls-14,.cls-15{font-weight:700;}.cls-11,.cls-13,.cls-2,.cls-15{font-family:Arial-BoldMT, Arial;}.cls-16{letter-spacing:0em;}.cls-17{letter-spacing:0em;}.cls-18{letter-spacing:0em;}.cls-19{letter-spacing:0em;}.cls-20{letter-spacing:0em;}.cls-21{font-family:ArialNarrow, 'Arial Narrow';}.cls-21,.cls-12,.cls-13,.cls-14{font-size:4.66px;}.cls-12,.cls-14{font-family:ArialNarrow-Bold, 'Arial Narrow';}.cls-22{letter-spacing:0em;}.cls-23{letter-spacing:0em;}.cls-24{letter-spacing:0em;}.cls-25{letter-spacing:-.05em;}.cls-26{letter-spacing:-.05em;}.cls-27{letter-spacing:0em;}.cls-28{letter-spacing:0em;}.cls-29{letter-spacing:0em;}.cls-30{letter-spacing:0em;}.cls-31{letter-spacing:0em;}.cls-32{letter-spacing:0em;}.cls-33{letter-spacing:0em;}.cls-34{letter-spacing:-.02em;}.cls-35{letter-spacing:-.06em;}.cls-36{letter-spacing:0em;}.cls-37{letter-spacing:.02em;}.cls-38{letter-spacing:0em;}.cls-39{letter-spacing:0em;}.cls-40{letter-spacing:0em;}.cls-41{letter-spacing:0em;}.cls-42{letter-spacing:-.02em;}.cls-43{letter-spacing:-.02em;}.cls-44{letter-spacing:0em;}.cls-45{letter-spacing:0em;}.cls-46{letter-spacing:0em;}.cls-47{letter-spacing:0em;}.cls-48{letter-spacing:0em;}.cls-49{letter-spacing:0em;}.cls-50{letter-spacing:0em;}.cls-51{letter-spacing:0em;}.cls-52{letter-spacing:0em;}.cls-14,.cls-53{letter-spacing:0em;}.cls-54{letter-spacing:0em;}.cls-15{font-size:10.06px;}.cls-55{letter-spacing:0em;}.cls-56{letter-spacing:.03em;}.cls-57{letter-spacing:-.07em;}.cls-58{letter-spacing:0em;}.cls-59{letter-spacing:0em;}.cls-60{letter-spacing:0em;}.cls-61{letter-spacing:0em;}.cls-62{letter-spacing:0em;}.cls-63{letter-spacing:0em;}.cls-64{letter-spacing:0em;}.cls-65{letter-spacing:0em;}.cls-66{letter-spacing:0em;}.cls-67{letter-spacing:0em;}</style></defs><rect width="119.85" height=".74"/><rect x="119.11" width=".74" height="174.96"/><rect y="174.24" width="119.85" height=".72"/><rect width=".74" height="174.96"/><rect x="3.07" y="40.32" width="114.82" height=".74"/><rect x="3.07" y="50.75" width="50.66" height="1.96"/><rect x="3.07" y="77.2" width="114.82" height=".74"/><rect x="3.07" y="128.79" width="114.82" height="1.96"/><rect x="3.07" y="139.59" width="114.82" height=".74"/><rect x="3.07" y="149" width="114.82" height=".75"/><rect x="3.07" y="119.2" width="114.82" height=".74"/><rect x="3.07" y="109.33" width="114.82" height=".74"/><rect x="3.07" y="100.11" width="114.82" height=".74"/><rect x="3.07" y="158.5" width="114.82" height="1.96"/><text class="cls-13" transform="translate(68.26 47.12)"><tspan class="cls-26" x="0" y="0">%</tspan><tspan class="cls-16" x="3.91" y="0"> </tspan><tspan class="cls-42" x="5.21" y="0">v</tspan><tspan class="cls-16" x="7.73" y="0">ale</tspan><tspan class="cls-54" x="14.23" y="0">ur</tspan><tspan class="cls-16" x="18.79" y="0"> </tspan><tspan class="cls-46" x="20.1" y="0">q</tspan><tspan class="cls-3" x="22.98" y="0">u</tspan><tspan class="cls-46" x="25.78" y="0">o</tspan><tspan class="cls-52" x="28.67" y="0">t</tspan><tspan class="cls-16" x="30.25" y="0">i</tspan><tspan class="cls-46" x="31.55" y="0">d</tspan><tspan class="cls-16" x="34.43" y="0">ie</tspan><tspan class="cls-3" x="38.34" y="0">nn</tspan><tspan class="cls-16" x="43.93" y="0">e </tspan><tspan x="47.83" y="0">*</tspan></text><text class="cls-13" transform="translate(85.12 52.24)"><tspan class="cls-26" x="0" y="0">%</tspan><tspan class="cls-16" x="3.91" y="0" xml:space="preserve"> Dail</tspan><tspan class="cls-42" x="13.79" y="0">y</tspan><tspan class="cls-16" x="16.31" y="0"> </tspan><tspan class="cls-57" x="17.61" y="0">V</tspan><tspan class="cls-67" x="20.41" y="0">al</tspan><tspan class="cls-19" x="24.31" y="0">u</tspan><tspan class="cls-66" x="27.11" y="0">e </tspan><tspan class="cls-53" x="31.03" y="0">*</tspan></text><text class="cls-11" transform="translate(3.07 48.89)"><tspan class="cls-44" x="0" y="0">Cal</tspan><tspan class="cls-33" x="12" y="0">o</tspan><tspan class="cls-44" x="16.75" y="0">ries 25</tspan><tspan x="41.19" y="0">0</tspan></text><text class="cls-2" transform="translate(3.07 60.9)"><tspan class="cls-38" x="0" y="0">Lipid</tspan><tspan class="cls-62" x="14.96" y="0">es</tspan><tspan class="cls-38" x="21.92" y="0" xml:space="preserve"> / F</tspan><tspan class="cls-62" x="30.98" y="0">a</tspan><tspan class="cls-48" x="34.45" y="0">t</tspan><tspan x="36.51" y="0"> </tspan></text><path d="m43.67,60.9h-.55v-3.49c-.13.13-.31.25-.52.38-.21.13-.41.22-.58.28v-.53c.31-.14.57-.32.8-.52.23-.21.39-.4.49-.6h.35v4.48Zm3.2.27l.53.08c.02.16.08.28.19.36.14.1.32.15.56.15.25,0,.45-.05.59-.15.14-.1.23-.24.28-.43.03-.11.04-.35.04-.7-.24.28-.54.42-.9.42-.44,0-.79-.16-1.03-.48-.24-.32-.37-.71-.37-1.15,0-.31.06-.59.17-.85.11-.26.27-.46.49-.6.21-.14.46-.21.75-.21.38,0,.7.15.94.46v-.39h.51v2.8c0,.5-.05.86-.15,1.07-.1.21-.27.38-.49.5-.22.12-.5.18-.82.18-.39,0-.7-.09-.94-.26-.24-.17-.35-.44-.34-.78Zm.45-1.94c0,.42.08.73.25.93.17.19.38.29.63.29s.46-.1.63-.29c.17-.19.26-.5.26-.91s-.09-.69-.26-.9c-.18-.2-.39-.3-.64-.3s-.45.1-.62.3c-.17.2-.26.49-.26.88Z"/><path d="m109.41,60.72h-.55v-3.49c-.13.13-.31.25-.52.38-.21.13-.41.22-.58.28v-.53c.31-.14.57-.32.8-.52.23-.21.39-.4.49-.6h.35v4.48Zm3.25-3.39c0-.32.08-.59.24-.81.16-.22.39-.34.7-.34.28,0,.51.1.7.3.18.2.28.49.28.88s-.09.67-.28.87-.41.31-.69.31-.5-.1-.67-.3c-.18-.2-.27-.5-.27-.91Zm.95-.77c-.14,0-.25.06-.34.18-.09.12-.14.33-.14.65,0,.29.05.49.14.6.09.12.2.18.34.18s.25-.06.34-.18c.09-.12.14-.33.14-.65,0-.29-.05-.49-.14-.61-.09-.12-.21-.18-.34-.18Zm0,4.33l2.44-4.71h.44l-2.43,4.71h-.45Zm1.93-1.21c0-.32.08-.59.24-.81.16-.22.39-.33.7-.33.28,0,.51.1.7.3.18.2.28.49.28.88s-.09.67-.28.87c-.19.2-.42.31-.69.31s-.5-.1-.67-.3-.27-.51-.27-.91Zm.96-.77c-.14,0-.25.06-.34.18-.09.12-.14.33-.14.65,0,.28.05.49.14.6s.2.18.34.18.26-.06.35-.18c.09-.12.14-.33.14-.65,0-.29-.05-.49-.14-.61-.09-.12-.21-.18-.34-.18Z"/><path d="m7.83,66.46l.54-.09c.03.22.12.38.25.5.14.12.33.17.58.17s.44-.05.56-.15c.12-.1.18-.22.18-.36,0-.12-.05-.22-.16-.29-.08-.05-.26-.11-.56-.19-.4-.1-.68-.19-.84-.26-.16-.07-.27-.18-.35-.31-.08-.13-.12-.28-.12-.43,0-.14.03-.28.1-.4.07-.12.16-.22.27-.31.09-.06.2-.12.35-.16.15-.04.31-.07.47-.07.25,0,.48.04.67.11.19.07.33.17.42.3.09.12.15.29.19.5l-.54.07c-.02-.17-.09-.3-.21-.39-.12-.09-.28-.14-.5-.14-.25,0-.43.04-.54.12-.11.08-.16.18-.16.29,0,.07.02.14.07.19.04.06.11.11.21.15.05.02.22.07.48.14.39.1.66.19.81.25.15.07.27.16.36.29.09.13.13.28.13.47s-.05.35-.16.52c-.11.16-.26.29-.46.37-.2.09-.43.13-.68.13-.42,0-.74-.09-.96-.26-.22-.17-.36-.43-.42-.78Zm5.61.97c-.06-.11-.09-.25-.11-.4-.2.17-.4.29-.59.37-.19.07-.39.11-.6.11-.36,0-.63-.09-.82-.26-.19-.17-.29-.4-.29-.67,0-.16.04-.3.11-.43.07-.13.17-.24.28-.32.12-.08.25-.14.39-.18.11-.03.27-.06.49-.08.44-.05.77-.12.98-.19,0-.08,0-.12,0-.14,0-.22-.05-.38-.16-.47-.14-.12-.35-.19-.62-.19-.26,0-.45.05-.57.14-.12.09-.21.25-.27.48l-.54-.07c.05-.23.13-.41.24-.56.11-.14.27-.25.48-.33.21-.08.46-.11.73-.11s.5.03.67.1c.17.07.3.15.38.25.08.1.14.22.17.37.02.09.03.26.03.51v.73c0,.51.01.83.04.97.02.14.07.26.14.39h-.57Zm-.16-1.62c-.2.08-.5.15-.9.21-.23.03-.38.07-.48.11-.09.04-.17.1-.22.18-.05.08-.08.17-.08.26,0,.15.06.27.17.37.11.1.27.15.49.15s.4-.05.56-.14c.16-.09.29-.22.36-.38.06-.12.09-.31.09-.55v-.2Zm2.34,1.15c.06,0,.14,0,.24-.02l.08.48c-.15.03-.29.05-.41.05-.2,0-.35-.03-.46-.09s-.19-.15-.23-.25c-.04-.1-.07-.32-.07-.65v-1.86h-.4v-.43h.4v-.8l.55-.33v1.13h.55v.43h-.55v1.89c0,.16,0,.26.03.3.02.04.05.08.09.11.04.03.11.04.19.04h0Zm2.93.47v-.48c-.25.37-.59.55-1.03.55-.19,0-.37-.04-.53-.11-.17-.07-.29-.16-.37-.28-.08-.11-.14-.25-.17-.41-.02-.11-.03-.28-.03-.51v-2h.55v1.79c0,.29.01.48.03.58.03.14.11.26.22.34.11.08.25.12.41.12s.32-.04.46-.13c.14-.08.25-.2.31-.34.06-.15.09-.36.09-.63v-1.73h.55v3.24h-.49Zm1.32,0v-3.24h.49v.49c.13-.23.24-.38.35-.45s.22-.11.35-.11c.18,0,.37.06.56.18l-.19.51c-.13-.08-.27-.12-.4-.12-.12,0-.23.04-.32.11-.1.07-.16.17-.2.3-.06.19-.09.41-.09.64v1.69h-.55Zm4.27-1.04l.57.07c-.09.33-.25.59-.5.77-.24.18-.55.27-.93.27-.47,0-.85-.15-1.13-.44-.28-.29-.42-.7-.42-1.23s.14-.97.42-1.27c.28-.3.64-.45,1.09-.45s.79.15,1.06.44c.27.29.41.71.41,1.24,0,.03,0,.08,0,.15h-2.41c.02.36.12.63.3.82.18.19.41.28.68.28.2,0,.37-.05.51-.16.14-.11.25-.27.34-.51Zm-1.8-.89h1.81c-.02-.27-.09-.48-.21-.61-.17-.21-.4-.32-.68-.32-.25,0-.46.08-.64.25-.17.17-.27.39-.28.68Zm.59-1.71l.41-.85h.72l-.67.85h-.45Zm2.22,2.67l.54-.09c.03.22.12.38.25.5.14.12.33.17.58.17s.44-.05.56-.15c.12-.1.18-.22.18-.36,0-.12-.05-.22-.16-.29-.08-.05-.26-.11-.56-.19-.4-.1-.68-.19-.84-.26-.16-.07-.27-.18-.35-.31-.08-.13-.12-.28-.12-.43,0-.14.03-.28.1-.4.07-.12.16-.22.27-.31.09-.06.2-.12.35-.16.15-.04.31-.07.47-.07.25,0,.48.04.67.11.19.07.33.17.42.3.09.12.15.29.19.5l-.54.07c-.02-.17-.09-.3-.21-.39-.12-.09-.28-.14-.5-.14-.25,0-.43.04-.54.12-.11.08-.16.18-.16.29,0,.07.02.14.07.19.04.06.11.11.21.15.05.02.22.07.48.14.39.1.66.19.81.25.15.07.27.16.36.29.09.13.13.28.13.47s-.05.35-.16.52c-.11.16-.26.29-.46.37-.2.09-.43.13-.68.13-.42,0-.74-.09-.96-.26-.22-.17-.36-.43-.42-.78Zm4.75,1.04l1.29-4.62h.44l-1.29,4.62h-.44Zm3.82-1.51l.56-.05c.03.22.09.41.18.55.1.14.25.26.45.35.2.09.43.13.69.13.23,0,.42-.03.6-.1.17-.07.3-.16.39-.28.08-.12.13-.24.13-.38s-.04-.26-.12-.37c-.08-.1-.22-.19-.4-.26-.12-.05-.38-.12-.8-.22-.41-.1-.7-.19-.86-.28-.21-.11-.37-.25-.48-.42-.1-.17-.16-.35-.16-.56,0-.23.06-.44.19-.63.13-.2.31-.34.56-.45.25-.1.52-.15.82-.15.33,0,.62.05.88.16.25.11.45.26.58.47.14.21.21.44.22.7l-.57.04c-.03-.28-.13-.5-.31-.64-.18-.14-.44-.22-.78-.22s-.62.07-.78.2c-.16.13-.25.29-.25.47,0,.16.06.29.17.4.11.1.41.21.89.32.48.11.81.2.99.28.26.12.45.27.58.46.12.18.19.4.19.64s-.07.46-.2.67c-.14.21-.33.37-.59.49-.25.12-.54.18-.86.18-.4,0-.74-.06-1.02-.18-.27-.12-.49-.29-.64-.53-.16-.24-.24-.5-.25-.8Zm6.54,1.43c-.06-.11-.09-.25-.11-.4-.2.17-.4.29-.59.37-.19.07-.39.11-.6.11-.36,0-.63-.09-.82-.26-.19-.17-.29-.4-.29-.67,0-.16.04-.3.11-.43.07-.13.17-.24.28-.32.12-.08.25-.14.39-.18.11-.03.27-.06.49-.08.44-.05.77-.12.98-.19,0-.08,0-.12,0-.14,0-.22-.05-.38-.16-.47-.14-.12-.35-.19-.62-.19-.26,0-.45.05-.57.14-.12.09-.21.25-.27.48l-.54-.07c.05-.23.13-.41.24-.56.11-.14.27-.25.48-.33.21-.08.46-.11.73-.11s.5.03.67.1c.17.07.3.15.38.25.08.1.14.22.17.37.02.09.03.26.03.51v.73c0,.51.01.83.04.97.02.14.07.26.14.39h-.57Zm-.16-1.62c-.2.08-.5.15-.9.21-.23.03-.38.07-.48.11-.09.04-.17.1-.22.18-.05.08-.08.17-.08.26,0,.15.06.27.17.37.11.1.27.15.49.15s.4-.05.56-.14c.16-.09.29-.22.36-.38.06-.12.09-.31.09-.55v-.2Zm2.34,1.15c.06,0,.14,0,.24-.02l.08.48c-.15.03-.29.05-.41.05-.2,0-.35-.03-.46-.09s-.19-.15-.23-.25c-.04-.1-.07-.32-.07-.65v-1.86h-.4v-.43h.4v-.8l.55-.33v1.13h.55v.43h-.55v1.89c0,.16,0,.26.03.3.02.04.05.08.09.11.04.03.11.04.19.04h0Zm2.93.47v-.48c-.25.37-.59.55-1.03.55-.19,0-.37-.04-.53-.11-.17-.07-.29-.16-.37-.28-.08-.11-.14-.25-.17-.41-.02-.11-.03-.28-.03-.51v-2h.55v1.79c0,.29.01.48.03.58.03.14.11.26.22.34.11.08.25.12.41.12s.32-.04.46-.13c.14-.08.25-.2.31-.34.06-.15.09-.36.09-.63v-1.73h.55v3.24h-.49Zm1.32,0v-3.24h.49v.49c.13-.23.24-.38.35-.45s.22-.11.35-.11c.18,0,.37.06.56.18l-.19.51c-.13-.08-.27-.12-.4-.12-.12,0-.23.04-.32.11-.1.07-.16.17-.2.3-.06.19-.09.41-.09.64v1.69h-.55Zm4.28,0c-.06-.11-.09-.25-.11-.4-.2.17-.4.29-.59.37-.19.07-.39.11-.6.11-.36,0-.63-.09-.82-.26-.19-.17-.29-.4-.29-.67,0-.16.04-.3.11-.43.07-.13.17-.24.28-.32.12-.08.25-.14.39-.18.11-.03.27-.06.49-.08.44-.05.77-.12.98-.19,0-.08,0-.12,0-.14,0-.22-.05-.38-.16-.47-.14-.12-.35-.19-.62-.19-.26,0-.45.05-.57.14-.12.09-.21.25-.27.48l-.54-.07c.05-.23.13-.41.24-.56.11-.14.27-.25.48-.33.21-.08.46-.11.73-.11s.5.03.67.1c.17.07.3.15.38.25.08.1.14.22.17.37.02.09.03.26.03.51v.73c0,.51.01.83.04.97.02.14.07.26.14.39h-.57Zm-.16-1.62c-.2.08-.5.15-.9.21-.23.03-.38.07-.48.11-.09.04-.17.1-.22.18-.05.08-.08.17-.08.26,0,.15.06.27.17.37.11.1.27.15.49.15s.4-.05.56-.14c.16-.09.29-.22.36-.38.06-.12.09-.31.09-.55v-.2Zm2.34,1.15c.06,0,.14,0,.24-.02l.08.48c-.15.03-.29.05-.41.05-.2,0-.35-.03-.46-.09s-.19-.15-.23-.25c-.04-.1-.07-.32-.07-.65v-1.86h-.4v-.43h.4v-.8l.55-.33v1.13h.55v.43h-.55v1.89c0,.16,0,.26.03.3.02.04.05.08.09.11.04.03.11.04.19.04h0Zm3.03-.57l.57.07c-.09.33-.25.59-.5.77-.24.18-.55.27-.93.27-.47,0-.85-.15-1.13-.44-.28-.29-.42-.7-.42-1.23s.14-.97.42-1.27c.28-.3.64-.45,1.09-.45s.79.15,1.06.44c.27.29.41.71.41,1.24,0,.03,0,.08,0,.15h-2.41c.02.36.12.63.3.82.18.19.41.28.68.28.2,0,.37-.05.51-.16.14-.11.25-.27.34-.51Zm-1.8-.89h1.81c-.02-.27-.09-.48-.21-.61-.17-.21-.4-.32-.68-.32-.25,0-.46.08-.64.25-.17.17-.27.39-.28.68Zm5.13,1.93v-.41c-.21.32-.51.48-.9.48-.26,0-.5-.07-.71-.21-.22-.14-.38-.34-.5-.6s-.18-.55-.18-.88.05-.62.16-.88c.11-.26.27-.46.48-.6.22-.14.46-.21.72-.21.19,0,.37.04.52.12.15.08.28.19.37.32v-1.6h.55v4.47h-.51Zm-1.73-1.61c0,.41.09.72.26.93.17.21.38.31.62.31s.44-.1.61-.29c.17-.2.25-.5.25-.9,0-.44-.09-.77-.26-.97-.17-.21-.38-.31-.63-.31s-.45.1-.61.3c-.16.2-.25.51-.25.94Zm5.23,1.23c-.29-.37-.44-.98-.44-1.82,0-.53.05-.95.16-1.27.11-.32.27-.57.48-.74.21-.17.48-.26.81-.26.24,0,.45.05.63.14.18.1.33.24.45.42.12.18.21.4.28.66.07.26.1.61.1,1.06,0,.52-.05.95-.16,1.27-.11.32-.27.57-.48.75-.21.18-.48.26-.81.26-.43,0-.77-.15-1.01-.46h0Zm.41-3.32c-.19.27-.28.77-.28,1.51s.09,1.22.26,1.46c.17.24.38.36.64.36s.46-.12.64-.37c.17-.24.26-.73.26-1.46s-.09-1.22-.26-1.47c-.17-.24-.39-.36-.64-.36s-.45.11-.6.32h0Zm2.89,3.71v-.62h.62v.62c0,.23-.04.41-.12.56-.08.14-.21.25-.39.33l-.15-.23c.12-.05.2-.13.26-.22s.09-.24.09-.42h-.31Zm4.36-.53v.53h-2.95c0-.13.02-.26.06-.38.08-.2.2-.4.36-.59.17-.19.4-.42.72-.68.49-.4.81-.71.98-.95.17-.23.26-.45.26-.66,0-.22-.08-.4-.23-.55-.16-.15-.36-.22-.61-.22-.26,0-.48.08-.63.24-.16.16-.24.38-.24.66l-.56-.06c.04-.42.18-.74.44-.96.25-.22.59-.33,1.01-.33s.77.12,1.02.36.37.53.37.88c0,.18-.04.35-.11.53-.07.17-.19.35-.36.55-.17.19-.45.45-.85.79-.33.28-.54.46-.63.56-.09.1-.17.2-.23.3h2.19Zm2.38.8l.53.08c.02.16.08.28.19.36.14.1.32.15.56.15.25,0,.45-.05.59-.15.14-.1.23-.24.28-.43.03-.11.04-.35.04-.7-.24.28-.54.42-.9.42-.44,0-.79-.16-1.03-.48-.24-.32-.37-.71-.37-1.15,0-.31.06-.59.17-.85.11-.26.27-.46.49-.6.21-.14.46-.21.75-.21.38,0,.7.15.94.46v-.39h.51v2.8c0,.5-.05.86-.15,1.07-.1.21-.27.38-.49.5-.22.12-.5.18-.82.18-.39,0-.7-.09-.94-.26-.24-.17-.35-.44-.34-.78Zm.45-1.94c0,.42.08.73.25.93.17.19.38.29.63.29s.46-.1.63-.29c.17-.19.26-.5.26-.91s-.09-.69-.26-.9c-.18-.2-.39-.3-.64-.3s-.45.1-.62.3c-.17.2-.26.49-.26.88Z"/><path d="m10.03,73.87v-1.22h-1.22v-.51h1.22v-1.22h.52v1.22h1.22v.51h-1.22v1.22h-.52Zm5.21.25c.06,0,.14,0,.24-.02l.08.48c-.15.03-.29.05-.41.05-.2,0-.35-.03-.46-.09s-.19-.15-.23-.25c-.04-.1-.07-.32-.07-.65v-1.86h-.4v-.43h.4v-.8l.55-.33v1.13h.55v.43h-.55v1.89c0,.16,0,.26.03.3.02.04.05.08.09.11.04.03.11.04.19.04h0Zm.81.47v-3.24h.49v.49c.13-.23.24-.38.35-.45s.22-.11.35-.11c.18,0,.37.06.56.18l-.19.51c-.13-.08-.27-.12-.4-.12-.12,0-.23.04-.32.11-.1.07-.16.17-.2.3-.06.19-.09.41-.09.64v1.69h-.55Zm4.28,0c-.06-.11-.09-.25-.11-.4-.2.17-.4.29-.59.37-.19.07-.39.11-.6.11-.36,0-.63-.09-.82-.26-.19-.17-.29-.4-.29-.67,0-.16.04-.3.11-.43.07-.13.17-.24.28-.32.12-.08.25-.14.39-.18.11-.03.27-.06.49-.08.44-.05.77-.12.98-.19,0-.08,0-.12,0-.14,0-.22-.05-.38-.16-.47-.14-.12-.35-.19-.62-.19-.26,0-.45.05-.57.14-.12.09-.21.25-.27.48l-.54-.07c.05-.23.13-.41.24-.56.11-.14.27-.25.48-.33.21-.08.46-.11.73-.11s.5.03.67.1c.17.07.3.15.38.25.08.1.14.22.17.37.02.09.03.26.03.51v.73c0,.51.01.83.04.97.02.14.07.26.14.39h-.57Zm-.16-1.62c-.2.08-.5.15-.9.21-.23.03-.38.07-.48.11-.09.04-.17.1-.22.18-.05.08-.08.17-.08.26,0,.15.06.27.17.37.11.1.27.15.49.15s.4-.05.56-.14c.16-.09.29-.22.36-.38.06-.12.09-.31.09-.55v-.2Zm1.38,1.62v-3.24h.49v.46c.24-.36.58-.53,1.03-.53.19,0,.37.04.54.11.16.07.29.16.37.28.08.11.14.25.17.41.02.1.03.28.03.53v1.99h-.55v-1.97c0-.22-.02-.39-.06-.5-.04-.11-.12-.2-.23-.27-.11-.07-.24-.1-.38-.1-.23,0-.44.07-.6.22-.17.15-.25.43-.25.84v1.77h-.55Zm3.23-.97l.54-.09c.03.22.12.38.25.5.14.12.33.17.58.17s.44-.05.56-.15c.12-.1.18-.22.18-.36,0-.12-.05-.22-.16-.29-.08-.05-.26-.11-.56-.19-.4-.1-.68-.19-.84-.26-.16-.07-.27-.18-.35-.31-.08-.13-.12-.28-.12-.43,0-.14.03-.28.1-.4.07-.12.16-.22.27-.31.09-.06.2-.12.35-.16.15-.04.31-.07.47-.07.25,0,.48.04.67.11.19.07.33.17.42.3.09.12.15.29.19.5l-.54.07c-.02-.17-.09-.3-.21-.39-.12-.09-.28-.14-.5-.14-.25,0-.43.04-.54.12-.11.08-.16.18-.16.29,0,.07.02.14.07.19.04.06.11.11.21.15.05.02.22.07.48.14.39.1.66.19.81.25.15.07.27.16.36.29.09.13.13.28.13.47s-.05.35-.16.52-.26.29-.46.37c-.2.09-.43.13-.68.13-.42,0-.74-.09-.96-.26-.22-.17-.36-.43-.42-.78Zm4.65,1.04l1.29-4.62h.44l-1.29,4.62h-.44Zm5.11-.8v-1.22h-1.22v-.51h1.22v-1.22h.52v1.22h1.22v.51h-1.22v1.22h-.52Zm5.46.72v-3.94h-1.47v-.53h3.54v.53h-1.48v3.94h-.59Zm2.42,0v-3.24h.49v.49c.13-.23.24-.38.35-.45s.22-.11.35-.11c.18,0,.37.06.56.18l-.19.51c-.13-.08-.27-.12-.4-.12-.12,0-.23.04-.32.11-.1.07-.16.17-.2.3-.06.19-.09.41-.09.64v1.69h-.55Zm4.28,0c-.06-.11-.09-.25-.11-.4-.2.17-.4.29-.59.37-.19.07-.39.11-.6.11-.36,0-.63-.09-.82-.26-.19-.17-.29-.4-.29-.67,0-.16.04-.3.11-.43.07-.13.17-.24.28-.32.12-.08.25-.14.39-.18.11-.03.27-.06.49-.08.44-.05.77-.12.98-.19,0-.08,0-.12,0-.14,0-.22-.05-.38-.16-.47-.14-.12-.35-.19-.62-.19-.26,0-.45.05-.57.14-.12.09-.21.25-.27.48l-.54-.07c.05-.23.13-.41.24-.56.11-.14.27-.25.48-.33.21-.08.46-.11.73-.11s.5.03.67.1c.17.07.3.15.38.25.08.1.14.22.17.37.02.09.03.26.03.51v.73c0,.51.01.83.04.97.02.14.07.26.14.39h-.57Zm-.16-1.62c-.2.08-.5.15-.9.21-.23.03-.38.07-.48.11-.09.04-.17.1-.22.18-.05.08-.08.17-.08.26,0,.15.06.27.17.37.11.1.27.15.49.15s.4-.05.56-.14c.16-.09.29-.22.36-.38.06-.12.09-.31.09-.55v-.2Zm1.38,1.62v-3.24h.49v.46c.24-.36.58-.53,1.03-.53.19,0,.37.04.54.11.16.07.29.16.37.28.08.11.14.25.17.41.02.1.03.28.03.53v1.99h-.55v-1.97c0-.22-.02-.39-.06-.5-.04-.11-.12-.2-.23-.27-.11-.07-.24-.1-.38-.1-.23,0-.44.07-.6.22-.17.15-.25.43-.25.84v1.77h-.55Zm3.23-.97l.54-.09c.03.22.12.38.25.5.14.12.33.17.58.17s.44-.05.56-.15c.12-.1.18-.22.18-.36,0-.12-.05-.22-.16-.29-.08-.05-.26-.11-.56-.19-.4-.1-.68-.19-.84-.26-.16-.07-.27-.18-.35-.31-.08-.13-.12-.28-.12-.43,0-.14.03-.28.1-.4.07-.12.16-.22.27-.31.09-.06.2-.12.35-.16.15-.04.31-.07.47-.07.25,0,.48.04.67.11.19.07.33.17.42.3.09.12.15.29.19.5l-.54.07c-.02-.17-.09-.3-.21-.39-.12-.09-.28-.14-.5-.14-.25,0-.43.04-.54.12-.11.08-.16.18-.16.29,0,.07.02.14.07.19.04.06.11.11.21.15.05.02.22.07.48.14.39.1.66.19.81.25.15.07.27.16.36.29.09.13.13.28.13.47s-.05.35-.16.52-.26.29-.46.37c-.2.09-.43.13-.68.13-.42,0-.74-.09-.96-.26-.22-.17-.36-.43-.42-.78Zm5.45.58c-.29-.37-.44-.98-.44-1.82,0-.53.05-.95.16-1.27.11-.32.27-.57.48-.74.21-.17.48-.26.81-.26.24,0,.45.05.63.14.18.1.33.24.45.42.12.18.21.4.28.66.07.26.1.61.1,1.06,0,.52-.05.95-.16,1.27-.11.32-.27.57-.48.75-.21.18-.48.26-.81.26-.43,0-.77-.15-1.01-.46h0Zm.41-3.32c-.19.27-.28.77-.28,1.51s.09,1.22.26,1.46c.17.24.38.36.64.36s.46-.12.64-.37c.17-.24.26-.73.26-1.46s-.09-1.22-.26-1.47c-.17-.24-.39-.36-.64-.36s-.45.11-.6.32h0Zm4.42,3.98l.53.08c.02.16.08.28.19.36.14.1.32.15.56.15.25,0,.45-.05.59-.15.14-.1.23-.24.28-.43.03-.11.04-.35.04-.7-.24.28-.54.42-.9.42-.44,0-.79-.16-1.03-.48-.24-.32-.37-.71-.37-1.15,0-.31.06-.59.17-.85.11-.26.27-.46.49-.6.21-.14.46-.21.75-.21.38,0,.7.15.94.46v-.39h.51v2.8c0,.5-.05.86-.15,1.07-.1.21-.27.38-.49.5-.22.12-.5.18-.82.18-.39,0-.7-.09-.94-.26-.24-.17-.35-.44-.34-.78Zm.45-1.94c0,.42.08.73.25.93.17.19.38.29.63.29s.46-.1.63-.29c.17-.19.26-.5.26-.91s-.09-.69-.26-.9c-.18-.2-.39-.3-.64-.3s-.45.1-.62.3c-.17.2-.26.49-.26.88Z"/><path d="m109.41,71.15h-.55v-3.49c-.13.13-.31.25-.52.38-.21.13-.41.22-.58.28v-.53c.31-.14.57-.32.8-.52.23-.21.39-.4.49-.6h.35v4.48Zm3.25-3.39c0-.32.08-.59.24-.81.16-.22.39-.34.7-.34.28,0,.51.1.7.3.18.2.28.49.28.88s-.09.67-.28.87-.41.31-.69.31-.5-.1-.67-.3c-.18-.2-.27-.5-.27-.91Zm.95-.77c-.14,0-.25.06-.34.18-.09.12-.14.33-.14.65,0,.29.05.49.14.6.09.12.2.18.34.18s.25-.06.34-.18c.09-.12.14-.33.14-.65,0-.29-.05-.49-.14-.61-.09-.12-.21-.18-.34-.18Zm0,4.33l2.44-4.71h.44l-2.43,4.71h-.45Zm1.93-1.21c0-.32.08-.59.24-.81.16-.22.39-.33.7-.33.28,0,.51.1.7.3.18.2.28.49.28.88s-.09.67-.28.87c-.19.2-.42.31-.69.31s-.5-.1-.67-.3-.27-.51-.27-.91Zm.96-.77c-.14,0-.25.06-.34.18-.09.12-.14.33-.14.65,0,.28.05.49.14.6s.2.18.34.18.26-.06.35-.18c.09-.12.14-.33.14-.65,0-.29-.05-.49-.14-.61-.09-.12-.21-.18-.34-.18Z"/><text class="cls-15" transform="translate(2.24 10.9)"><tspan class="cls-35" x="0" y="0">V</tspan><tspan x="6.16" y="0">aleur nutriti</tspan><tspan class="cls-34" x="61.48" y="0">v</tspan><tspan class="cls-8" x="66.88" y="0">e</tspan></text><text class="cls-15" transform="translate(2.24 21.61)"><tspan x="0" y="0">Nutrition Facts</tspan></text><path d="m2.7,31.75v-5.01h.56v.47c.13-.18.28-.32.45-.41.17-.09.37-.14.6-.14.31,0,.58.08.82.24.24.16.41.38.54.67.12.29.18.61.18.95,0,.37-.07.7-.2,1-.13.3-.33.52-.58.68-.25.16-.52.24-.8.24-.2,0-.39-.04-.55-.13-.16-.09-.3-.2-.4-.33v1.76h-.61Zm.56-3.18c0,.47.09.81.28,1.03.19.22.42.33.69.33s.51-.12.7-.35c.19-.23.29-.59.29-1.07s-.09-.81-.28-1.04c-.19-.23-.42-.34-.68-.34s-.49.12-.69.37c-.2.24-.3.6-.3,1.07Zm3.12-.02c0-.67.19-1.17.56-1.49.31-.27.69-.4,1.14-.4.5,0,.9.16,1.22.49.32.33.47.78.47,1.35,0,.47-.07.83-.21,1.1-.14.27-.34.47-.61.62-.27.15-.56.22-.87.22-.51,0-.92-.16-1.23-.49-.31-.33-.47-.79-.47-1.41Zm.63,0c0,.46.1.81.3,1.04.2.23.46.35.76.35s.56-.12.76-.35c.2-.23.3-.59.3-1.06,0-.45-.1-.79-.31-1.02-.2-.23-.46-.35-.76-.35s-.56.11-.76.34c-.2.23-.3.58-.3,1.04Zm5.88,1.81v-.53c-.28.41-.67.61-1.15.61-.21,0-.41-.04-.6-.12-.19-.08-.32-.18-.41-.31-.09-.12-.15-.28-.19-.46-.03-.12-.04-.31-.04-.57v-2.24h.61v2.01c0,.32.01.54.04.65.04.16.12.29.25.38.13.09.28.14.46.14s.36-.05.52-.14c.16-.09.28-.22.34-.39.07-.16.1-.4.1-.71v-1.94h.61v3.62h-.55Zm1.52,0v-3.62h.55v.55c.14-.26.27-.43.39-.51.12-.08.25-.12.39-.12.21,0,.42.07.63.2l-.21.57c-.15-.09-.3-.13-.45-.13-.13,0-.25.04-.36.12-.11.08-.18.19-.23.34-.07.22-.1.46-.1.72v1.9h-.61Zm7.37-.59v.59h-3.3c0-.15.02-.29.07-.43.08-.23.22-.45.4-.67.19-.22.45-.47.8-.76.54-.45.91-.8,1.1-1.06.19-.26.29-.51.29-.74s-.09-.45-.26-.62c-.17-.17-.4-.25-.68-.25-.3,0-.53.09-.71.27-.18.18-.27.42-.27.74l-.63-.06c.04-.47.21-.83.49-1.08.28-.25.66-.37,1.14-.37s.86.13,1.14.4.42.6.42.99c0,.2-.04.4-.12.59-.08.19-.22.4-.41.61-.19.21-.51.51-.95.88-.37.31-.6.52-.71.63-.1.11-.19.22-.26.33h2.45Zm3.88.06c.07,0,.16,0,.27-.02l.09.54c-.17.04-.33.05-.46.05-.22,0-.4-.04-.52-.11s-.21-.16-.26-.28c-.05-.11-.08-.36-.08-.72v-2.08h-.45v-.48h.45v-.9l.61-.37v1.27h.62v.48h-.62v2.12c0,.18.01.29.03.34.02.05.06.09.11.12.05.03.12.04.21.04h0Zm.88.53v-3.62h.55v.55c.14-.26.27-.43.39-.51.12-.08.25-.12.39-.12.21,0,.42.07.63.2l-.21.57c-.15-.09-.3-.13-.45-.13-.13,0-.25.04-.36.12-.11.08-.18.19-.23.34-.07.22-.1.46-.1.72v1.9h-.61Zm4.84,0c-.06-.13-.1-.28-.12-.45-.23.19-.45.33-.66.41-.21.08-.44.12-.68.12-.4,0-.7-.1-.92-.29-.21-.19-.32-.44-.32-.75,0-.18.04-.34.12-.49.08-.15.19-.26.32-.35.13-.09.28-.16.44-.2.12-.03.3-.06.55-.09.5-.06.86-.13,1.09-.21,0-.08,0-.14,0-.16,0-.25-.06-.43-.17-.53-.16-.14-.39-.21-.7-.21-.29,0-.5.05-.64.15-.14.1-.24.28-.31.54l-.6-.08c.05-.26.14-.46.27-.62.12-.16.31-.28.54-.36.24-.09.51-.13.82-.13s.56.04.75.11c.19.07.34.16.43.27.09.11.15.25.19.42.02.1.03.29.03.57v.82c0,.57.01.93.04,1.08.03.15.08.3.16.43h-.64Zm-.17-1.82c-.22.09-.56.17-1,.23-.25.04-.43.08-.54.12-.1.05-.19.11-.24.2-.06.09-.09.18-.09.29,0,.16.06.3.19.41.12.11.31.16.54.16s.45-.05.63-.16c.18-.1.32-.24.41-.42.07-.14.1-.34.1-.61v-.23Zm1.59,1.82v-3.62h.55v.51c.27-.4.65-.6,1.15-.6.22,0,.42.04.6.12.18.08.32.18.41.31.09.13.15.28.19.45.02.11.03.31.03.6v2.23h-.61v-2.2c0-.25-.02-.44-.07-.56s-.13-.22-.25-.3c-.12-.07-.26-.11-.43-.11-.26,0-.49.08-.68.25-.19.17-.28.48-.28.94v1.98h-.61Zm6.27-1.33l.6.08c-.07.42-.23.74-.51.98-.27.24-.61.35-1,.35-.5,0-.89-.16-1.2-.49-.3-.32-.45-.79-.45-1.39,0-.39.06-.73.19-1.03s.33-.51.59-.66c.26-.15.55-.22.86-.22.39,0,.71.1.97.3.25.2.41.48.48.85l-.6.09c-.06-.24-.16-.43-.3-.55-.14-.12-.32-.18-.52-.18-.31,0-.56.11-.75.33-.19.22-.29.57-.29,1.05s.09.84.28,1.06c.19.22.43.33.73.33.24,0,.44-.07.6-.22.16-.15.26-.38.31-.68Zm1.15,1.33v-5h.61v1.79c.29-.33.65-.5,1.08-.5.27,0,.5.05.7.16.2.11.34.25.42.44.09.19.13.46.13.81v2.3h-.61v-2.3c0-.31-.07-.53-.2-.67-.13-.14-.32-.21-.56-.21-.18,0-.35.05-.51.14-.16.09-.27.22-.34.38s-.1.38-.1.67v1.98h-.61Zm6.38-1.17l.63.08c-.1.37-.29.66-.56.86-.27.2-.62.31-1.04.31-.53,0-.95-.16-1.26-.49-.31-.33-.47-.78-.47-1.37s.16-1.08.47-1.42.72-.5,1.22-.5.88.16,1.19.49c.31.33.46.79.46,1.39,0,.04,0,.09,0,.16h-2.7c.02.4.14.7.34.91.2.21.45.32.76.32.23,0,.42-.06.58-.18.16-.12.29-.31.38-.57Zm-2.02-.99h2.02c-.03-.3-.1-.53-.23-.69-.2-.24-.45-.35-.76-.35-.28,0-.52.09-.71.28-.19.19-.3.44-.32.76Zm3.19,1.08l.61-.1c.03.24.13.43.28.56.16.13.37.19.65.19s.49-.06.63-.17.2-.25.2-.4c0-.14-.06-.25-.18-.33-.08-.05-.29-.12-.63-.21-.45-.11-.76-.21-.94-.3-.17-.08-.31-.2-.4-.34-.09-.15-.13-.31-.13-.49,0-.16.04-.31.11-.45.07-.14.17-.25.3-.34.1-.07.23-.13.39-.18.16-.05.34-.07.53-.07.28,0,.53.04.75.12.21.08.37.19.48.33.1.14.17.33.21.56l-.6.08c-.03-.19-.11-.33-.24-.44-.13-.1-.32-.16-.55-.16-.28,0-.48.05-.6.14-.12.09-.18.2-.18.33,0,.08.02.15.08.21.05.07.13.12.24.16.06.02.24.08.54.16.43.12.74.21.91.28.17.07.31.18.4.32.1.14.15.32.15.53s-.06.4-.18.58c-.12.18-.29.32-.52.42-.23.1-.48.15-.76.15-.47,0-.83-.1-1.08-.29-.25-.2-.4-.49-.47-.87Zm6.89,2.55c-.34-.43-.63-.93-.86-1.5-.23-.57-.35-1.17-.35-1.78,0-.54.09-1.06.26-1.56.2-.58.52-1.15.95-1.72h.44c-.28.47-.46.81-.55,1.01-.14.31-.25.64-.33.98-.1.43-.15.85-.15,1.28,0,1.09.34,2.19,1.02,3.28h-.44Zm1.1-2.63l.59-.05c.05.28.15.48.29.6.14.13.32.19.54.19.19,0,.35-.04.5-.13.14-.09.26-.2.35-.35.09-.14.17-.34.23-.58s.09-.5.09-.75c0-.03,0-.07,0-.12-.12.2-.29.35-.5.48-.21.12-.44.18-.69.18-.41,0-.76-.15-1.05-.45s-.43-.7-.43-1.19.15-.92.45-1.22c.3-.31.67-.46,1.12-.46.33,0,.62.09.89.26.27.18.47.42.61.75.14.32.21.79.21,1.41s-.07,1.15-.21,1.53c-.14.38-.35.67-.62.86-.27.2-.6.3-.96.3-.39,0-.71-.11-.96-.33-.25-.22-.4-.52-.45-.92Zm2.51-2.21c0-.35-.09-.63-.28-.84-.19-.21-.41-.31-.68-.31s-.51.11-.71.33c-.2.22-.3.51-.3.87,0,.32.1.58.29.78.19.2.43.3.71.3s.52-.1.7-.3c.18-.2.27-.47.27-.83Zm1.79,2.93c-.33-.42-.49-1.09-.49-2.03,0-.59.06-1.07.18-1.43.12-.36.3-.64.54-.83.24-.2.54-.29.91-.29.27,0,.5.05.71.16.2.11.37.26.5.47.13.2.24.45.31.74.08.29.11.69.11,1.18,0,.59-.06,1.06-.18,1.42-.12.36-.3.64-.54.84-.24.2-.54.29-.91.29-.48,0-.86-.17-1.14-.52h0Zm.45-3.72c-.21.3-.32.87-.32,1.69s.1,1.37.29,1.64c.19.27.43.41.71.41s.52-.14.71-.41c.19-.27.29-.82.29-1.64s-.1-1.37-.29-1.64c-.19-.27-.43-.41-.72-.41s-.51.12-.68.36h0Zm4.98,4.45l.6.09c.02.18.09.32.21.4.15.11.36.17.62.17.28,0,.5-.06.66-.17.15-.11.26-.27.31-.48.03-.13.05-.39.04-.79-.27.32-.6.47-1,.47-.5,0-.88-.18-1.16-.54-.27-.36-.41-.79-.41-1.29,0-.35.06-.66.19-.96.13-.29.31-.52.54-.68.24-.16.52-.24.84-.24.43,0,.78.17,1.06.52v-.44h.57v3.13c0,.56-.06.96-.17,1.2-.11.24-.3.42-.55.56-.25.14-.56.2-.92.2-.43,0-.78-.1-1.05-.29-.27-.19-.39-.49-.39-.88Zm.51-2.18c0,.48.09.82.28,1.04.19.22.43.33.71.33s.52-.11.71-.33.29-.56.29-1.02-.1-.78-.29-1c-.2-.23-.43-.34-.71-.34s-.5.11-.7.33c-.19.22-.29.55-.29.99Zm3.91,3.35h-.44c.68-1.09,1.02-2.18,1.02-3.28,0-.43-.05-.85-.15-1.27-.08-.34-.19-.67-.32-.98-.09-.2-.27-.55-.55-1.02h.44c.43.57.74,1.14.95,1.72.18.5.26,1.01.26,1.56,0,.61-.12,1.21-.35,1.78-.24.57-.52,1.07-.86,1.5Z"/><path d="m2.77,37.9v-5h1.89c.33,0,.59.02.76.05.25.04.45.12.62.23.17.11.3.28.4.48.1.21.15.43.15.68,0,.43-.14.78-.41,1.08-.27.29-.76.44-1.47.44h-1.28v2.03h-.66Zm.66-2.62h1.29c.43,0,.73-.08.91-.24.18-.16.27-.38.27-.67,0-.21-.05-.39-.16-.54-.11-.15-.25-.25-.42-.29-.11-.03-.32-.04-.62-.04h-1.28v1.79Zm6.42,1.46l.63.08c-.1.37-.29.66-.56.86-.27.2-.62.31-1.04.31-.53,0-.95-.16-1.26-.49-.31-.33-.47-.78-.47-1.37s.16-1.08.47-1.42.72-.5,1.22-.5.88.16,1.19.49c.31.33.46.79.46,1.39,0,.04,0,.09,0,.16h-2.7c.02.4.14.7.34.91.2.21.45.32.76.32.23,0,.42-.06.58-.18.16-.12.29-.31.38-.57Zm-2.02-.99h2.02c-.03-.3-.1-.53-.23-.69-.2-.24-.45-.35-.76-.35-.28,0-.52.09-.71.28-.19.19-.3.44-.32.76Zm3.43,2.16v-3.62h.55v.55c.14-.26.27-.43.39-.51.12-.08.25-.12.39-.12.21,0,.42.07.63.2l-.21.57c-.15-.09-.3-.13-.45-.13-.13,0-.25.04-.36.12-.11.08-.18.19-.23.34-.07.22-.1.46-.1.72v1.9h-.61Zm7.37-.59v.59h-3.3c0-.15.02-.29.07-.43.08-.23.22-.45.4-.67.19-.22.45-.47.8-.76.54-.45.91-.8,1.1-1.06.19-.26.29-.51.29-.74s-.09-.45-.26-.62c-.17-.17-.4-.25-.68-.25-.3,0-.53.09-.71.27-.18.18-.27.42-.27.74l-.63-.06c.04-.47.21-.83.49-1.08.28-.25.66-.37,1.14-.37s.86.13,1.14.4.42.6.42.99c0,.2-.04.4-.12.59-.08.19-.22.4-.41.61-.19.21-.51.51-.95.88-.37.31-.6.52-.71.63-.1.11-.19.22-.26.33h2.45Zm2.57-.49l.61-.1c.03.24.13.43.28.56.16.13.37.19.65.19s.49-.06.63-.17.2-.25.2-.4c0-.14-.06-.25-.18-.33-.08-.05-.29-.12-.63-.21-.45-.11-.76-.21-.94-.3-.17-.08-.31-.2-.4-.34-.09-.15-.13-.31-.13-.49,0-.16.04-.31.11-.45.07-.14.17-.25.3-.34.1-.07.23-.13.39-.18.16-.05.34-.07.53-.07.28,0,.53.04.75.12.21.08.37.19.48.33.1.14.17.33.21.56l-.6.08c-.03-.19-.11-.33-.24-.44-.13-.1-.32-.16-.55-.16-.28,0-.48.05-.6.14-.12.09-.18.2-.18.33,0,.08.02.15.08.21.05.07.13.12.24.16.06.02.24.08.54.16.43.12.74.21.91.28.17.07.31.18.4.32.1.14.15.32.15.53s-.06.4-.18.58c-.12.18-.29.32-.52.42-.23.1-.48.15-.76.15-.47,0-.83-.1-1.08-.29-.25-.2-.4-.49-.47-.87Zm3.75,1.08v-5h.61v5h-.61Zm1.59-4.29v-.71h.61v.71h-.61Zm0,4.29v-3.62h.61v3.62h-.61Zm3.93-1.33l.6.08c-.07.42-.23.74-.51.98-.27.24-.61.35-1,.35-.5,0-.89-.16-1.2-.49-.3-.32-.45-.79-.45-1.39,0-.39.06-.73.19-1.03s.33-.51.59-.66c.26-.15.55-.22.86-.22.39,0,.71.1.97.3.25.2.41.48.48.85l-.6.09c-.06-.24-.16-.43-.3-.55-.14-.12-.32-.18-.52-.18-.31,0-.56.11-.75.33-.19.22-.29.57-.29,1.05s.09.84.28,1.06c.19.22.43.33.73.33.24,0,.44-.07.6-.22.16-.15.26-.38.31-.68Zm3.63.16l.63.08c-.1.37-.29.66-.56.86-.27.2-.62.31-1.04.31-.53,0-.95-.16-1.26-.49-.31-.33-.47-.78-.47-1.37s.16-1.08.47-1.42.72-.5,1.22-.5.88.16,1.19.49c.31.33.46.79.46,1.39,0,.04,0,.09,0,.16h-2.7c.02.4.14.7.34.91.2.21.45.32.76.32.23,0,.42-.06.58-.18.16-.12.29-.31.38-.57Zm-2.02-.99h2.02c-.03-.3-.1-.53-.23-.69-.2-.24-.45-.35-.76-.35-.28,0-.52.09-.71.28-.19.19-.3.44-.32.76Zm3.19,1.08l.61-.1c.03.24.13.43.28.56.16.13.37.19.65.19s.49-.06.63-.17.2-.25.2-.4c0-.14-.06-.25-.18-.33-.08-.05-.29-.12-.63-.21-.45-.11-.76-.21-.94-.3-.17-.08-.31-.2-.4-.34-.09-.15-.13-.31-.13-.49,0-.16.04-.31.11-.45.07-.14.17-.25.3-.34.1-.07.23-.13.39-.18.16-.05.34-.07.53-.07.28,0,.53.04.75.12.21.08.37.19.48.33.1.14.17.33.21.56l-.6.08c-.03-.19-.11-.33-.24-.44-.13-.1-.32-.16-.55-.16-.28,0-.48.05-.6.14-.12.09-.18.2-.18.33,0,.08.02.15.08.21.05.07.13.12.24.16.06.02.24.08.54.16.43.12.74.21.91.28.17.07.31.18.4.32.1.14.15.32.15.53s-.06.4-.18.58c-.12.18-.29.32-.52.42-.23.1-.48.15-.76.15-.47,0-.83-.1-1.08-.29-.25-.2-.4-.49-.47-.87Zm6.89,2.55c-.34-.43-.63-.93-.86-1.5-.23-.57-.35-1.17-.35-1.78,0-.54.09-1.06.26-1.56.2-.58.52-1.15.95-1.72h.44c-.28.47-.46.81-.55,1.01-.14.31-.25.64-.33.98-.1.43-.15.85-.15,1.28,0,1.09.34,2.19,1.02,3.28h-.44Zm1.1-2.63l.59-.05c.05.28.15.48.29.6.14.13.32.19.54.19.19,0,.35-.04.5-.13.14-.09.26-.2.35-.35.09-.14.17-.34.23-.58s.09-.5.09-.75c0-.03,0-.07,0-.12-.12.2-.29.35-.5.48-.21.12-.44.18-.69.18-.41,0-.76-.15-1.05-.45s-.43-.7-.43-1.19.15-.92.45-1.22c.3-.31.67-.46,1.12-.46.33,0,.62.09.89.26.27.18.47.42.61.75.14.32.21.79.21,1.41s-.07,1.15-.21,1.53c-.14.38-.35.67-.62.86-.27.2-.6.3-.96.3-.39,0-.71-.11-.96-.33-.25-.22-.4-.52-.45-.92Zm2.51-2.21c0-.35-.09-.63-.28-.84-.19-.21-.41-.31-.68-.31s-.51.11-.71.33c-.2.22-.3.51-.3.87,0,.32.1.58.29.78.19.2.43.3.71.3s.52-.1.7-.3c.18-.2.27-.47.27-.83Zm1.79,2.93c-.33-.42-.49-1.09-.49-2.03,0-.59.06-1.07.18-1.43.12-.36.3-.64.54-.83.24-.2.54-.29.91-.29.27,0,.5.05.71.16.2.11.37.26.5.47.13.2.24.45.31.74.08.29.11.69.11,1.18,0,.59-.06,1.06-.18,1.42-.12.36-.3.64-.54.84-.24.2-.54.29-.91.29-.48,0-.86-.17-1.14-.52h0Zm.45-3.72c-.21.3-.32.87-.32,1.69s.1,1.37.29,1.64c.19.27.43.41.71.41s.52-.14.71-.41c.19-.27.29-.82.29-1.64s-.1-1.37-.29-1.64c-.19-.27-.43-.41-.72-.41s-.51.12-.68.36h0Zm4.98,4.45l.6.09c.02.18.09.32.21.4.15.11.36.17.62.17.28,0,.5-.06.66-.17.15-.11.26-.27.31-.48.03-.13.05-.39.04-.79-.27.32-.6.47-1,.47-.5,0-.88-.18-1.16-.54-.27-.36-.41-.79-.41-1.29,0-.35.06-.66.19-.96.13-.29.31-.52.54-.68.24-.16.52-.24.84-.24.43,0,.78.17,1.06.52v-.44h.57v3.13c0,.56-.06.96-.17,1.2-.11.24-.3.42-.55.56-.25.14-.56.2-.92.2-.43,0-.78-.1-1.05-.29-.27-.19-.39-.49-.39-.88Zm.51-2.18c0,.48.09.82.28,1.04.19.22.43.33.71.33s.52-.11.71-.33.29-.56.29-1.02-.1-.78-.29-1c-.2-.23-.43-.34-.71-.34s-.5.11-.7.33c-.19.22-.29.55-.29.99Zm3.91,3.35h-.44c.68-1.09,1.02-2.18,1.02-3.28,0-.43-.05-.85-.15-1.27-.08-.34-.19-.67-.32-.98-.09-.2-.27-.55-.55-1.02h.44c.43.57.74,1.14.95,1.72.18.5.26,1.01.26,1.56,0,.61-.12,1.21-.35,1.78-.24.57-.52,1.07-.86,1.5Z"/><text class="cls-2" transform="translate(3.07 84.28)"><tspan class="cls-39" x="0" y="0">G</tspan><tspan class="cls-64" x="4.84" y="0">l</tspan><tspan class="cls-58" x="6.61" y="0">u</tspan><tspan class="cls-5" x="10.4" y="0">c</tspan><tspan class="cls-64" x="13.86" y="0">i</tspan><tspan class="cls-65" x="15.62" y="0">d</tspan><tspan class="cls-29" x="19.44" y="0">es</tspan><tspan x="26.34" y="0"> </tspan></text><text class="cls-2" transform="translate(31.2 84.28)"><tspan class="cls-64" x="0" y="0">/</tspan><tspan x="1.76" y="0"> </tspan><tspan class="cls-61" x="3.5" y="0">C</tspan><tspan x="7.97" y="0">arboh</tspan><tspan class="cls-25" x="25.3" y="0">y</tspan><tspan x="28.48" y="0">dra</tspan><tspan class="cls-48" x="38.18" y="0">t</tspan><tspan x="40.24" y="0">e </tspan></text><path d="m76.91,83.11l.58-.05c.04.28.14.49.3.63.16.14.34.21.56.21.26,0,.49-.1.67-.3.18-.2.27-.46.27-.79s-.09-.56-.26-.74c-.18-.18-.41-.27-.69-.27-.18,0-.34.04-.48.12-.14.08-.25.18-.34.31l-.51-.07.43-2.29h2.22v.52h-1.78l-.24,1.2c.27-.19.55-.28.84-.28.39,0,.72.14.99.41.27.27.4.62.4,1.04s-.12.75-.35,1.05c-.29.36-.68.54-1.17.54-.41,0-.74-.11-.99-.34-.26-.23-.4-.53-.44-.9Zm5.51,1.17h-.55v-3.49c-.13.13-.31.25-.52.38-.21.13-.41.22-.58.28v-.53c.31-.14.57-.32.8-.52.23-.21.39-.4.49-.6h.35v4.48Zm3.2.27l.53.08c.02.16.08.28.19.36.14.1.32.15.56.15.25,0,.45-.05.59-.15.14-.1.23-.24.28-.43.03-.11.04-.35.04-.7-.24.28-.54.42-.9.42-.44,0-.79-.16-1.03-.48-.24-.32-.37-.71-.37-1.15,0-.31.06-.59.17-.85.11-.26.27-.46.49-.6.21-.14.46-.21.75-.21.38,0,.7.15.94.46v-.39h.51v2.8c0,.5-.05.86-.15,1.07-.1.21-.27.38-.49.5-.22.12-.5.18-.82.18-.39,0-.7-.09-.94-.26-.24-.17-.35-.44-.34-.78Zm.45-1.94c0,.42.08.73.25.93.17.19.38.29.63.29s.46-.1.63-.29c.17-.19.26-.5.26-.91s-.09-.69-.26-.9c-.18-.2-.39-.3-.64-.3s-.45.1-.62.3-.26.49-.26.88Z"/><path d="m105.98,91.26h-.55v-3.49c-.13.13-.31.25-.52.38-.21.13-.41.22-.58.28v-.53c.31-.14.57-.32.8-.52.23-.21.39-.4.49-.6h.35v4.48Zm3.14,0v-1.07h-1.94v-.5l2.04-2.89h.45v2.89h.6v.5h-.6v1.07h-.55Zm0-1.57v-2.01l-1.4,2.01h1.4Zm3.57-1.82c0-.32.08-.59.24-.81.16-.22.39-.34.7-.34.28,0,.51.1.7.3.18.2.28.49.28.88s-.09.67-.28.87c-.19.2-.41.31-.69.31s-.5-.1-.67-.3c-.18-.2-.27-.5-.27-.91Zm.95-.77c-.14,0-.25.06-.34.18-.09.12-.14.33-.14.65,0,.29.05.49.14.6s.2.18.34.18.25-.06.34-.18c.09-.12.14-.33.14-.65,0-.29-.05-.49-.14-.61-.09-.12-.21-.18-.34-.18Zm0,4.33l2.44-4.71h.44l-2.43,4.71h-.45Zm1.93-1.21c0-.32.08-.59.24-.81.16-.22.39-.33.7-.33.28,0,.51.1.7.3.18.2.28.49.28.88s-.09.67-.28.87c-.19.2-.42.31-.69.31s-.5-.1-.67-.3c-.18-.2-.27-.51-.27-.91Zm.96-.77c-.14,0-.25.06-.34.18-.09.12-.14.33-.14.65,0,.28.05.49.14.6.09.12.2.18.34.18s.26-.06.35-.18c.09-.12.14-.33.14-.65,0-.29-.05-.49-.14-.61-.09-.12-.21-.18-.34-.18Z"/><path d="m8.15,91.26v-4.47h3.01v.53h-2.42v1.38h2.1v.53h-2.1v2.03h-.59Zm3.7-3.84v-.63h.55v.63h-.55Zm0,3.84v-3.24h.55v3.24h-.55Zm1.9,0h-.51v-4.47h.55v1.59c.23-.29.53-.44.89-.44.2,0,.39.04.57.12.18.08.32.19.44.34.11.15.2.32.27.53.06.21.1.42.1.66,0,.55-.14.98-.41,1.29-.27.3-.6.45-.99.45s-.68-.16-.9-.48v.41Zm0-1.64c0,.39.05.67.16.84.17.28.41.42.7.42.24,0,.45-.1.62-.31.17-.21.26-.52.26-.93s-.08-.73-.25-.94c-.17-.2-.37-.3-.61-.3s-.45.1-.62.31c-.17.21-.26.51-.26.9Zm2.94,1.64v-3.24h.49v.49c.13-.23.24-.38.35-.45s.22-.11.35-.11c.18,0,.37.06.56.18l-.19.51c-.13-.08-.27-.12-.4-.12-.12,0-.23.04-.32.11-.1.07-.16.17-.2.3-.06.19-.09.41-.09.64v1.69h-.55Zm4.28-1.04l.57.07c-.09.33-.25.59-.5.77-.24.18-.55.27-.93.27-.47,0-.85-.15-1.13-.44-.28-.29-.42-.7-.42-1.23s.14-.97.42-1.27c.28-.3.64-.45,1.09-.45s.79.15,1.06.44c.27.29.41.71.41,1.24,0,.03,0,.08,0,.15h-2.41c.02.36.12.63.3.82.18.19.41.28.68.28.2,0,.37-.05.51-.16.14-.11.25-.27.34-.51Zm-1.8-.89h1.81c-.02-.27-.09-.48-.21-.61-.17-.21-.4-.32-.68-.32-.25,0-.46.08-.64.25-.17.17-.27.39-.28.68Zm2.82.96l.54-.09c.03.22.12.38.25.5.14.12.33.17.58.17s.44-.05.56-.15c.12-.1.18-.22.18-.36,0-.12-.05-.22-.16-.29-.08-.05-.26-.11-.56-.19-.4-.1-.68-.19-.84-.26-.16-.07-.27-.18-.35-.31-.08-.13-.12-.28-.12-.43,0-.14.03-.28.1-.4.07-.12.16-.22.27-.31.09-.06.2-.12.35-.16.15-.04.31-.07.47-.07.25,0,.48.04.67.11.19.07.33.17.42.3.09.12.15.29.19.5l-.54.07c-.02-.17-.09-.3-.21-.39-.12-.09-.28-.14-.5-.14-.25,0-.43.04-.54.12-.11.08-.16.18-.16.29,0,.07.02.14.07.19.04.06.11.11.21.15.05.02.22.07.48.14.39.1.66.19.81.25.15.07.27.16.36.29.09.13.13.28.13.47s-.05.35-.16.52-.26.29-.46.37c-.2.09-.43.13-.68.13-.42,0-.74-.09-.96-.26-.22-.17-.36-.43-.42-.78Zm4.75,1.04l1.29-4.62h.44l-1.29,4.62h-.44Zm4.05-.08v-4.47h3.01v.53h-2.42v1.38h2.1v.53h-2.1v2.03h-.59Zm3.7-3.84v-.63h.55v.63h-.55Zm0,3.84v-3.24h.55v3.24h-.55Zm1.9,0h-.51v-4.47h.55v1.59c.23-.29.53-.44.89-.44.2,0,.39.04.57.12.18.08.32.19.44.34.11.15.2.32.27.53.06.21.1.42.1.66,0,.55-.14.98-.41,1.29-.27.3-.6.45-.99.45s-.68-.16-.9-.48v.41Zm0-1.64c0,.39.05.67.16.84.17.28.41.42.7.42.24,0,.45-.1.62-.31.17-.21.26-.52.26-.93s-.08-.73-.25-.94c-.17-.2-.37-.3-.61-.3s-.45.1-.62.31c-.17.21-.26.51-.26.9Zm2.94,1.64v-3.24h.49v.49c.13-.23.24-.38.35-.45s.22-.11.35-.11c.18,0,.37.06.56.18l-.19.51c-.13-.08-.27-.12-.4-.12-.12,0-.23.04-.32.11-.1.07-.16.17-.2.3-.06.19-.09.41-.09.64v1.69h-.55Zm4.28-1.04l.57.07c-.09.33-.25.59-.5.77-.24.18-.55.27-.93.27-.47,0-.85-.15-1.13-.44-.28-.29-.42-.7-.42-1.23s.14-.97.42-1.27c.28-.3.64-.45,1.09-.45s.79.15,1.06.44c.27.29.41.71.41,1.24,0,.03,0,.08,0,.15h-2.41c.02.36.12.63.3.82.18.19.41.28.68.28.2,0,.37-.05.51-.16.14-.11.25-.27.34-.51Zm-1.8-.89h1.81c-.02-.27-.09-.48-.21-.61-.17-.21-.4-.32-.68-.32-.25,0-.46.08-.64.25-.17.17-.27.39-.28.68Zm6.41,1.93v-1.07h-1.94v-.5l2.04-2.89h.45v2.89h.6v.5h-.6v1.07h-.55Zm0-1.57v-2.01l-1.4,2.01h1.4Zm3.51,1.84l.53.08c.02.16.08.28.19.36.14.1.32.15.56.15.25,0,.45-.05.59-.15.14-.1.23-.24.28-.43.03-.11.04-.35.04-.7-.24.28-.54.42-.9.42-.44,0-.79-.16-1.03-.48-.24-.32-.37-.71-.37-1.15,0-.31.06-.59.17-.85.11-.26.27-.46.49-.6.21-.14.46-.21.75-.21.38,0,.7.15.94.46v-.39h.51v2.8c0,.5-.05.86-.15,1.07-.1.21-.27.38-.49.5-.22.12-.5.18-.82.18-.39,0-.7-.09-.94-.26-.24-.17-.35-.44-.34-.78Zm.45-1.94c0,.42.08.73.25.93.17.19.38.29.63.29s.46-.1.63-.29c.17-.19.26-.5.26-.91s-.09-.69-.26-.9c-.18-.2-.39-.3-.64-.3s-.45.1-.62.3-.26.49-.26.88Z"/><path d="m7.92,96.99l.56-.05c.03.22.09.41.18.55.1.14.25.26.45.35.2.09.43.13.69.13.23,0,.42-.03.6-.1.17-.07.3-.16.39-.28.08-.12.13-.24.13-.38s-.04-.26-.12-.37c-.08-.1-.22-.19-.4-.26-.12-.05-.38-.12-.8-.22-.41-.1-.7-.19-.86-.28-.21-.11-.37-.25-.48-.42-.1-.17-.16-.35-.16-.56,0-.23.06-.44.19-.63.13-.2.31-.34.56-.45.25-.1.52-.15.82-.15.33,0,.62.05.88.16.25.11.45.26.58.47.14.21.21.44.22.7l-.57.04c-.03-.28-.13-.5-.31-.64-.18-.14-.44-.22-.78-.22s-.62.07-.78.2c-.16.13-.25.29-.25.47,0,.16.06.29.17.4.11.1.41.21.89.32.48.11.81.2.99.28.26.12.45.27.58.46.12.18.19.4.19.64s-.07.46-.2.67c-.14.21-.33.37-.59.49-.25.12-.54.18-.86.18-.4,0-.74-.06-1.02-.18-.27-.12-.49-.3-.64-.53-.16-.24-.24-.5-.25-.8Zm6.44,1.43v-.48c-.25.37-.59.55-1.03.55-.19,0-.37-.04-.53-.11-.17-.07-.29-.16-.37-.28-.08-.11-.14-.25-.17-.41-.02-.11-.03-.28-.03-.51v-2h.55v1.79c0,.29.01.48.03.58.03.14.11.26.22.34.11.08.25.12.41.12s.32-.04.46-.13c.14-.08.25-.2.31-.34.06-.15.09-.36.09-.63v-1.73h.55v3.24h-.49Zm3.43-1.19l.54.07c-.06.37-.21.66-.45.87-.24.21-.54.32-.89.32-.44,0-.8-.14-1.07-.43-.27-.29-.4-.7-.4-1.24,0-.35.06-.65.17-.92.12-.26.29-.46.53-.59.24-.13.49-.2.77-.2.35,0,.64.09.86.27.22.18.37.43.43.76l-.53.08c-.05-.22-.14-.38-.27-.49-.13-.11-.28-.16-.47-.16-.28,0-.5.1-.67.3-.17.2-.26.51-.26.94s.08.75.25.95c.17.2.38.3.65.3.22,0,.4-.07.54-.2.14-.13.24-.34.27-.61Zm1.05,1.19v-3.24h.49v.49c.13-.23.24-.38.35-.45s.22-.11.35-.11c.18,0,.37.06.56.18l-.19.51c-.13-.08-.27-.12-.4-.12-.12,0-.23.04-.32.11-.1.07-.16.17-.2.3-.06.19-.09.41-.09.64v1.69h-.55Zm4.27-1.04l.57.07c-.09.33-.25.59-.5.77-.24.18-.55.27-.93.27-.47,0-.85-.15-1.13-.44-.28-.29-.42-.7-.42-1.23s.14-.97.42-1.27c.28-.3.64-.45,1.09-.45s.79.15,1.06.44c.27.29.41.71.41,1.24,0,.03,0,.08,0,.15h-2.41c.02.36.12.63.3.82.18.19.41.28.68.28.2,0,.37-.05.51-.16.14-.11.25-.27.34-.51Zm-1.8-.89h1.81c-.02-.27-.09-.48-.21-.61-.17-.21-.4-.32-.68-.32-.25,0-.46.08-.64.25-.17.17-.27.39-.28.68Zm2.81.96l.54-.09c.03.22.12.38.25.5.14.12.33.17.58.17s.44-.05.56-.15c.12-.1.18-.22.18-.36,0-.12-.05-.22-.16-.29-.08-.05-.26-.11-.56-.19-.4-.1-.68-.19-.84-.26-.16-.07-.27-.18-.35-.31-.08-.13-.12-.28-.12-.43,0-.14.03-.28.1-.4.07-.12.16-.22.27-.31.09-.06.2-.12.35-.16.15-.04.31-.07.47-.07.25,0,.48.04.67.11.19.07.33.17.42.3.09.12.15.29.19.5l-.54.07c-.02-.17-.09-.3-.21-.39-.12-.09-.28-.14-.5-.14-.25,0-.43.04-.54.12-.11.08-.16.18-.16.29,0,.07.02.14.07.19.04.06.11.11.21.15.05.02.22.07.48.14.39.1.66.19.81.25.15.07.27.16.36.29.09.13.13.28.13.47s-.05.35-.16.52-.26.29-.46.37c-.2.09-.43.13-.68.13-.42,0-.74-.09-.96-.26-.22-.17-.36-.43-.42-.78Zm4.74,1.04l1.29-4.62h.44l-1.29,4.62h-.44Zm3.82-1.51l.56-.05c.03.22.09.41.18.55.1.14.25.26.45.35.2.09.43.13.69.13.23,0,.42-.03.6-.1.17-.07.3-.16.39-.28.08-.12.13-.24.13-.38s-.04-.26-.12-.37c-.08-.1-.22-.19-.4-.26-.12-.05-.38-.12-.8-.22-.41-.1-.7-.19-.86-.28-.21-.11-.37-.25-.48-.42-.1-.17-.16-.35-.16-.56,0-.23.06-.44.19-.63.13-.2.31-.34.56-.45.25-.1.52-.15.82-.15.33,0,.62.05.88.16.25.11.45.26.58.47.14.21.21.44.22.7l-.57.04c-.03-.28-.13-.5-.31-.64-.18-.14-.44-.22-.78-.22s-.62.07-.78.2c-.16.13-.25.29-.25.47,0,.16.06.29.17.4.11.1.41.21.89.32.48.11.81.2.99.28.26.12.45.27.58.46.12.18.19.4.19.64s-.07.46-.2.67c-.14.21-.33.37-.59.49-.25.12-.54.18-.86.18-.4,0-.74-.06-1.02-.18-.27-.12-.49-.3-.64-.53-.16-.24-.24-.5-.25-.8Zm6.44,1.43v-.48c-.25.37-.59.55-1.03.55-.19,0-.37-.04-.53-.11-.17-.07-.29-.16-.37-.28-.08-.11-.14-.25-.17-.41-.02-.11-.03-.28-.03-.51v-2h.55v1.79c0,.29.01.48.03.58.03.14.11.26.22.34.11.08.25.12.41.12s.32-.04.46-.13c.14-.08.25-.2.31-.34.06-.15.09-.36.09-.63v-1.73h.55v3.24h-.49Zm1.22.27l.53.08c.02.16.08.28.19.36.14.1.32.15.56.15.25,0,.45-.05.59-.15.14-.1.23-.24.28-.43.03-.11.04-.35.04-.7-.24.28-.54.42-.9.42-.44,0-.79-.16-1.03-.48-.24-.32-.37-.71-.37-1.15,0-.31.06-.59.17-.85.11-.26.27-.46.49-.6.21-.14.46-.21.75-.21.38,0,.7.15.94.46v-.39h.51v2.8c0,.5-.05.86-.15,1.07-.1.21-.27.38-.49.5-.22.12-.5.18-.82.18-.39,0-.7-.09-.94-.26-.24-.17-.35-.44-.34-.78Zm.45-1.94c0,.42.08.73.25.93.17.19.38.29.63.29s.46-.1.63-.29c.17-.19.26-.5.26-.91s-.09-.69-.26-.9c-.18-.2-.39-.3-.64-.3s-.45.1-.62.3-.26.49-.26.88Zm5.31,1.68c-.06-.11-.09-.25-.11-.4-.2.17-.4.29-.59.37-.19.07-.39.11-.6.11-.36,0-.63-.09-.82-.26-.19-.17-.29-.4-.29-.67,0-.16.04-.3.11-.43.07-.13.17-.24.28-.32.12-.08.25-.14.39-.18.11-.03.27-.06.49-.08.44-.05.77-.12.98-.19,0-.08,0-.12,0-.14,0-.22-.05-.38-.16-.47-.14-.12-.35-.19-.62-.19-.26,0-.45.05-.57.14-.12.09-.21.25-.27.48l-.54-.07c.05-.23.13-.41.24-.56.11-.14.27-.25.48-.33.21-.08.46-.11.73-.11s.5.03.67.1c.17.07.3.15.38.25.08.1.14.22.17.37.02.09.03.26.03.51v.73c0,.51.01.83.04.97.02.14.07.26.14.39h-.57Zm-.16-1.62c-.2.08-.5.15-.9.21-.23.03-.38.07-.48.11-.09.04-.17.1-.22.18-.05.08-.08.17-.08.26,0,.15.06.27.17.37.11.1.27.15.49.15s.4-.05.56-.14c.16-.09.29-.22.36-.38.06-.12.09-.31.09-.55v-.2Zm1.37,1.62v-3.24h.49v.49c.13-.23.24-.38.35-.45s.22-.11.35-.11c.18,0,.37.06.56.18l-.19.51c-.13-.08-.27-.12-.4-.12-.12,0-.23.04-.32.11-.1.07-.16.17-.2.3-.06.19-.09.41-.09.64v1.69h-.55Zm1.84-.97l.54-.09c.03.22.12.38.25.5.14.12.33.17.58.17s.44-.05.56-.15c.12-.1.18-.22.18-.36,0-.12-.05-.22-.16-.29-.08-.05-.26-.11-.56-.19-.4-.1-.68-.19-.84-.26-.16-.07-.27-.18-.35-.31-.08-.13-.12-.28-.12-.43,0-.14.03-.28.1-.4.07-.12.16-.22.27-.31.09-.06.2-.12.35-.16.15-.04.31-.07.47-.07.25,0,.48.04.67.11.19.07.33.17.42.3.09.12.15.29.19.5l-.54.07c-.02-.17-.09-.3-.21-.39-.12-.09-.28-.14-.5-.14-.25,0-.43.04-.54.12-.11.08-.16.18-.16.29,0,.07.02.14.07.19.04.06.11.11.21.15.05.02.22.07.48.14.39.1.66.19.81.25.15.07.27.16.36.29.09.13.13.28.13.47s-.05.35-.16.52-.26.29-.46.37c-.2.09-.43.13-.68.13-.42,0-.74-.09-.96-.26-.22-.17-.36-.43-.42-.78Zm7.07.97h-.55v-3.49c-.13.13-.31.25-.52.38-.21.13-.41.22-.58.28v-.53c.31-.14.57-.32.8-.52.23-.21.39-.4.49-.6h.35v4.48Zm3.2.27l.53.08c.02.16.08.28.19.36.14.1.32.15.56.15.25,0,.45-.05.59-.15.14-.1.23-.24.28-.43.03-.11.04-.35.04-.7-.24.28-.54.42-.9.42-.44,0-.79-.16-1.03-.48-.24-.32-.37-.71-.37-1.15,0-.31.06-.59.17-.85.11-.26.27-.46.49-.6.21-.14.46-.21.75-.21.38,0,.7.15.94.46v-.39h.51v2.8c0,.5-.05.86-.15,1.07-.1.21-.27.38-.49.5-.22.12-.5.18-.82.18-.39,0-.7-.09-.94-.26-.24-.17-.35-.44-.34-.78Zm.45-1.94c0,.42.08.73.25.93.17.19.38.29.63.29s.46-.1.63-.29c.17-.19.26-.5.26-.91s-.09-.69-.26-.9c-.18-.2-.39-.3-.64-.3s-.45.1-.62.3-.26.49-.26.88Z"/><path d="m109.42,98.43h-.55v-3.49c-.13.13-.31.25-.52.38-.21.13-.41.22-.58.28v-.53c.31-.14.57-.32.8-.52.23-.21.39-.4.49-.6h.35v4.48Zm3.25-3.39c0-.32.08-.59.24-.81.16-.22.39-.34.7-.34.28,0,.51.1.7.3.18.2.28.49.28.88s-.09.67-.28.87c-.19.2-.41.31-.69.31s-.5-.1-.67-.3c-.18-.2-.27-.5-.27-.91Zm.95-.77c-.14,0-.25.06-.34.18-.09.12-.14.33-.14.65,0,.29.05.49.14.6s.2.18.34.18.25-.06.34-.18c.09-.12.14-.33.14-.65,0-.29-.05-.49-.14-.61-.09-.12-.21-.18-.34-.18Zm0,4.33l2.44-4.71h.44l-2.43,4.71h-.45Zm1.93-1.21c0-.32.08-.59.24-.81.16-.22.39-.33.7-.33.28,0,.51.1.7.3.18.2.28.49.28.88s-.09.67-.28.87c-.19.2-.42.31-.69.31s-.5-.1-.67-.3c-.18-.2-.27-.51-.27-.91Zm.96-.77c-.14,0-.25.06-.34.18-.09.12-.14.33-.14.65,0,.28.05.49.14.6.09.12.2.18.34.18s.26-.06.35-.18c.09-.12.14-.33.14-.65,0-.29-.05-.49-.14-.61-.09-.12-.21-.18-.34-.18Z"/><text class="cls-2" transform="translate(3.07 107.56)"><tspan class="cls-20" x="0" y="0">P</tspan><tspan class="cls-45" x="4.19" y="0">ro</tspan><tspan class="cls-39" x="10.41" y="0">té</tspan><tspan class="cls-64" x="15.94" y="0">i</tspan><tspan class="cls-40" x="17.7" y="0">n</tspan><tspan class="cls-58" x="21.51" y="0">es</tspan><tspan class="cls-64" x="28.42" y="0" xml:space="preserve"> / </tspan><tspan class="cls-20" x="33.71" y="0">P</tspan><tspan class="cls-45" x="37.9" y="0">ro</tspan><tspan class="cls-39" x="44.13" y="0">te</tspan><tspan class="cls-64" x="49.65" y="0">i</tspan><tspan class="cls-40" x="51.42" y="0">n</tspan><tspan x="55.22" y="0"> </tspan></text><path d="m61.17,105.13c-.23-.08-.4-.2-.51-.36-.11-.15-.16-.34-.16-.55,0-.32.12-.6.35-.82.23-.22.54-.33.93-.33s.7.11.94.34c.24.23.36.5.36.83,0,.21-.05.39-.16.54-.11.15-.27.27-.5.35.27.09.48.23.63.43.14.2.21.44.21.71,0,.38-.14.7-.41.96-.27.26-.63.39-1.07.39s-.8-.13-1.07-.39c-.27-.26-.41-.59-.41-.98,0-.29.07-.53.22-.73.15-.2.36-.33.63-.4Zm-.29,1.13c0,.16.04.31.11.45.07.15.18.26.33.34.15.08.3.12.47.12.26,0,.48-.08.65-.25.17-.17.26-.38.26-.64s-.09-.48-.26-.65c-.18-.17-.4-.26-.66-.26s-.47.09-.64.26c-.17.17-.25.38-.25.64Zm.18-2.06c0,.21.07.38.2.52.14.13.31.2.53.2s.38-.07.52-.2c.14-.13.2-.3.2-.49s-.07-.37-.21-.51c-.14-.14-.31-.21-.52-.21s-.38.07-.52.2c-.14.13-.21.29-.21.48Zm4.53,3.62l.53.08c.02.16.08.28.19.36.14.1.32.15.56.15.25,0,.45-.05.59-.15.14-.1.23-.24.28-.43.03-.11.04-.35.04-.7-.24.28-.54.42-.9.42-.44,0-.79-.16-1.03-.48-.24-.32-.37-.71-.37-1.15,0-.31.06-.59.17-.85.11-.26.27-.46.49-.6.21-.14.46-.21.75-.21.38,0,.7.15.94.46v-.39h.51v2.8c0,.5-.05.86-.15,1.07-.1.21-.27.38-.49.5-.22.12-.5.18-.82.18-.39,0-.7-.09-.94-.26-.24-.17-.35-.44-.34-.78Zm.45-1.94c0,.42.08.73.25.93.17.19.38.29.63.29s.46-.1.63-.29c.17-.19.26-.5.26-.91s-.09-.69-.26-.9c-.18-.2-.39-.3-.64-.3s-.45.1-.62.3-.26.49-.26.88Z"/><text class="cls-1" transform="translate(3.07 137.17)"><tspan class="cls-6" x="0" y="0">P</tspan><tspan class="cls-63" x="3.91" y="0">o</tspan><tspan class="cls-22" x="7.36" y="0">t</tspan><tspan class="cls-63" x="9.03" y="0">a</tspan><tspan class="cls-18" x="12.48" y="0">ss</tspan><tspan class="cls-62" x="18.81" y="0">i</tspan><tspan class="cls-48" x="20.2" y="0">u</tspan><tspan x="23.64" y="0">m</tspan></text><path d="m36.04,137.17h-.55v-3.49c-.13.13-.31.25-.52.38-.21.13-.41.22-.58.28v-.53c.31-.14.57-.32.8-.52.23-.21.39-.4.49-.6h.35v4.48Zm1.82-.39c-.29-.37-.44-.98-.44-1.82,0-.53.05-.95.16-1.27.11-.32.27-.57.48-.74.21-.17.48-.26.81-.26.24,0,.45.05.63.14.18.1.33.24.45.42.12.18.21.4.28.66.07.26.1.61.1,1.06,0,.52-.05.95-.16,1.27-.11.32-.27.57-.48.75-.21.18-.48.26-.81.26-.43,0-.77-.15-1.01-.46h0Zm.41-3.32c-.19.27-.28.77-.28,1.51s.09,1.22.26,1.46c.17.24.38.36.64.36s.46-.12.64-.37c.17-.24.26-.73.26-1.46s-.09-1.22-.26-1.47c-.17-.24-.39-.36-.64-.36s-.45.11-.6.32h0Zm3.04,3.32c-.29-.37-.44-.98-.44-1.82,0-.53.05-.95.16-1.27.11-.32.27-.57.48-.74.21-.17.48-.26.81-.26.24,0,.45.05.63.14.18.1.33.24.45.42.12.18.21.4.28.66.07.26.1.61.1,1.06,0,.52-.05.95-.16,1.27-.11.32-.27.57-.48.75-.21.18-.48.26-.81.26-.43,0-.77-.15-1.01-.46h0Zm.41-3.32c-.19.27-.28.77-.28,1.51s.09,1.22.26,1.46c.17.24.38.36.64.36s.46-.12.64-.37c.17-.24.26-.73.26-1.46s-.09-1.22-.26-1.47c-.17-.24-.39-.36-.64-.36s-.45.11-.6.32h0Zm4.52,3.71v-3.24h.49v.45c.1-.16.24-.29.41-.38.17-.1.36-.14.58-.14.24,0,.44.05.59.15.15.1.26.24.32.42.26-.38.59-.57,1-.57.32,0,.57.09.74.27.17.18.26.45.26.82v2.22h-.55v-2.04c0-.22-.02-.38-.05-.47-.04-.1-.1-.17-.19-.23-.09-.06-.2-.09-.33-.09-.23,0-.42.08-.57.23-.15.15-.23.39-.23.73v1.88h-.55v-2.1c0-.24-.04-.43-.13-.55-.09-.12-.24-.18-.44-.18-.15,0-.3.04-.43.12-.13.08-.23.2-.28.36-.06.16-.09.38-.09.68v1.68h-.55Zm5.21.27l.53.08c.02.16.08.28.19.36.14.1.32.15.56.15.25,0,.45-.05.59-.15.14-.1.23-.24.28-.43.03-.11.04-.35.04-.7-.24.28-.54.42-.9.42-.44,0-.79-.16-1.03-.48-.24-.32-.37-.71-.37-1.15,0-.31.06-.59.17-.85.11-.26.27-.46.49-.6.21-.14.46-.21.75-.21.38,0,.7.15.94.46v-.39h.51v2.8c0,.5-.05.86-.15,1.07-.1.21-.27.38-.49.5-.22.12-.5.18-.82.18-.39,0-.7-.09-.94-.26-.24-.17-.35-.44-.34-.78Zm.45-1.94c0,.42.08.73.25.93.17.19.38.29.63.29s.46-.1.63-.29c.17-.19.26-.5.26-.91s-.09-.69-.26-.9c-.18-.2-.39-.3-.64-.3s-.45.1-.62.3-.26.49-.26.88Z"/><path d="m6.74,145.01l.59.15c-.12.49-.35.86-.67,1.11-.32.25-.72.38-1.18.38s-.87-.1-1.17-.29c-.3-.2-.53-.48-.69-.85-.16-.37-.24-.77-.24-1.2,0-.47.09-.87.27-1.22.18-.35.43-.61.76-.79.33-.18.69-.27,1.08-.27.45,0,.82.11,1.13.34.3.23.52.55.64.96l-.58.14c-.1-.32-.25-.56-.45-.71-.2-.15-.44-.22-.74-.22-.34,0-.63.08-.86.25-.23.16-.39.39-.49.66-.09.28-.14.56-.14.86,0,.38.06.71.17.99.11.28.28.5.52.64.23.14.49.21.76.21.33,0,.61-.1.84-.29.23-.19.38-.47.47-.85Zm3.43,1.57c-.06-.11-.09-.25-.11-.4-.2.17-.4.29-.59.37-.19.07-.39.11-.6.11-.36,0-.63-.09-.82-.26-.19-.17-.29-.4-.29-.67,0-.16.04-.3.11-.43.07-.13.17-.24.28-.32.12-.08.25-.14.39-.18.11-.03.27-.06.49-.08.44-.05.77-.12.98-.19,0-.08,0-.12,0-.14,0-.22-.05-.38-.16-.47-.14-.12-.35-.19-.62-.19-.26,0-.45.05-.57.14-.12.09-.21.25-.27.48l-.54-.07c.05-.23.13-.41.24-.56.11-.14.27-.25.48-.33.21-.08.46-.11.73-.11s.5.03.67.1c.17.07.3.15.38.25.08.1.14.22.17.37.02.09.03.26.03.51v.73c0,.51.01.83.04.97.02.14.07.26.14.39h-.57Zm-.16-1.62c-.2.08-.5.15-.9.21-.23.03-.38.07-.48.11-.09.04-.17.1-.22.18-.05.08-.08.17-.08.26,0,.15.06.27.17.37.11.1.27.15.49.15s.4-.05.56-.14c.16-.09.29-.22.36-.38.06-.12.09-.31.09-.55v-.2Zm1.37,1.62v-4.47h.55v4.47h-.55Zm3.52-1.19l.54.07c-.06.37-.21.66-.45.87-.24.21-.54.32-.89.32-.44,0-.8-.14-1.07-.43-.27-.29-.4-.7-.4-1.24,0-.35.06-.65.17-.92.12-.26.29-.46.53-.59.24-.13.49-.2.77-.2.35,0,.64.09.86.27.22.18.37.43.43.76l-.53.08c-.05-.22-.14-.38-.27-.49-.13-.11-.28-.16-.47-.16-.28,0-.5.1-.67.3-.17.2-.26.51-.26.94s.08.75.25.95c.17.2.38.3.65.3.22,0,.4-.07.54-.2.14-.13.24-.34.27-.61Zm1.06-2.65v-.63h.55v.63h-.55Zm0,3.84v-3.24h.55v3.24h-.55Zm3.51,0v-.48c-.25.37-.59.55-1.03.55-.19,0-.37-.04-.53-.11-.17-.07-.29-.16-.37-.28-.08-.11-.14-.25-.17-.41-.02-.11-.03-.28-.03-.51v-2h.55v1.79c0,.29.01.48.03.58.03.14.11.26.22.34.11.08.25.12.41.12s.32-.04.46-.13c.14-.08.25-.2.31-.34.06-.15.09-.36.09-.63v-1.73h.55v3.24h-.49Zm1.32,0v-3.24h.49v.45c.1-.16.24-.29.41-.38.17-.1.36-.14.58-.14.24,0,.44.05.59.15.15.1.26.24.32.42.26-.38.59-.57,1-.57.32,0,.57.09.74.27.17.18.26.45.26.82v2.22h-.55v-2.04c0-.22-.02-.38-.05-.47-.04-.1-.1-.17-.19-.23-.09-.06-.2-.09-.33-.09-.23,0-.42.08-.57.23-.15.15-.23.39-.23.73v1.88h-.55v-2.1c0-.24-.04-.43-.13-.55-.09-.12-.24-.18-.44-.18-.15,0-.3.04-.43.12-.13.08-.23.2-.28.36-.06.16-.09.38-.09.68v1.68h-.55Zm9.81-.53v.53h-2.95c0-.13.02-.26.06-.38.08-.2.2-.4.36-.59.17-.19.4-.42.72-.68.49-.4.81-.71.98-.95.17-.23.26-.45.26-.66,0-.22-.08-.4-.23-.55-.16-.15-.36-.22-.61-.22-.26,0-.48.08-.63.24s-.24.38-.24.66l-.56-.06c.04-.42.18-.74.44-.96.25-.22.59-.33,1.01-.33s.77.12,1.02.36.37.53.37.88c0,.18-.04.35-.11.53-.07.17-.19.35-.36.55-.17.19-.45.45-.85.79-.33.28-.54.46-.63.56-.09.1-.17.2-.23.3h2.19Zm1,.14c-.29-.37-.44-.98-.44-1.82,0-.53.05-.95.16-1.27.11-.32.27-.57.48-.74.21-.17.48-.26.81-.26.24,0,.45.05.63.14.18.1.33.24.45.42.12.18.21.4.28.66.07.26.1.61.1,1.06,0,.52-.05.95-.16,1.27-.11.32-.27.57-.48.75-.21.18-.48.26-.81.26-.43,0-.77-.15-1.01-.46h0Zm.41-3.32c-.19.27-.28.77-.28,1.51s.09,1.22.26,1.46c.17.24.38.36.64.36s.46-.12.64-.37c.17-.24.26-.73.26-1.46s-.09-1.22-.26-1.47c-.17-.24-.39-.36-.64-.36s-.45.11-.6.32h0Zm4.52,3.71v-3.24h.49v.45c.1-.16.24-.29.41-.38.17-.1.36-.14.58-.14.24,0,.44.05.59.15.15.1.26.24.32.42.26-.38.59-.57,1-.57.32,0,.57.09.74.27.17.18.26.45.26.82v2.22h-.55v-2.04c0-.22-.02-.38-.05-.47-.04-.1-.1-.17-.19-.23-.09-.06-.2-.09-.33-.09-.23,0-.42.08-.57.23-.15.15-.23.39-.23.73v1.88h-.55v-2.1c0-.24-.04-.43-.13-.55-.09-.12-.24-.18-.44-.18-.15,0-.3.04-.43.12-.13.08-.23.2-.28.36-.06.16-.09.38-.09.68v1.68h-.55Zm5.21.27l.53.08c.02.16.08.28.19.36.14.1.32.15.56.15.25,0,.45-.05.59-.15.14-.1.23-.24.28-.43.03-.11.04-.35.04-.7-.24.28-.54.42-.9.42-.44,0-.79-.16-1.03-.48-.24-.32-.37-.71-.37-1.15,0-.31.06-.59.17-.85.11-.26.27-.46.49-.6.21-.14.46-.21.75-.21.38,0,.7.15.94.46v-.39h.51v2.8c0,.5-.05.86-.15,1.07-.1.21-.27.38-.49.5-.22.12-.5.18-.82.18-.39,0-.7-.09-.94-.26-.24-.17-.35-.44-.34-.78Zm.45-1.94c0,.42.08.73.25.93.17.19.38.29.63.29s.46-.1.63-.29c.17-.19.26-.5.26-.91s-.09-.69-.26-.9c-.18-.2-.39-.3-.64-.3s-.45.1-.62.3-.26.49-.26.88Z"/><path d="m3.58,156.17v-4.47h3.01v.53h-2.42v1.38h2.1v.53h-2.1v2.03h-.59Zm5.9-1.04l.57.07c-.09.33-.25.59-.5.77-.24.18-.55.27-.93.27-.47,0-.85-.15-1.13-.44-.28-.29-.42-.7-.42-1.23s.14-.97.42-1.27c.28-.3.64-.45,1.09-.45s.79.15,1.06.44c.27.29.41.71.41,1.24,0,.03,0,.08,0,.15h-2.41c.02.36.12.63.3.82.18.19.41.28.68.28.2,0,.37-.05.51-.16.14-.11.25-.27.34-.51Zm-1.8-.89h1.81c-.02-.27-.09-.48-.21-.61-.17-.21-.4-.32-.68-.32-.25,0-.46.08-.64.25-.17.17-.27.39-.28.68Zm3.03,1.93v-3.24h.49v.49c.13-.23.24-.38.35-.45s.22-.11.35-.11c.18,0,.37.06.56.18l-.19.51c-.13-.08-.27-.12-.4-.12-.12,0-.23.04-.32.11-.1.07-.16.17-.2.3-.06.19-.09.41-.09.64v1.69h-.55Zm3.42.08l1.29-4.62h.44l-1.29,4.62h-.44Zm4.13-.08v-4.47h.59v4.47h-.59Zm1.6,0v-3.24h.49v.49c.13-.23.24-.38.35-.45s.22-.11.35-.11c.18,0,.37.06.56.18l-.19.51c-.13-.08-.27-.12-.4-.12-.12,0-.23.04-.32.11-.1.07-.16.17-.2.3-.06.19-.09.41-.09.64v1.69h-.55Zm1.85-1.62c0-.6.17-1.04.5-1.33.28-.24.62-.36,1.02-.36.44,0,.81.15,1.09.44.28.29.42.69.42,1.21,0,.42-.06.74-.19.98-.12.24-.31.42-.55.56-.24.13-.5.2-.78.2-.45,0-.82-.15-1.1-.44-.28-.29-.42-.71-.42-1.26Zm.56,0c0,.41.09.72.27.93.18.21.41.31.68.31s.5-.1.68-.31c.18-.21.27-.52.27-.95,0-.4-.09-.7-.27-.91-.18-.21-.41-.31-.68-.31s-.5.1-.68.31c-.18.21-.27.51-.27.93Zm3.09,1.62v-3.24h.49v.46c.24-.36.58-.53,1.03-.53.19,0,.37.04.54.11.16.07.29.16.37.28.08.11.14.25.17.41.02.1.03.28.03.53v1.99h-.55v-1.97c0-.22-.02-.39-.06-.5-.04-.11-.12-.2-.23-.27-.11-.07-.24-.1-.38-.1-.23,0-.44.07-.6.22-.17.15-.25.43-.25.84v1.77h-.55Zm5.07-1.18l.55-.07c.06.31.17.53.32.67.15.14.34.21.55.21.26,0,.48-.09.65-.27.18-.18.27-.4.27-.66s-.08-.46-.25-.62c-.16-.16-.37-.25-.63-.25-.1,0-.23.02-.39.06l.06-.48s.07,0,.09,0c.23,0,.44-.06.63-.18.19-.12.28-.31.28-.56,0-.2-.07-.37-.2-.5-.14-.13-.31-.2-.53-.2s-.39.07-.53.2c-.14.13-.23.34-.27.6l-.55-.1c.07-.37.22-.65.46-.85.24-.2.53-.3.89-.3.24,0,.47.05.67.16.21.1.36.25.47.43.11.18.16.37.16.58s-.05.37-.16.53-.26.28-.46.38c.26.06.47.19.62.38.15.19.22.43.22.72,0,.39-.14.72-.43.99-.28.27-.64.41-1.08.41-.39,0-.72-.12-.98-.35-.26-.23-.41-.54-.44-.91Zm3.74,1.18v-.62h.62v.62c0,.23-.04.41-.12.56-.08.14-.21.25-.39.33l-.15-.23c.12-.05.2-.13.26-.22.05-.1.09-.24.09-.42h-.31Zm1.48-1.17l.58-.05c.04.28.14.49.3.63.16.14.34.21.56.21.26,0,.49-.1.67-.3.18-.2.27-.46.27-.79s-.09-.56-.26-.74c-.18-.18-.41-.27-.69-.27-.18,0-.34.04-.48.12-.14.08-.25.18-.34.31l-.51-.07.43-2.29h2.22v.52h-1.78l-.24,1.2c.27-.19.55-.28.84-.28.39,0,.72.14.99.41.27.27.4.62.4,1.04s-.12.75-.35,1.05c-.29.36-.68.54-1.17.54-.41,0-.74-.11-.99-.34-.26-.23-.4-.53-.44-.9Zm5.37,1.17v-3.24h.49v.45c.1-.16.24-.29.41-.38.17-.1.36-.14.58-.14.24,0,.44.05.59.15.15.1.26.24.32.42.26-.38.59-.57,1-.57.32,0,.57.09.74.27.17.18.26.45.26.82v2.22h-.55v-2.04c0-.22-.02-.38-.05-.47-.04-.1-.1-.17-.19-.23-.09-.06-.2-.09-.33-.09-.23,0-.42.08-.57.23-.15.15-.23.39-.23.73v1.88h-.55v-2.1c0-.24-.04-.43-.13-.55-.09-.12-.24-.18-.44-.18-.15,0-.3.04-.43.12-.13.08-.23.2-.28.36-.06.16-.09.38-.09.68v1.68h-.55Zm5.21.27l.53.08c.02.16.08.28.19.36.14.1.32.15.56.15.25,0,.45-.05.59-.15.14-.1.23-.24.28-.43.03-.11.04-.35.04-.7-.24.28-.54.42-.9.42-.44,0-.79-.16-1.03-.48-.24-.32-.37-.71-.37-1.15,0-.31.06-.59.17-.85.11-.26.27-.46.49-.6.21-.14.46-.21.75-.21.38,0,.7.15.94.46v-.39h.51v2.8c0,.5-.05.86-.15,1.07-.1.21-.27.38-.49.5-.22.12-.5.18-.82.18-.39,0-.7-.09-.94-.26-.24-.17-.35-.44-.34-.78Zm.45-1.94c0,.42.08.73.25.93.17.19.38.29.63.29s.46-.1.63-.29c.17-.19.26-.5.26-.91s-.09-.69-.26-.9c-.18-.2-.39-.3-.64-.3s-.45.1-.62.3-.26.49-.26.88Z"/><path d="m110.24,146.05v.53h-2.95c0-.13.02-.26.06-.38.08-.2.2-.4.36-.59.17-.19.4-.42.72-.68.49-.4.81-.71.98-.95.17-.23.26-.45.26-.66,0-.22-.08-.4-.23-.55-.16-.15-.36-.22-.61-.22-.26,0-.48.08-.63.24s-.24.38-.24.66l-.56-.06c.04-.42.18-.74.44-.96.25-.22.59-.33,1.01-.33s.77.12,1.02.36.37.53.37.88c0,.18-.04.35-.11.53-.07.17-.19.35-.36.55-.17.19-.45.45-.85.79-.33.28-.54.46-.63.56-.09.1-.17.2-.23.3h2.19Zm2.44-2.87c0-.32.08-.59.24-.81.16-.22.39-.34.7-.34.28,0,.51.1.7.3.18.2.28.49.28.88s-.09.67-.28.87c-.19.2-.41.31-.69.31s-.5-.1-.67-.3c-.18-.2-.27-.5-.27-.91Zm.95-.77c-.14,0-.25.06-.34.18-.09.12-.14.33-.14.65,0,.29.05.49.14.6s.2.18.34.18.25-.06.34-.18c.09-.12.14-.33.14-.65,0-.29-.05-.49-.14-.61-.09-.12-.21-.18-.34-.18Zm0,4.33l2.44-4.71h.44l-2.43,4.71h-.45Zm1.93-1.21c0-.32.08-.59.24-.81.16-.22.39-.33.7-.33.28,0,.51.1.7.3.18.2.28.49.28.88s-.09.67-.28.87c-.19.2-.42.31-.69.31s-.5-.1-.67-.3c-.18-.2-.27-.51-.27-.91Zm.96-.77c-.14,0-.25.06-.34.18-.09.12-.14.33-.14.65,0,.28.05.49.14.6.09.12.2.18.34.18s.26-.06.35-.18c.09-.12.14-.33.14-.65,0-.29-.05-.49-.14-.61-.09-.12-.21-.18-.34-.18Z"/><path d="m105.98,156.17h-.55v-3.49c-.13.13-.31.25-.52.38-.21.13-.41.22-.58.28v-.53c.31-.14.57-.32.8-.52.23-.21.39-.4.49-.6h.35v4.48Zm1.46-1.03l.53-.05c.04.25.13.43.26.54.13.11.29.17.48.17.17,0,.32-.04.44-.12.13-.08.23-.18.31-.31.08-.13.15-.3.2-.52.05-.22.08-.44.08-.67,0-.02,0-.06,0-.11-.11.17-.26.32-.45.42-.19.11-.4.16-.62.16-.37,0-.68-.13-.94-.4-.26-.27-.38-.62-.38-1.06s.13-.82.4-1.09c.27-.28.6-.41,1-.41.29,0,.56.08.8.23.24.16.42.38.55.67.12.29.19.71.19,1.26s-.06,1.03-.19,1.36c-.12.34-.31.6-.55.77-.24.18-.53.27-.86.27-.35,0-.63-.1-.86-.29-.22-.19-.35-.47-.4-.82Zm2.25-1.97c0-.31-.08-.56-.25-.75-.17-.18-.37-.28-.6-.28s-.46.1-.64.3c-.18.2-.27.46-.27.77,0,.28.09.52.26.69.17.18.38.27.64.27s.46-.09.63-.27c.16-.18.25-.42.25-.74Zm2.99-.39c0-.32.08-.59.24-.81.16-.22.39-.34.7-.34.28,0,.51.1.7.3.18.2.28.49.28.88s-.09.67-.28.87c-.19.2-.41.31-.69.31s-.5-.1-.67-.3c-.18-.2-.27-.5-.27-.91Zm.95-.77c-.14,0-.25.06-.34.18-.09.12-.14.33-.14.65,0,.29.05.49.14.6s.2.18.34.18.25-.06.34-.18c.09-.12.14-.33.14-.65,0-.29-.05-.49-.14-.61-.09-.12-.21-.18-.34-.18Zm0,4.33l2.44-4.71h.44l-2.43,4.71h-.45Zm1.93-1.21c0-.32.08-.59.24-.81.16-.22.39-.33.7-.33.28,0,.51.1.7.3.18.2.28.49.28.88s-.09.67-.28.87c-.19.2-.42.31-.69.31s-.5-.1-.67-.3c-.18-.2-.27-.51-.27-.91Zm.96-.77c-.14,0-.25.06-.34.18-.09.12-.14.33-.14.65,0,.28.05.49.14.6.09.12.2.18.34.18s.26-.06.35-.18c.09-.12.14-.33.14-.65,0-.29-.05-.49-.14-.61-.09-.12-.21-.18-.34-.18Z"/><text class="cls-2" transform="translate(3.08 116.78)"><tspan class="cls-58" x="0" y="0">C</tspan><tspan class="cls-40" x="4.49" y="0">ho</tspan><tspan class="cls-24" x="12.1" y="0">l</tspan><tspan class="cls-58" x="13.87" y="0">estér</tspan><tspan class="cls-40" x="28.72" y="0">o</tspan><tspan class="cls-64" x="32.53" y="0">l / </tspan><tspan class="cls-61" x="39.58" y="0">C</tspan><tspan class="cls-40" x="44.06" y="0">ho</tspan><tspan class="cls-64" x="51.67" y="0">l</tspan><tspan class="cls-58" x="53.43" y="0">ester</tspan><tspan class="cls-40" x="68.29" y="0">o</tspan><tspan class="cls-64" x="72.09" y="0">l</tspan><tspan x="73.86" y="0"> </tspan></text><path d="m79.39,116.39c-.29-.37-.44-.98-.44-1.82,0-.53.05-.95.16-1.27.11-.32.27-.57.48-.74.21-.17.48-.26.81-.26.24,0,.45.05.63.14.18.1.33.24.45.42.12.18.21.4.28.66.07.26.1.61.1,1.06,0,.52-.05.95-.16,1.27-.11.32-.27.57-.48.75-.21.18-.48.26-.81.26-.43,0-.77-.15-1.01-.46h0Zm.41-3.32c-.19.27-.28.77-.28,1.51s.09,1.22.26,1.46c.17.24.38.36.64.36s.46-.12.64-.37c.17-.24.26-.73.26-1.46s-.09-1.22-.26-1.47c-.17-.24-.39-.36-.64-.36s-.45.11-.6.32h0Zm4.52,3.71v-3.24h.49v.45c.1-.16.24-.29.41-.38.17-.1.36-.14.58-.14.24,0,.44.05.59.15.15.1.26.24.32.42.26-.38.59-.57,1-.57.32,0,.57.09.74.27.17.18.26.45.26.82v2.22h-.55v-2.04c0-.22-.02-.38-.05-.47-.04-.1-.1-.17-.19-.23-.09-.06-.2-.09-.33-.09-.23,0-.42.08-.57.23-.15.15-.23.39-.23.73v1.88h-.55v-2.1c0-.24-.04-.43-.13-.55-.09-.12-.24-.18-.44-.18-.15,0-.3.04-.43.12-.13.08-.23.2-.28.36-.06.16-.09.38-.09.68v1.68h-.55Zm5.21.27l.53.08c.02.16.08.28.19.36.14.1.32.15.56.15.25,0,.45-.05.59-.15.14-.1.23-.24.28-.43.03-.11.04-.35.04-.7-.24.28-.54.42-.9.42-.44,0-.79-.16-1.03-.48-.24-.32-.37-.71-.37-1.15,0-.31.06-.59.17-.85.11-.26.27-.46.49-.6.21-.14.46-.21.75-.21.38,0,.7.15.94.46v-.39h.51v2.8c0,.5-.05.86-.15,1.07-.1.21-.27.38-.49.5-.22.12-.5.18-.82.18-.39,0-.7-.09-.94-.26-.24-.17-.35-.44-.34-.78Zm.45-1.94c0,.42.08.73.25.93.17.19.38.29.63.29s.46-.1.63-.29c.17-.19.26-.5.26-.91s-.09-.69-.26-.9c-.18-.2-.39-.3-.64-.3s-.45.1-.62.3c-.17.2-.26.49-.26.88Z"/><text class="cls-2" transform="translate(3.08 125.72)"><tspan class="cls-60" x="0" y="0">Sodiu</tspan><tspan class="cls-51" x="17.39" y="0">m</tspan><tspan x="22.98" y="0"> </tspan></text><path d="m28.11,124.54l.55-.07c.06.31.17.53.32.67.15.14.34.21.55.21.26,0,.48-.09.65-.27.18-.18.27-.4.27-.66s-.08-.46-.25-.62c-.16-.16-.37-.25-.63-.25-.1,0-.23.02-.39.06l.06-.48s.07,0,.09,0c.23,0,.44-.06.63-.18.19-.12.28-.31.28-.56,0-.2-.07-.37-.2-.5-.14-.13-.31-.2-.53-.2s-.39.07-.53.2c-.14.13-.23.34-.27.6l-.55-.1c.07-.37.22-.65.46-.85.24-.2.53-.3.89-.3.24,0,.47.05.67.16.21.1.36.25.47.43.11.18.16.37.16.58s-.05.37-.16.53-.26.28-.46.38c.26.06.47.19.62.38.15.19.22.43.22.72,0,.39-.14.72-.43.99-.28.27-.64.41-1.08.41-.39,0-.72-.12-.98-.35-.26-.23-.41-.54-.44-.91Zm3.44,0l.58-.05c.04.28.14.49.3.63.16.14.34.21.56.21.26,0,.49-.1.67-.3.18-.2.27-.46.27-.79s-.09-.56-.26-.74c-.18-.18-.41-.27-.69-.27-.18,0-.34.04-.48.12-.14.08-.25.18-.34.31l-.51-.07.43-2.29h2.22v.52h-1.78l-.24,1.2c.27-.19.55-.28.84-.28.39,0,.72.14.99.41.27.27.4.62.4,1.04s-.12.75-.35,1.05c-.29.36-.68.54-1.17.54-.41,0-.74-.11-.99-.34-.26-.23-.4-.53-.44-.9Zm3.89.78c-.29-.37-.44-.98-.44-1.82,0-.53.05-.95.16-1.27.11-.32.27-.57.48-.74.21-.17.48-.26.81-.26.24,0,.45.05.63.14.18.1.33.24.45.42.12.18.21.4.28.66.07.26.1.61.1,1.06,0,.52-.05.95-.16,1.27-.11.32-.27.57-.48.75-.21.18-.48.26-.81.26-.43,0-.77-.15-1.01-.46h0Zm.41-3.32c-.19.27-.28.77-.28,1.51s.09,1.22.26,1.46c.17.24.38.36.64.36s.46-.12.64-.37c.17-.24.26-.73.26-1.46s-.09-1.22-.26-1.47c-.17-.24-.39-.36-.64-.36s-.45.11-.6.32h0Zm4.52,3.71v-3.24h.49v.45c.1-.16.24-.29.41-.38.17-.1.36-.14.58-.14.24,0,.44.05.59.15.15.1.26.24.32.42.26-.38.59-.57,1-.57.32,0,.57.09.74.27.17.18.26.45.26.82v2.22h-.55v-2.04c0-.22-.02-.38-.05-.47-.04-.1-.1-.17-.19-.23-.09-.06-.2-.09-.33-.09-.23,0-.42.08-.57.23-.15.15-.23.39-.23.73v1.88h-.55v-2.1c0-.24-.04-.43-.13-.55-.09-.12-.24-.18-.44-.18-.15,0-.3.04-.43.12-.13.08-.23.2-.28.36-.06.16-.09.38-.09.68v1.68h-.55Zm5.21.27l.53.08c.02.16.08.28.19.36.14.1.32.15.56.15.25,0,.45-.05.59-.15.14-.1.23-.24.28-.43.03-.11.04-.35.04-.7-.24.28-.54.42-.9.42-.44,0-.79-.16-1.03-.48-.24-.32-.37-.71-.37-1.15,0-.31.06-.59.17-.85.11-.26.27-.46.49-.6.21-.14.46-.21.75-.21.38,0,.7.15.94.46v-.39h.51v2.8c0,.5-.05.86-.15,1.07-.1.21-.27.38-.49.5-.22.12-.5.18-.82.18-.39,0-.7-.09-.94-.26-.24-.17-.35-.44-.34-.78Zm.45-1.94c0,.42.08.73.25.93.17.19.38.29.63.29s.46-.1.63-.29c.17-.19.26-.5.26-.91s-.09-.69-.26-.9c-.18-.2-.39-.3-.64-.3s-.45.1-.62.3-.26.49-.26.88Z"/><path d="m110.24,136.46v.53h-2.95c0-.13.02-.26.06-.38.08-.2.2-.4.36-.59.17-.19.4-.42.72-.68.49-.4.81-.71.98-.95.17-.23.26-.45.26-.66,0-.22-.08-.4-.23-.55-.16-.15-.36-.22-.61-.22-.26,0-.48.08-.63.24s-.24.38-.24.66l-.56-.06c.04-.42.18-.74.44-.96.25-.22.59-.33,1.01-.33s.77.12,1.02.36.37.53.37.88c0,.18-.04.35-.11.53-.07.17-.19.35-.36.55-.17.19-.45.45-.85.79-.33.28-.54.46-.63.56-.09.1-.17.2-.23.3h2.19Zm2.44-2.87c0-.32.08-.59.24-.81.16-.22.39-.34.7-.34.28,0,.51.1.7.3.18.2.28.49.28.88s-.09.67-.28.87c-.19.2-.41.31-.69.31s-.5-.1-.67-.3c-.18-.2-.27-.5-.27-.91Zm.95-.77c-.14,0-.25.06-.34.18-.09.12-.14.33-.14.65,0,.29.05.49.14.6s.2.18.34.18.25-.06.34-.18c.09-.12.14-.33.14-.65,0-.29-.05-.49-.14-.61-.09-.12-.21-.18-.34-.18Zm0,4.33l2.44-4.71h.44l-2.43,4.71h-.45Zm1.93-1.21c0-.32.08-.59.24-.81.16-.22.39-.33.7-.33.28,0,.51.1.7.3.18.2.28.49.28.88s-.09.67-.28.87c-.19.2-.42.31-.69.31s-.5-.1-.67-.3c-.18-.2-.27-.51-.27-.91Zm.96-.77c-.14,0-.25.06-.34.18-.09.12-.14.33-.14.65,0,.28.05.49.14.6.09.12.2.18.34.18s.26-.06.35-.18c.09-.12.14-.33.14-.65,0-.29-.05-.49-.14-.61-.09-.12-.21-.18-.34-.18Z"/><path d="m105.98,125.53h-.55v-3.49c-.13.13-.31.25-.52.38-.21.13-.41.22-.58.28v-.53c.31-.14.57-.32.8-.52.23-.21.39-.4.49-.6h.35v4.48Zm1.38-1.17l.58-.05c.04.28.14.49.3.63.16.14.34.21.56.21.26,0,.49-.1.67-.3.18-.2.27-.46.27-.79s-.09-.56-.26-.74c-.18-.18-.41-.27-.69-.27-.18,0-.34.04-.48.12-.14.08-.25.18-.34.31l-.51-.07.43-2.29h2.22v.52h-1.78l-.24,1.2c.27-.19.55-.28.84-.28.39,0,.72.14.99.41.27.27.4.62.4,1.04s-.12.75-.35,1.05c-.29.36-.68.54-1.17.54-.41,0-.74-.11-.99-.34-.26-.23-.4-.53-.44-.9Zm5.32-2.22c0-.32.08-.59.24-.81.16-.22.39-.34.7-.34.28,0,.51.1.7.3.18.2.28.49.28.88s-.09.67-.28.87c-.19.2-.41.31-.69.31s-.5-.1-.67-.3c-.18-.2-.27-.5-.27-.91Zm.95-.77c-.14,0-.25.06-.34.18-.09.12-.14.33-.14.65,0,.29.05.49.14.6s.2.18.34.18.25-.06.34-.18c.09-.12.14-.33.14-.65,0-.29-.05-.49-.14-.61-.09-.12-.21-.18-.34-.18Zm0,4.33l2.44-4.71h.44l-2.43,4.71h-.45Zm1.93-1.21c0-.32.08-.59.24-.81.16-.22.39-.33.7-.33.28,0,.51.1.7.3.18.2.28.49.28.88s-.09.67-.28.87c-.19.2-.42.31-.69.31s-.5-.1-.67-.3c-.18-.2-.27-.51-.27-.91Zm.96-.77c-.14,0-.25.06-.34.18-.09.12-.14.33-.14.65,0,.28.05.49.14.6.09.12.2.18.34.18s.26-.06.35-.18c.09-.12.14-.33.14-.65,0-.29-.05-.49-.14-.61-.09-.12-.21-.18-.34-.18Z"/><text class="cls-21" transform="translate(3.07 165.58)"><tspan class="cls-30" x="0" y="0">*</tspan><tspan class="cls-43" x="1.5" y="0">5</tspan><tspan class="cls-4" x="3.55" y="0">%</tspan><tspan class="cls-49" x="7.17" y="0"> </tspan><tspan class="cls-16" x="8.2" y="0">ou</tspan><tspan class="cls-49" x="12.46" y="0"> </tspan><tspan class="cls-28" x="13.49" y="0">m</tspan><tspan class="cls-30" x="16.66" y="0">o</tspan><tspan class="cls-28" x="18.79" y="0">i</tspan><tspan class="cls-30" x="19.63" y="0">n</tspan><tspan class="cls-46" x="21.77" y="0">s</tspan><tspan class="cls-49" x="23.72" y="0"> </tspan><tspan class="cls-56" x="24.74" y="0">c</tspan><tspan class="cls-41" x="26.79" y="0">’</tspan><tspan class="cls-16" x="27.62" y="0">e</tspan><tspan class="cls-46" x="29.76" y="0">s</tspan><tspan class="cls-49" x="31.71" y="0">t</tspan><tspan class="cls-31" x="32.73" y="0"> </tspan></text><text class="cls-14" transform="translate(36.88 165.58)"><tspan x="0" y="0">peu</tspan></text><text class="cls-21" transform="translate(43.68 165.58)"><tspan class="cls-49" x="0" y="0">, </tspan><tspan class="cls-30" x="2.05" y="0">1</tspan><tspan class="cls-43" x="4.19" y="0">5</tspan><tspan class="cls-4" x="6.24" y="0">%</tspan><tspan class="cls-49" x="9.86" y="0"> </tspan><tspan class="cls-27" x="10.89" y="0">ou</tspan><tspan class="cls-49" x="15.16" y="0"> </tspan><tspan class="cls-27" x="16.19" y="0">p</tspan><tspan class="cls-41" x="18.32" y="0">l</tspan><tspan class="cls-27" x="19.16" y="0">u</tspan><tspan class="cls-46" x="21.3" y="0">s</tspan><tspan class="cls-47" x="23.25" y="0"> </tspan><tspan class="cls-46" x="24.28" y="0">c</tspan><tspan class="cls-37" x="26.23" y="0">’</tspan><tspan class="cls-27" x="27.16" y="0">e</tspan><tspan class="cls-46" x="29.29" y="0">s</tspan><tspan class="cls-49" x="31.24" y="0">t</tspan><tspan class="cls-31" x="32.27" y="0"> </tspan></text><text class="cls-14" transform="translate(76.92 165.58)"><tspan x="0" y="0">beaucoup</tspan></text><text class="cls-21" transform="translate(3.07 171.07)"><tspan x="0" y="0">*</tspan><tspan class="cls-42" x="1.48" y="0">5</tspan><tspan class="cls-7" x="3.53" y="0">%</tspan><tspan class="cls-49" x="7.17" y="0"> </tspan><tspan class="cls-27" x="8.19" y="0">o</tspan><tspan class="cls-55" x="10.33" y="0">r</tspan><tspan class="cls-49" x="11.63" y="0"> </tspan><tspan class="cls-59" x="12.66" y="0">l</tspan><tspan class="cls-16" x="13.5" y="0">e</tspan><tspan class="cls-36" x="15.63" y="0">ss</tspan><tspan class="cls-23" x="19.53" y="0"> </tspan><tspan class="cls-41" x="20.55" y="0">i</tspan><tspan class="cls-55" x="21.38" y="0">s</tspan><tspan class="cls-41" x="23.33" y="0"> </tspan></text><text class="cls-12" transform="translate(27.56 171.07)"><tspan class="cls-27" x="0" y="0">a</tspan><tspan class="cls-47" x="2.14" y="0" xml:space="preserve"> li</tspan><tspan class="cls-32" x="5.21" y="0">tt</tspan><tspan class="cls-49" x="7.82" y="0">l</tspan><tspan x="8.84" y="0">e</tspan></text><text class="cls-21" transform="translate(38.55 171.07)"><tspan class="cls-49" x="0" y="0">, </tspan><tspan class="cls-17" x="2.05" y="0">1</tspan><tspan class="cls-42" x="4.19" y="0">5</tspan><tspan class="cls-10" x="6.24" y="0">%</tspan><tspan class="cls-49" x="9.87" y="0"> </tspan><tspan class="cls-17" x="10.89" y="0">or</tspan><tspan class="cls-49" x="14.32" y="0"> </tspan><tspan class="cls-9" x="15.35" y="0">m</tspan><tspan class="cls-27" x="18.51" y="0">o</tspan><tspan class="cls-50" x="20.65" y="0">re</tspan><tspan class="cls-49" x="24.09" y="0"> </tspan><tspan class="cls-41" x="25.12" y="0">i</tspan><tspan class="cls-46" x="25.96" y="0">s</tspan><tspan class="cls-31" x="27.91" y="0"> </tspan></text><text class="cls-12" transform="translate(67.61 171.07)"><tspan class="cls-50" x="0" y="0">a</tspan><tspan class="cls-49" x="2.15" y="0" xml:space="preserve"> l</tspan><tspan x="4.2" y="0">ot</tspan></text></svg>