<?xml version="1.0" encoding="UTF-8"?><svg id="Layer_1" xmlns="http://www.w3.org/2000/svg" viewBox="0 0 120.94 175.01"><defs><style>.cls-1{letter-spacing:-.01em;}.cls-2{letter-spacing:0em;}.cls-3{letter-spacing:.05em;}.cls-4{letter-spacing:0em;}.cls-5,.cls-6,.cls-7,.cls-8{font-size:4.63px;}.cls-5,.cls-6,.cls-9,.cls-10,.cls-11,.cls-8,.cls-12{font-weight:700;}.cls-5,.cls-9,.cls-10,.cls-11,.cls-12{font-family:Arial-BoldMT, Arial;}.cls-13{letter-spacing:.05em;}.cls-6,.cls-8{font-family:ArialNarrow-Bold, 'Arial Narrow';}.cls-6,.cls-14{letter-spacing:0em;}.cls-15{letter-spacing:0em;}.cls-7{font-family:ArialNarrow, 'Arial Narrow';}.cls-16{letter-spacing:0em;}.cls-17{letter-spacing:0em;}.cls-18{letter-spacing:0em;}.cls-19{letter-spacing:0em;}.cls-20{letter-spacing:0em;}.cls-21{fill:none;stroke:#20221d;stroke-width:.82px;}.cls-22{letter-spacing:0em;}.cls-23{font-family:HelveticaLTStd-Roman, 'Helvetica LT Std';}.cls-23,.cls-10{font-size:6.2px;}.cls-9{font-size:9.99px;}.cls-24{letter-spacing:0em;}.cls-25{letter-spacing:-.05em;}.cls-26{letter-spacing:0em;}.cls-11{font-size:6.2px;}.cls-27{letter-spacing:0em;}.cls-28{letter-spacing:0em;}.cls-29{letter-spacing:0em;}.cls-30{letter-spacing:0em;}.cls-31{letter-spacing:-.02em;}.cls-32{letter-spacing:0em;}.cls-33{letter-spacing:0em;}.cls-34{letter-spacing:0em;}.cls-35{letter-spacing:-.05em;}.cls-36{letter-spacing:.02em;}.cls-37{letter-spacing:0em;}.cls-38{letter-spacing:0em;}.cls-39{letter-spacing:0em;}.cls-40{letter-spacing:-.02em;}.cls-41{letter-spacing:-.02em;}.cls-42{letter-spacing:0em;}.cls-43{letter-spacing:0em;}.cls-44{letter-spacing:0em;}.cls-45{letter-spacing:0em;}.cls-46{letter-spacing:0em;}.cls-47{letter-spacing:0em;}.cls-48{letter-spacing:0em;}.cls-49{letter-spacing:0em;}.cls-50{letter-spacing:0em;}.cls-51{letter-spacing:0em;}.cls-52{letter-spacing:0em;}.cls-53{letter-spacing:0em;}.cls-54{letter-spacing:0em;}.cls-55{letter-spacing:0em;}.cls-56{letter-spacing:.03em;}.cls-57{letter-spacing:0em;}.cls-58{letter-spacing:-.07em;}.cls-59{letter-spacing:0em;}.cls-60{letter-spacing:0em;}.cls-61{letter-spacing:0em;}.cls-12{font-size:7.68px;}.cls-62{letter-spacing:0em;}.cls-63{letter-spacing:0em;}.cls-64{letter-spacing:0em;}.cls-65{letter-spacing:0em;}.cls-66{letter-spacing:0em;}.cls-67{letter-spacing:0em;}.cls-68{letter-spacing:0em;}</style></defs><rect class="cls-21" x=".41" y=".41" width="120.12" height="174.19"/><rect x="4.78" y="40.78" width="114.09" height=".74"/><rect x="4.78" y="51.15" width="50.34" height="1.94"/><rect x="4.78" y="77.43" width="114.09" height=".74"/><rect x="4.78" y="128.69" width="114.09" height="1.94"/><rect x="4.78" y="139.42" width="114.09" height=".74"/><rect x="4.78" y="148.76" width="114.09" height=".74"/><rect x="4.78" y="119.16" width="114.09" height=".74"/><rect x="4.78" y="109.35" width="114.09" height=".74"/><rect x="4.78" y="100.19" width="114.09" height=".74"/><rect x="4.78" y="158.2" width="114.09" height="1.94"/><text class="cls-5" transform="translate(69.55 47.54)"><tspan class="cls-25" x="0" y="0">%</tspan><tspan class="cls-39" x="3.89" y="0"> </tspan><tspan class="cls-40" x="5.18" y="0">v</tspan><tspan class="cls-18" x="7.68" y="0">ale</tspan><tspan class="cls-1" x="14.14" y="0">ur</tspan><tspan class="cls-39" x="18.67" y="0"> </tspan><tspan class="cls-38" x="19.97" y="0">q</tspan><tspan class="cls-1" x="22.84" y="0">u</tspan><tspan class="cls-51" x="25.62" y="0">o</tspan><tspan class="cls-29" x="28.48" y="0">t</tspan><tspan class="cls-39" x="30.05" y="0">i</tspan><tspan class="cls-38" x="31.35" y="0">d</tspan><tspan class="cls-39" x="34.21" y="0">ie</tspan><tspan class="cls-1" x="38.09" y="0">nn</tspan><tspan class="cls-18" x="43.65" y="0">e </tspan><tspan x="47.53" y="0">*</tspan></text><text class="cls-5" transform="translate(86.29 52.63)"><tspan class="cls-25" x="0" y="0">%</tspan><tspan class="cls-39" x="3.89" y="0" xml:space="preserve"> Dail</tspan><tspan class="cls-40" x="13.7" y="0">y</tspan><tspan class="cls-18" x="16.2" y="0"> </tspan><tspan class="cls-58" x="17.5" y="0">V</tspan><tspan class="cls-18" x="20.28" y="0">al</tspan><tspan class="cls-27" x="24.15" y="0">u</tspan><tspan class="cls-17" x="26.94" y="0">e </tspan><tspan class="cls-14" x="30.83" y="0">*</tspan></text><text class="cls-12" transform="translate(4.78 49.3)"><tspan class="cls-59" x="0" y="0">Ca</tspan><tspan class="cls-43" x="9.79" y="0">lo</tspan><tspan class="cls-46" x="16.6" y="0">r</tspan><tspan class="cls-43" x="19.57" y="0">i</tspan><tspan class="cls-46" x="21.7" y="0">e</tspan><tspan x="25.95" y="0">s</tspan></text><text class="cls-12" transform="translate(34.96 49.3)"><tspan x="0" y="0"> </tspan></text><text class="cls-12" transform="translate(37.09 49.3)"><tspan x="0" y="0">2</tspan></text><text class="cls-12" transform="translate(41.35 49.3)"><tspan x="0" y="0">4</tspan></text><text class="cls-12" transform="translate(45.6 49.3)"><tspan x="0" y="0">0</tspan></text><text class="cls-10" transform="translate(4.78 61.23)"><tspan class="cls-22" x="0" y="0">Lipid</tspan><tspan class="cls-37" x="14.87" y="0">es</tspan><tspan class="cls-67" x="21.77" y="0" xml:space="preserve"> / F</tspan><tspan class="cls-57" x="30.78" y="0">a</tspan><tspan x="34.23" y="0">t</tspan></text><text class="cls-10" transform="translate(41.1 61.23)"><tspan x="0" y="0"> </tspan></text><path d="m45.1,61.23h-.54v-3.47c-.13.13-.3.25-.52.38-.21.13-.4.22-.57.28v-.53c.3-.14.57-.32.8-.52.23-.2.39-.4.48-.59h.35v4.46Z"/><path d="m48.28,61.5l.53.08c.02.16.08.28.18.36.14.1.32.15.55.15.25,0,.45-.05.58-.15.14-.1.23-.24.28-.42.03-.11.04-.34.04-.7-.24.28-.53.42-.89.42-.44,0-.78-.16-1.03-.48-.24-.32-.36-.7-.36-1.15,0-.31.06-.59.17-.85.11-.26.27-.46.48-.6.21-.14.46-.21.74-.21.38,0,.69.15.94.46v-.39h.5v2.78c0,.5-.05.86-.15,1.06-.1.21-.26.37-.48.49-.22.12-.49.18-.82.18-.38,0-.69-.09-.93-.26s-.35-.43-.34-.78Zm.45-1.93c0,.42.08.73.25.92.17.19.38.29.63.29s.46-.1.63-.29.25-.49.25-.91-.09-.69-.26-.89c-.17-.2-.38-.3-.63-.3s-.45.1-.62.3c-.17.2-.25.49-.25.88Z"/><path d="m110.44,61.05h-.54v-3.47c-.13.13-.3.25-.52.38-.21.13-.4.22-.57.28v-.53c.3-.14.57-.32.8-.52.23-.2.39-.4.48-.59h.35v4.46Z"/><path d="m113.67,57.68c0-.32.08-.59.24-.81.16-.22.39-.33.69-.33.28,0,.51.1.69.3.18.2.27.49.27.88s-.09.66-.28.87-.41.3-.68.3-.49-.1-.67-.3c-.18-.2-.27-.5-.27-.91Zm.95-.77c-.14,0-.25.06-.34.18-.09.12-.13.33-.13.64,0,.28.05.48.14.6.09.12.2.17.34.17s.25-.06.34-.18c.09-.12.13-.33.13-.64,0-.29-.05-.49-.14-.6-.09-.12-.2-.17-.34-.17Zm0,4.3l2.43-4.68h.44l-2.42,4.68h-.45Zm1.92-1.2c0-.32.08-.59.24-.81.16-.22.39-.33.7-.33.28,0,.51.1.69.3.18.2.27.49.27.88s-.09.66-.28.87c-.18.2-.41.3-.69.3s-.49-.1-.67-.3c-.18-.2-.27-.5-.27-.9Zm.95-.77c-.14,0-.25.06-.34.18-.09.12-.13.33-.13.64,0,.28.05.48.14.6.09.12.2.18.34.18s.25-.06.34-.18c.09-.12.13-.33.13-.64,0-.29-.05-.49-.14-.6-.09-.12-.2-.17-.34-.17Z"/><path d="m9.5,66.75l.54-.08c.03.22.11.38.25.5.14.11.33.17.58.17s.44-.05.56-.15c.12-.1.18-.22.18-.36,0-.12-.05-.22-.16-.29-.07-.05-.26-.11-.56-.18-.4-.1-.68-.19-.83-.26-.15-.07-.27-.18-.35-.31-.08-.13-.12-.27-.12-.43,0-.14.03-.28.1-.4.07-.12.15-.22.27-.3.08-.06.2-.12.35-.16.15-.04.3-.07.47-.07.25,0,.47.04.66.11.19.07.33.17.42.3.09.12.15.29.19.5l-.53.07c-.02-.17-.09-.29-.21-.39-.12-.09-.28-.14-.49-.14-.25,0-.43.04-.54.12-.11.08-.16.18-.16.29,0,.07.02.13.07.19.04.06.11.11.21.15.05.02.21.07.48.14.39.1.65.19.81.25.15.07.27.16.36.29.09.13.13.28.13.47s-.05.35-.16.51c-.11.16-.26.28-.46.37-.2.09-.43.13-.68.13-.42,0-.74-.09-.95-.26-.22-.17-.36-.43-.42-.77Zm5.5.96c-.06-.11-.09-.25-.11-.4-.2.17-.4.29-.58.36-.19.07-.39.11-.6.11-.35,0-.62-.09-.81-.26-.19-.17-.28-.39-.28-.66,0-.16.04-.3.11-.43.07-.13.17-.23.28-.31.12-.08.25-.14.39-.18.11-.03.27-.06.48-.08.44-.05.76-.12.97-.19,0-.07,0-.12,0-.14,0-.22-.05-.38-.15-.47-.14-.12-.35-.18-.62-.18-.26,0-.45.04-.57.13-.12.09-.21.25-.27.48l-.53-.07c.05-.23.13-.41.24-.55.11-.14.27-.25.48-.32.21-.08.45-.11.73-.11s.5.03.67.1c.17.06.3.15.38.24.08.1.14.22.17.37.02.09.03.26.03.5v.73c0,.51.01.83.03.96.02.13.07.26.14.39h-.57Zm-.15-1.61c-.2.08-.49.15-.89.21-.22.03-.38.07-.48.11-.09.04-.16.1-.21.18-.05.08-.08.16-.08.26,0,.15.05.27.16.36.11.1.27.15.48.15s.4-.05.56-.14c.16-.09.28-.22.36-.38.06-.12.09-.3.09-.54v-.2Zm2.32,1.15c.06,0,.14,0,.24-.02l.08.48c-.15.03-.29.05-.41.05-.2,0-.35-.03-.46-.09s-.19-.14-.23-.25c-.04-.1-.07-.32-.07-.64v-1.85h-.4v-.42h.4v-.8l.54-.33v1.12h.55v.42h-.55v1.88c0,.16,0,.26.03.3.02.04.05.08.09.11.04.03.11.04.19.04h0Zm2.85.47v-.47c-.25.36-.59.54-1.02.54-.19,0-.37-.04-.53-.11-.16-.07-.29-.16-.37-.27-.08-.11-.14-.24-.17-.4-.02-.11-.03-.28-.03-.51v-1.99h.54v1.78c0,.28.01.48.03.58.03.14.11.26.22.34.11.08.25.12.41.12s.32-.04.46-.13c.14-.08.24-.2.3-.34.06-.14.09-.35.09-.63v-1.72h.54v3.21h-.49Zm1.31,0v-3.21h.49v.49c.13-.23.24-.38.35-.45.11-.07.22-.11.35-.11.18,0,.37.06.56.18l-.19.51c-.13-.08-.27-.12-.4-.12-.12,0-.23.04-.32.11-.09.07-.16.17-.2.3-.06.19-.09.41-.09.64v1.68h-.54Zm4.25-1.04l.56.07c-.09.33-.25.58-.49.77-.24.18-.55.27-.92.27-.47,0-.84-.14-1.12-.43-.28-.29-.41-.7-.41-1.22s.14-.96.42-1.26c.28-.3.64-.45,1.08-.45s.78.15,1.05.44c.27.29.41.7.41,1.23,0,.03,0,.08,0,.15h-2.4c.02.35.12.62.3.81.18.19.4.28.67.28.2,0,.37-.05.51-.16.14-.1.25-.27.34-.5Zm-1.79-.88h1.79c-.02-.27-.09-.47-.21-.61-.17-.21-.4-.31-.67-.31-.25,0-.46.08-.63.25-.17.17-.26.39-.28.67Zm.59-1.7l.4-.85h.71l-.67.85h-.45Zm2.2,2.65l.54-.08c.03.22.11.38.25.5.14.11.33.17.58.17s.44-.05.56-.15c.12-.1.18-.22.18-.36,0-.12-.05-.22-.16-.29-.07-.05-.26-.11-.56-.18-.4-.1-.68-.19-.83-.26-.15-.07-.27-.18-.35-.31-.08-.13-.12-.27-.12-.43,0-.14.03-.28.1-.4.07-.12.15-.22.27-.3.08-.06.2-.12.35-.16.15-.04.3-.07.47-.07.25,0,.47.04.66.11.19.07.33.17.42.3.09.12.15.29.19.5l-.53.07c-.02-.17-.09-.29-.21-.39-.12-.09-.28-.14-.49-.14-.25,0-.43.04-.54.12-.11.08-.16.18-.16.29,0,.07.02.13.07.19.04.06.11.11.21.15.05.02.21.07.48.14.39.1.65.19.81.25.15.07.27.16.36.29.09.13.13.28.13.47s-.05.35-.16.51c-.11.16-.26.28-.46.37-.2.09-.43.13-.68.13-.42,0-.74-.09-.95-.26-.22-.17-.36-.43-.42-.77Z"/><polygon points="31.29 67.79 32.58 63.2 33.01 63.2 31.73 67.79 31.29 67.79"/><path d="m35.09,66.29l.55-.05c.03.22.09.4.18.55.1.14.24.26.45.35.2.09.43.13.68.13.22,0,.42-.03.59-.1.17-.07.3-.16.38-.27.08-.12.13-.24.13-.38s-.04-.26-.12-.36c-.08-.1-.21-.19-.4-.26-.12-.05-.38-.12-.79-.22-.41-.1-.69-.19-.86-.28-.21-.11-.37-.25-.47-.41-.1-.16-.16-.35-.16-.55,0-.22.06-.43.19-.63.13-.19.31-.34.56-.44.24-.1.52-.15.81-.15.33,0,.62.05.87.16.25.11.44.26.58.47.14.21.21.44.22.7l-.56.04c-.03-.28-.13-.49-.31-.64-.17-.14-.43-.21-.77-.21s-.61.07-.78.2c-.16.13-.24.29-.24.47,0,.16.06.29.17.39.11.1.41.21.89.32.48.11.8.2.98.28.26.12.45.27.57.45.12.18.18.39.18.63s-.07.46-.2.67c-.14.21-.33.37-.58.49-.25.12-.54.17-.86.17-.4,0-.74-.06-1.01-.18-.27-.12-.48-.29-.64-.53-.15-.24-.24-.5-.24-.8Zm6.45,1.43c-.06-.11-.09-.25-.11-.4-.2.17-.4.29-.58.36-.19.07-.39.11-.6.11-.35,0-.62-.09-.81-.26-.19-.17-.28-.39-.28-.66,0-.16.04-.3.11-.43.07-.13.17-.23.28-.31.12-.08.25-.14.39-.18.11-.03.27-.06.48-.08.44-.05.76-.12.97-.19,0-.07,0-.12,0-.14,0-.22-.05-.38-.15-.47-.14-.12-.35-.18-.62-.18-.26,0-.45.04-.57.13-.12.09-.21.25-.27.48l-.53-.07c.05-.23.13-.41.24-.55.11-.14.27-.25.48-.32.21-.08.45-.11.73-.11s.5.03.67.1c.17.06.3.15.38.24.08.1.14.22.17.37.02.09.03.26.03.5v.73c0,.51.01.83.03.96.02.13.07.26.14.39h-.57Zm-.15-1.61c-.2.08-.49.15-.89.21-.22.03-.38.07-.48.11-.09.04-.16.1-.21.18-.05.08-.08.16-.08.26,0,.15.05.27.16.36.11.1.27.15.48.15s.4-.05.56-.14c.16-.09.28-.22.36-.38.06-.12.09-.3.09-.54v-.2Zm2.32,1.15c.06,0,.14,0,.24-.02l.08.48c-.15.03-.29.05-.41.05-.2,0-.35-.03-.46-.09s-.19-.14-.23-.25c-.04-.1-.07-.32-.07-.64v-1.85h-.4v-.42h.4v-.8l.54-.33v1.12h.55v.42h-.55v1.88c0,.16,0,.26.03.3.02.04.05.08.09.11.04.03.11.04.19.04h0Zm2.85.47v-.47c-.25.36-.59.54-1.02.54-.19,0-.37-.04-.53-.11-.16-.07-.29-.16-.37-.27-.08-.11-.14-.24-.17-.4-.02-.11-.03-.28-.03-.51v-1.99h.54v1.78c0,.28.01.48.03.58.03.14.11.26.22.34.11.08.25.12.41.12s.32-.04.46-.13c.14-.08.24-.2.3-.34.06-.14.09-.35.09-.63v-1.72h.54v3.21h-.49Zm1.31,0v-3.21h.49v.49c.13-.23.24-.38.35-.45.11-.07.22-.11.35-.11.18,0,.37.06.56.18l-.19.51c-.13-.08-.27-.12-.4-.12-.12,0-.23.04-.32.11-.09.07-.16.17-.2.3-.06.19-.09.41-.09.64v1.68h-.54Zm4.25,0c-.06-.11-.09-.25-.11-.4-.2.17-.4.29-.58.36-.19.07-.39.11-.6.11-.35,0-.62-.09-.81-.26-.19-.17-.28-.39-.28-.66,0-.16.04-.3.11-.43.07-.13.17-.23.28-.31.12-.08.25-.14.39-.18.11-.03.27-.06.48-.08.44-.05.76-.12.97-.19,0-.07,0-.12,0-.14,0-.22-.05-.38-.15-.47-.14-.12-.35-.18-.62-.18-.26,0-.45.04-.57.13-.12.09-.21.25-.27.48l-.53-.07c.05-.23.13-.41.24-.55.11-.14.27-.25.48-.32.21-.08.45-.11.73-.11s.5.03.67.1c.17.06.3.15.38.24.08.1.14.22.17.37.02.09.03.26.03.5v.73c0,.51.01.83.03.96.02.13.07.26.14.39h-.57Zm-.15-1.61c-.2.08-.49.15-.89.21-.22.03-.38.07-.48.11-.09.04-.16.1-.21.18-.05.08-.08.16-.08.26,0,.15.05.27.16.36.11.1.27.15.48.15s.4-.05.56-.14c.16-.09.28-.22.36-.38.06-.12.09-.3.09-.54v-.2Zm2.32,1.15c.06,0,.14,0,.24-.02l.08.48c-.15.03-.29.05-.41.05-.2,0-.35-.03-.46-.09s-.19-.14-.23-.25c-.04-.1-.07-.32-.07-.64v-1.85h-.4v-.42h.4v-.8l.54-.33v1.12h.55v.42h-.55v1.88c0,.16,0,.26.03.3.02.04.05.08.09.11.04.03.11.04.19.04h0Z"/><path d="m57.23,66.68l.56.07c-.09.33-.25.58-.49.77-.24.18-.55.27-.92.27-.47,0-.84-.14-1.12-.43-.28-.29-.41-.7-.41-1.22s.14-.96.42-1.26c.28-.3.64-.45,1.08-.45s.78.15,1.05.44c.27.29.41.7.41,1.23,0,.03,0,.08,0,.15h-2.4c.02.35.12.62.3.81.18.19.4.28.67.28.2,0,.37-.05.51-.16.14-.1.25-.27.34-.5Zm-1.79-.88h1.79c-.02-.27-.09-.47-.21-.61-.17-.21-.4-.31-.67-.31-.25,0-.46.08-.63.25-.17.17-.26.39-.28.67Zm5.1,1.92v-.41c-.2.32-.5.48-.9.48-.26,0-.49-.07-.71-.21s-.38-.34-.5-.59c-.12-.25-.18-.54-.18-.87s.05-.61.16-.87c.11-.26.27-.46.48-.6.21-.14.45-.21.72-.21.19,0,.37.04.52.12s.27.19.37.32v-1.59h.54v4.44h-.51Zm-1.72-1.6c0,.41.09.72.26.92.17.2.38.31.61.31s.44-.1.61-.29c.17-.19.25-.49.25-.89,0-.44-.08-.76-.25-.97-.17-.21-.38-.31-.63-.31s-.44.1-.61.3c-.16.2-.24.51-.24.94Z"/><path d="m64.01,67.33c-.29-.37-.44-.97-.44-1.8,0-.52.05-.95.16-1.27.11-.32.27-.57.48-.74.21-.17.48-.26.8-.26.24,0,.45.05.63.14.18.1.33.23.44.41.12.18.21.4.28.66.07.26.1.61.1,1.05,0,.52-.05.94-.16,1.26-.11.32-.27.57-.48.74-.21.17-.48.26-.81.26-.43,0-.76-.15-1.01-.46h0Zm.4-3.3c-.19.27-.28.77-.28,1.5s.09,1.21.26,1.45c.17.24.38.36.63.36s.46-.12.63-.36c.17-.24.26-.73.26-1.45s-.09-1.22-.26-1.46c-.17-.24-.38-.36-.64-.36s-.45.11-.6.32h0Z"/><path d="m68.8,67.98l.53.08c.02.16.08.28.18.36.14.1.32.15.55.15.25,0,.45-.05.58-.15.14-.1.23-.24.28-.42.03-.11.04-.34.04-.7-.24.28-.53.42-.89.42-.44,0-.78-.16-1.03-.48-.24-.32-.36-.7-.36-1.15,0-.31.06-.59.17-.85.11-.26.27-.46.48-.6.21-.14.46-.21.74-.21.38,0,.69.15.94.46v-.39h.5v2.78c0,.5-.05.86-.15,1.06-.1.21-.26.37-.48.49-.22.12-.49.18-.82.18-.38,0-.69-.09-.93-.26s-.35-.43-.34-.78Zm.45-1.93c0,.42.08.73.25.92.17.19.38.29.63.29s.46-.1.63-.29.25-.49.25-.91-.09-.69-.26-.89c-.17-.2-.38-.3-.63-.3s-.45.1-.62.3c-.17.2-.25.49-.25.88Z"/><path d="m11.69,74.12v-1.22h-1.21v-.51h1.21v-1.21h.51v1.21h1.21v.51h-1.21v1.22h-.51Zm5.18.25c.06,0,.14,0,.24-.02l.08.48c-.15.03-.29.05-.41.05-.2,0-.35-.03-.46-.09-.11-.06-.19-.14-.23-.25-.04-.1-.07-.32-.07-.64v-1.85h-.4v-.42h.4v-.8l.54-.33v1.12h.55v.42h-.55v1.88c0,.16,0,.26.03.3.02.04.05.08.09.11.04.03.11.04.19.04h0Zm.8.47v-3.21h.49v.49c.13-.23.24-.38.35-.45.11-.07.22-.11.35-.11.18,0,.37.06.56.18l-.19.51c-.13-.08-.27-.12-.4-.12-.12,0-.23.04-.32.11-.09.07-.16.17-.2.3-.06.19-.09.41-.09.64v1.68h-.54Zm4.25,0c-.06-.11-.09-.25-.11-.4-.2.17-.4.29-.58.36-.19.07-.39.11-.6.11-.35,0-.62-.09-.81-.26-.19-.17-.28-.39-.28-.66,0-.16.04-.3.11-.43.07-.13.17-.23.28-.31.12-.08.25-.14.39-.18.11-.03.27-.06.48-.08.44-.05.76-.11.97-.19,0-.07,0-.12,0-.14,0-.22-.05-.38-.15-.47-.14-.12-.35-.18-.62-.18-.26,0-.45.04-.57.13-.12.09-.21.25-.27.48l-.53-.07c.05-.23.13-.41.24-.55.11-.14.27-.25.48-.32.21-.08.45-.11.73-.11s.5.03.67.1c.17.06.3.15.38.24.08.1.14.22.17.37.02.09.03.26.03.5v.73c0,.51.01.83.03.96.02.13.07.26.14.39h-.57Zm-.15-1.61c-.2.08-.49.15-.89.21-.22.03-.38.07-.48.11-.09.04-.16.1-.21.18-.05.08-.08.16-.08.26,0,.15.05.27.16.36.11.1.27.15.48.15s.4-.05.56-.14c.16-.09.28-.22.36-.38.06-.12.09-.3.09-.54v-.2Zm1.37,1.61v-3.21h.49v.46c.24-.35.58-.53,1.02-.53.19,0,.37.03.53.1.16.07.28.16.36.27.08.11.14.25.17.4.02.1.03.28.03.53v1.98h-.54v-1.96c0-.22-.02-.39-.06-.5s-.12-.2-.23-.26c-.11-.07-.23-.1-.38-.1-.23,0-.43.07-.6.22-.17.15-.25.43-.25.84v1.76h-.54Zm3.2-.96l.54-.08c.03.22.11.38.25.5.14.12.33.17.58.17s.44-.05.56-.15c.12-.1.18-.22.18-.36,0-.12-.05-.22-.16-.29-.07-.05-.26-.11-.56-.18-.4-.1-.68-.19-.83-.26s-.27-.18-.35-.31c-.08-.13-.12-.27-.12-.43,0-.14.03-.28.1-.4.07-.12.15-.22.27-.3.08-.06.2-.12.35-.16.15-.04.3-.07.47-.07.25,0,.47.04.66.11.19.07.33.17.42.3.09.12.15.29.19.5l-.53.07c-.02-.17-.09-.29-.21-.39-.12-.09-.28-.14-.49-.14-.25,0-.43.04-.54.12-.11.08-.16.18-.16.29,0,.07.02.13.07.19.04.06.11.11.21.15.05.02.21.07.48.14.39.1.65.19.81.25.15.07.27.16.36.29.09.13.13.28.13.47s-.05.35-.16.51c-.11.16-.26.28-.46.37s-.43.13-.68.13c-.42,0-.74-.09-.96-.26-.22-.17-.36-.43-.42-.77Zm4.62,1.04l1.29-4.59h.44l-1.28,4.59h-.44Zm5.07-.79v-1.22h-1.21v-.51h1.21v-1.21h.51v1.21h1.21v.51h-1.21v1.22h-.51Zm5.42.72v-3.91h-1.46v-.52h3.52v.52h-1.47v3.91h-.59Zm2.41,0v-3.21h.49v.49c.13-.23.24-.38.35-.45.11-.07.22-.11.35-.11.18,0,.37.06.56.18l-.19.51c-.13-.08-.27-.12-.4-.12-.12,0-.23.04-.32.11-.09.07-.16.17-.2.3-.06.19-.09.41-.09.64v1.68h-.54Zm4.25,0c-.06-.11-.09-.25-.11-.4-.2.17-.4.29-.58.36-.19.07-.39.11-.6.11-.35,0-.62-.09-.81-.26-.19-.17-.28-.39-.28-.66,0-.16.04-.3.11-.43.07-.13.17-.23.28-.31.12-.08.25-.14.39-.18.11-.03.27-.06.48-.08.44-.05.76-.11.97-.19,0-.07,0-.12,0-.14,0-.22-.05-.38-.15-.47-.14-.12-.35-.18-.62-.18-.26,0-.45.04-.57.13-.12.09-.21.25-.27.48l-.53-.07c.05-.23.13-.41.24-.55.11-.14.27-.25.48-.32.21-.08.45-.11.73-.11s.5.03.67.1c.17.06.3.15.38.24.08.1.14.22.17.37.02.09.03.26.03.5v.73c0,.51.01.83.03.96.02.13.07.26.14.39h-.57Zm-.15-1.61c-.2.08-.49.15-.89.21-.22.03-.38.07-.48.11-.09.04-.16.1-.21.18-.05.08-.08.16-.08.26,0,.15.05.27.16.36.11.1.27.15.48.15s.4-.05.56-.14c.16-.09.28-.22.36-.38.06-.12.09-.3.09-.54v-.2Zm1.37,1.61v-3.21h.49v.46c.24-.35.58-.53,1.02-.53.19,0,.37.03.53.1.16.07.28.16.36.27.08.11.14.25.17.4.02.1.03.28.03.53v1.98h-.54v-1.96c0-.22-.02-.39-.06-.5s-.12-.2-.23-.26c-.11-.07-.23-.1-.38-.1-.23,0-.43.07-.6.22-.17.15-.25.43-.25.84v1.76h-.54Zm3.2-.96l.54-.08c.03.22.11.38.25.5.14.12.33.17.58.17s.44-.05.56-.15c.12-.1.18-.22.18-.36,0-.12-.05-.22-.16-.29-.07-.05-.26-.11-.56-.18-.4-.1-.68-.19-.83-.26s-.27-.18-.35-.31c-.08-.13-.12-.27-.12-.43,0-.14.03-.28.1-.4.07-.12.15-.22.27-.3.08-.06.2-.12.35-.16.15-.04.3-.07.47-.07.25,0,.47.04.66.11.19.07.33.17.42.3.09.12.15.29.19.5l-.53.07c-.02-.17-.09-.29-.21-.39-.12-.09-.28-.14-.49-.14-.25,0-.43.04-.54.12-.11.08-.16.18-.16.29,0,.07.02.13.07.19.04.06.11.11.21.15.05.02.21.07.48.14.39.1.65.19.81.25.15.07.27.16.36.29.09.13.13.28.13.47s-.05.35-.16.51c-.11.16-.26.28-.46.37s-.43.13-.68.13c-.42,0-.74-.09-.96-.26-.22-.17-.36-.43-.42-.77Zm5.41.58c-.29-.37-.44-.97-.44-1.8,0-.52.05-.95.16-1.27.11-.32.27-.57.48-.74.21-.17.48-.26.8-.26.24,0,.45.05.63.14.18.1.33.23.44.41.12.18.21.4.28.66.07.26.1.61.1,1.05,0,.52-.05.94-.16,1.26-.11.32-.27.57-.48.74-.21.17-.48.26-.81.26-.43,0-.76-.15-1.01-.46h0Zm.4-3.3c-.19.27-.28.77-.28,1.5s.09,1.21.26,1.45c.17.24.38.36.63.36s.46-.12.63-.36c.17-.24.26-.73.26-1.45s-.09-1.22-.26-1.46c-.17-.24-.38-.36-.64-.36s-.45.11-.6.32h0Zm4.39,3.95l.53.08c.02.16.08.28.18.36.14.1.32.15.55.15.25,0,.45-.05.58-.15.14-.1.23-.24.28-.42.03-.11.04-.34.04-.7-.24.28-.53.42-.89.42-.44,0-.78-.16-1.03-.48-.24-.32-.36-.7-.36-1.15,0-.31.06-.59.17-.85.11-.26.27-.46.48-.6.21-.14.46-.21.74-.21.38,0,.69.15.94.46v-.39h.5v2.78c0,.5-.05.86-.15,1.06-.1.21-.26.37-.48.49-.22.12-.49.18-.82.18-.38,0-.69-.09-.93-.26-.24-.17-.35-.43-.34-.78Zm.45-1.93c0,.42.08.73.25.92.17.19.38.29.63.29s.46-.1.63-.29c.17-.19.25-.49.25-.91s-.09-.69-.26-.89c-.17-.2-.38-.3-.63-.3s-.45.1-.62.3c-.17.2-.25.49-.25.88Z"/><path d="m108.82,71.03c-.29-.37-.44-.97-.44-1.8,0-.52.05-.95.16-1.27.11-.32.27-.57.48-.74.21-.17.48-.26.8-.26.24,0,.45.05.63.14.18.1.33.23.44.41.12.18.21.4.28.66.07.26.1.61.1,1.05,0,.52-.05.94-.16,1.26-.11.32-.27.57-.48.74-.21.17-.48.26-.81.26-.43,0-.76-.15-1.01-.46h0Zm.4-3.3c-.19.27-.28.77-.28,1.5s.09,1.21.26,1.45c.17.24.38.36.63.36s.46-.12.63-.36c.17-.24.26-.73.26-1.45s-.09-1.22-.26-1.46c-.17-.24-.38-.36-.64-.36s-.45.11-.6.32h0Z"/><path d="m113.67,68.04c0-.32.08-.59.24-.81.16-.22.39-.33.69-.33.28,0,.51.1.69.3.18.2.27.49.27.88s-.09.66-.28.87-.41.3-.68.3-.49-.1-.67-.3c-.18-.2-.27-.5-.27-.91Zm.95-.77c-.14,0-.25.06-.34.18-.09.12-.13.33-.13.64,0,.28.05.48.14.6.09.12.2.17.34.17s.25-.06.34-.18c.09-.12.13-.33.13-.64,0-.29-.05-.49-.14-.6-.09-.12-.2-.17-.34-.17Zm0,4.3l2.43-4.68h.44l-2.42,4.68h-.45Zm1.92-1.2c0-.32.08-.59.24-.81.16-.22.39-.33.7-.33.28,0,.51.1.69.3.18.2.27.49.27.88s-.09.66-.28.87c-.18.2-.41.3-.69.3s-.49-.1-.67-.3c-.18-.2-.27-.5-.27-.9Zm.95-.77c-.14,0-.25.06-.34.18-.09.12-.13.33-.13.64,0,.28.05.48.14.6.09.12.2.18.34.18s.25-.06.34-.18c.09-.12.13-.33.13-.64,0-.29-.05-.49-.14-.6-.09-.12-.2-.17-.34-.17Z"/><text class="cls-9" transform="translate(3.07 10.67)"><tspan class="cls-35" x="0" y="0">V</tspan><tspan x="6.12" y="0">aleur nutriti</tspan><tspan class="cls-31" x="61.08" y="0">v</tspan><tspan x="66.45" y="0">e</tspan></text><text class="cls-9" transform="translate(3.07 21.32)"><tspan x="0" y="0">Nutrition Facts</tspan></text><path d="m3.53,31.39v-4.98h.56v.47c.13-.18.28-.32.44-.41.16-.09.36-.14.6-.14.31,0,.58.08.81.24.23.16.41.38.53.67.12.29.18.6.18.95,0,.37-.07.7-.2.99s-.32.52-.58.68c-.25.16-.52.24-.79.24-.2,0-.39-.04-.55-.13-.16-.09-.29-.19-.4-.33v1.75h-.61Zm.55-3.16c0,.46.09.81.28,1.03.19.22.41.33.68.33s.5-.11.7-.34c.19-.23.29-.58.29-1.07s-.09-.8-.28-1.03c-.19-.23-.41-.34-.68-.34s-.49.12-.69.36c-.2.24-.3.6-.3,1.06Zm3.1-.02c0-.67.19-1.16.56-1.48.31-.27.69-.4,1.13-.4.49,0,.9.16,1.21.49.31.32.47.77.47,1.34,0,.46-.07.83-.21,1.09-.14.27-.34.47-.61.62-.27.15-.56.22-.87.22-.5,0-.91-.16-1.22-.48-.31-.32-.47-.79-.47-1.4Zm.63,0c0,.46.1.81.3,1.04.2.23.45.34.76.34s.55-.12.76-.35c.2-.23.3-.58.3-1.05,0-.45-.1-.78-.3-1.01-.2-.23-.45-.34-.75-.34s-.56.11-.76.34c-.2.23-.3.57-.3,1.03Zm5.84,1.8v-.53c-.28.41-.66.61-1.14.61-.21,0-.41-.04-.59-.12-.18-.08-.32-.18-.41-.31-.09-.12-.15-.27-.19-.45-.02-.12-.04-.31-.04-.57v-2.23h.61v2c0,.32.01.53.04.64.04.16.12.29.24.38.12.09.28.14.46.14s.35-.05.52-.14c.16-.09.27-.22.34-.38.07-.16.1-.4.1-.7v-1.93h.61v3.6h-.55Zm1.51,0v-3.6h.55v.55c.14-.26.27-.42.39-.5s.25-.12.39-.12c.21,0,.41.07.63.2l-.21.57c-.15-.09-.3-.13-.45-.13-.13,0-.25.04-.36.12-.11.08-.18.19-.23.33-.07.22-.1.45-.1.71v1.88h-.61Zm7.33-.59v.59h-3.28c0-.15.02-.29.07-.42.08-.22.22-.44.4-.66.18-.22.45-.47.8-.75.54-.44.9-.79,1.09-1.05.19-.26.28-.5.28-.73,0-.24-.09-.45-.26-.61-.17-.17-.4-.25-.68-.25-.29,0-.53.09-.7.26s-.27.42-.27.73l-.63-.06c.04-.47.2-.82.48-1.07.28-.25.66-.37,1.13-.37s.85.13,1.13.4c.28.26.42.59.42.98,0,.2-.04.39-.12.59-.08.19-.22.39-.4.61-.19.21-.5.5-.94.87-.37.31-.6.52-.7.63-.1.11-.19.22-.26.33h2.44Zm3.86.06c.07,0,.16,0,.27-.02l.09.54c-.17.04-.33.05-.46.05-.22,0-.39-.04-.52-.11s-.21-.16-.26-.28c-.05-.11-.07-.35-.07-.72v-2.07h-.45v-.47h.45v-.89l.61-.37v1.26h.61v.47h-.61v2.1c0,.17.01.29.03.34.02.05.06.09.11.12.05.03.12.04.21.04h0Zm.88.52v-3.6h.55v.55c.14-.26.27-.42.39-.5s.25-.12.39-.12c.21,0,.41.07.63.2l-.21.57c-.15-.09-.3-.13-.45-.13-.13,0-.25.04-.36.12-.11.08-.18.19-.23.33-.07.22-.1.45-.1.71v1.88h-.61Zm4.81,0c-.06-.13-.1-.27-.12-.44-.23.19-.44.33-.65.41-.21.08-.43.12-.67.12-.4,0-.7-.1-.91-.29-.21-.19-.32-.44-.32-.74,0-.18.04-.34.12-.48.08-.15.19-.26.32-.35.13-.09.28-.15.44-.2.12-.03.3-.06.54-.09.49-.06.86-.13,1.09-.21,0-.08,0-.14,0-.16,0-.25-.06-.42-.17-.53-.16-.14-.39-.21-.69-.21-.29,0-.5.05-.64.15-.14.1-.24.28-.3.53l-.6-.08c.05-.26.14-.46.27-.62.12-.16.3-.28.54-.36.23-.08.51-.13.82-.13s.56.04.75.11c.19.07.33.16.42.27.09.11.15.25.19.42.02.1.03.29.03.56v.81c0,.57.01.93.04,1.08.03.15.08.29.15.43h-.64Zm-.17-1.81c-.22.09-.55.17-1,.23-.25.04-.43.08-.53.12-.1.05-.18.11-.24.2-.06.09-.08.18-.08.29,0,.16.06.3.18.41.12.11.3.16.54.16s.44-.05.63-.15c.18-.1.32-.24.4-.42.07-.14.1-.34.1-.61v-.22Zm1.58,1.81v-3.6h.55v.51c.26-.4.65-.59,1.15-.59.22,0,.42.04.6.12.18.08.32.18.41.31.09.13.15.28.19.45.02.11.03.31.03.59v2.21h-.61v-2.19c0-.25-.02-.43-.07-.56-.05-.12-.13-.22-.25-.29-.12-.07-.26-.11-.43-.11-.26,0-.48.08-.67.25-.19.16-.28.48-.28.94v1.97h-.61Zm6.23-1.32l.6.08c-.07.41-.23.74-.5.97-.27.23-.6.35-.99.35-.49,0-.89-.16-1.19-.48-.3-.32-.45-.78-.45-1.38,0-.39.06-.73.19-1.02.13-.29.32-.51.59-.66.26-.15.55-.22.86-.22.39,0,.71.1.96.3.25.2.41.48.48.84l-.59.09c-.06-.24-.16-.42-.3-.55-.14-.12-.32-.18-.52-.18-.31,0-.56.11-.75.33-.19.22-.29.57-.29,1.05s.09.83.28,1.05c.19.22.43.33.73.33.24,0,.44-.07.6-.22.16-.15.26-.37.3-.68Zm1.14,1.32v-4.97h.61v1.78c.28-.33.64-.49,1.08-.49.27,0,.5.05.69.16s.34.25.42.44c.08.19.13.45.13.81v2.28h-.61v-2.28c0-.3-.07-.53-.2-.67-.13-.14-.32-.21-.56-.21-.18,0-.35.05-.51.14-.16.09-.27.22-.34.38-.07.16-.1.38-.1.66v1.97h-.61Zm6.34-1.16l.63.08c-.1.37-.28.65-.55.86-.27.2-.61.3-1.03.3-.53,0-.94-.16-1.25-.49-.31-.32-.46-.78-.46-1.36s.16-1.08.47-1.41c.31-.33.72-.5,1.21-.5s.87.16,1.18.49c.3.33.46.79.46,1.38,0,.04,0,.09,0,.16h-2.68c.02.4.13.7.34.91.2.21.45.32.75.32.22,0,.41-.06.57-.18.16-.12.28-.3.38-.56Zm-2-.99h2.01c-.03-.3-.1-.53-.23-.68-.19-.23-.45-.35-.76-.35-.28,0-.52.09-.71.28-.19.19-.3.44-.32.75Zm3.17,1.07l.6-.09c.03.24.13.43.28.56.15.13.37.19.65.19s.49-.06.62-.17.2-.25.2-.4c0-.14-.06-.25-.18-.33-.08-.05-.29-.12-.62-.21-.45-.11-.76-.21-.93-.29s-.3-.2-.39-.34c-.09-.15-.13-.31-.13-.48,0-.16.04-.31.11-.45.07-.14.17-.25.3-.34.09-.07.22-.13.39-.18.16-.05.34-.07.53-.07.28,0,.53.04.74.12s.37.19.47.33c.1.14.17.32.21.56l-.6.08c-.03-.19-.11-.33-.24-.43-.13-.1-.31-.16-.55-.16-.28,0-.48.05-.6.14-.12.09-.18.2-.18.33,0,.08.02.15.07.21.05.07.13.12.23.16.06.02.24.07.54.16.43.12.73.21.9.28.17.07.3.18.4.32.1.14.15.31.15.52s-.06.39-.18.57c-.12.18-.29.32-.51.42-.22.1-.48.15-.76.15-.47,0-.82-.1-1.07-.29-.25-.19-.4-.48-.47-.86Zm6.85,2.53c-.34-.42-.62-.92-.85-1.49-.23-.57-.35-1.16-.35-1.77,0-.54.09-1.05.26-1.55.2-.57.52-1.14.94-1.71h.44c-.27.47-.45.81-.54,1.01-.14.31-.25.64-.33.98-.1.42-.15.85-.15,1.27,0,1.09.34,2.17,1.01,3.26h-.44Zm1.09-2.61l.59-.05c.05.28.14.48.28.6.14.12.32.19.54.19.19,0,.35-.04.49-.13.14-.09.26-.2.35-.34.09-.14.17-.34.23-.58.06-.24.09-.49.09-.75,0-.03,0-.07,0-.12-.12.19-.29.35-.5.47-.21.12-.44.18-.69.18-.41,0-.76-.15-1.04-.45s-.43-.69-.43-1.18.15-.91.45-1.22c.3-.31.67-.46,1.12-.46.32,0,.62.09.89.26.27.17.47.42.61.74.14.32.21.79.21,1.4s-.07,1.14-.21,1.52c-.14.38-.34.66-.62.86-.27.2-.59.29-.96.29-.39,0-.71-.11-.95-.32-.25-.22-.39-.52-.44-.91Zm2.5-2.19c0-.35-.09-.63-.28-.83-.19-.21-.41-.31-.67-.31s-.51.11-.71.33c-.2.22-.3.51-.3.86,0,.32.1.57.29.77.19.2.43.3.71.3s.51-.1.7-.3c.18-.2.27-.47.27-.82Z"/><path d="m60.06,28.71l.64-.05c.05.31.16.55.33.7.17.16.38.24.63.24.29,0,.54-.11.75-.33.2-.22.3-.52.3-.88s-.1-.62-.29-.82c-.2-.2-.45-.3-.77-.3-.2,0-.37.04-.53.13-.16.09-.28.21-.37.35l-.57-.07.48-2.55h2.47v.58h-1.98l-.27,1.34c.3-.21.61-.31.94-.31.43,0,.8.15,1.1.45.3.3.45.69.45,1.16s-.13.84-.39,1.17c-.32.4-.75.6-1.3.6-.45,0-.82-.13-1.11-.38-.29-.25-.45-.59-.49-1.01Z"/><path d="m65.94,30.31l.59.09c.02.18.09.32.21.4.15.11.36.17.62.17.28,0,.5-.06.65-.17.15-.11.26-.27.31-.47.03-.12.05-.39.04-.78-.27.31-.6.47-1,.47-.49,0-.88-.18-1.15-.54-.27-.36-.41-.79-.41-1.28,0-.34.06-.66.19-.95.12-.29.3-.51.54-.67.24-.16.51-.24.83-.24.42,0,.77.17,1.05.52v-.43h.56v3.11c0,.56-.06.96-.17,1.19-.11.23-.29.42-.54.55s-.55.2-.91.2c-.43,0-.78-.1-1.04-.29-.26-.19-.39-.48-.38-.87Zm.5-2.16c0,.47.09.82.28,1.03.19.22.42.33.7.33s.52-.11.7-.32c.19-.22.28-.55.28-1.01s-.1-.77-.29-1c-.2-.22-.43-.34-.71-.34s-.5.11-.69.33c-.19.22-.28.55-.28.98Zm3.89,3.32h-.44c.68-1.08,1.01-2.17,1.01-3.26,0-.42-.05-.85-.15-1.26-.08-.34-.18-.66-.32-.98-.09-.2-.27-.54-.55-1.02h.44c.42.57.74,1.14.94,1.71.17.49.26,1.01.26,1.55,0,.61-.12,1.2-.35,1.77-.23.57-.52,1.07-.85,1.49Z"/><path d="m3.61,37.51v-4.97h1.87c.33,0,.58.02.76.05.24.04.45.12.61.23.16.11.3.27.4.48.1.21.15.43.15.68,0,.42-.13.78-.4,1.07-.27.29-.75.44-1.46.44h-1.27v2.02h-.66Zm.66-2.61h1.28c.42,0,.73-.08.9-.24.18-.16.27-.38.27-.67,0-.21-.05-.39-.16-.53-.11-.15-.24-.25-.42-.29-.11-.03-.32-.04-.61-.04h-1.27v1.78Zm6.38,1.45l.63.08c-.1.37-.28.65-.55.86-.27.2-.61.3-1.03.3-.53,0-.94-.16-1.25-.49-.31-.32-.46-.78-.46-1.36s.16-1.08.47-1.41c.31-.33.72-.5,1.21-.5s.87.16,1.18.49c.3.33.46.79.46,1.38,0,.04,0,.09,0,.16h-2.68c.02.4.13.7.34.91.2.21.45.32.75.32.22,0,.41-.06.57-.18.16-.12.28-.3.38-.56Zm-2-.99h2.01c-.03-.3-.1-.53-.23-.68-.19-.23-.45-.35-.76-.35-.28,0-.52.09-.71.28-.19.19-.3.44-.32.75Zm3.41,2.15v-3.6h.55v.55c.14-.26.27-.42.39-.5s.25-.12.39-.12c.21,0,.41.07.63.2l-.21.57c-.15-.09-.3-.13-.45-.13-.13,0-.25.04-.36.12-.11.08-.18.19-.23.33-.07.22-.1.45-.1.71v1.88h-.61Zm7.33-.59v.59h-3.28c0-.15.02-.29.07-.42.08-.22.22-.44.4-.66.18-.22.45-.47.8-.75.54-.44.9-.79,1.09-1.05.19-.26.28-.5.28-.73,0-.24-.09-.45-.26-.61-.17-.17-.4-.25-.68-.25-.29,0-.53.09-.7.26s-.27.42-.27.73l-.63-.06c.04-.47.2-.82.48-1.07.28-.25.66-.37,1.13-.37s.85.13,1.13.4c.28.26.42.59.42.98,0,.2-.04.39-.12.59-.08.19-.22.39-.4.61-.19.21-.5.5-.94.87-.37.31-.6.52-.7.63-.1.11-.19.22-.26.33h2.44Zm2.55-.49l.6-.09c.03.24.13.43.28.56.15.13.37.19.65.19s.49-.06.62-.17.2-.25.2-.4c0-.14-.06-.25-.18-.33-.08-.05-.29-.12-.62-.21-.45-.11-.76-.21-.93-.29s-.3-.2-.39-.34c-.09-.15-.13-.31-.13-.48,0-.16.04-.31.11-.45.07-.14.17-.25.3-.34.09-.07.22-.13.39-.18.16-.05.34-.07.53-.07.28,0,.53.04.74.12s.37.19.47.33c.1.14.17.32.21.56l-.6.08c-.03-.19-.11-.33-.24-.43-.13-.1-.31-.16-.55-.16-.28,0-.48.05-.6.14-.12.09-.18.2-.18.33,0,.08.02.15.07.21.05.07.13.12.23.16.06.02.24.07.54.16.43.12.73.21.9.28.17.07.3.18.4.32.1.14.15.31.15.52s-.06.39-.18.57c-.12.18-.29.32-.51.42-.22.1-.48.15-.76.15-.47,0-.82-.1-1.07-.29-.25-.19-.4-.48-.47-.86Zm3.72,1.07v-4.97h.61v4.97h-.61Zm1.58-4.27v-.7h.61v.7h-.61Zm0,4.27v-3.6h.61v3.6h-.61Zm3.91-1.32l.6.08c-.07.41-.23.74-.5.97-.27.23-.6.35-.99.35-.49,0-.89-.16-1.19-.48-.3-.32-.45-.78-.45-1.38,0-.39.06-.73.19-1.02.13-.29.32-.51.59-.66.26-.15.55-.22.86-.22.39,0,.71.1.96.3.25.2.41.48.48.84l-.59.09c-.06-.24-.16-.42-.3-.55-.14-.12-.32-.18-.52-.18-.31,0-.56.11-.75.33-.19.22-.29.57-.29,1.05s.09.83.28,1.05c.19.22.43.33.73.33.24,0,.44-.07.6-.22.16-.15.26-.37.3-.68Zm3.61.16l.63.08c-.1.37-.28.65-.55.86-.27.2-.61.3-1.03.3-.53,0-.94-.16-1.25-.49-.31-.32-.46-.78-.46-1.36s.16-1.08.47-1.41c.31-.33.72-.5,1.21-.5s.87.16,1.18.49c.3.33.46.79.46,1.38,0,.04,0,.09,0,.16h-2.68c.02.4.13.7.34.91.2.21.45.32.75.32.22,0,.41-.06.57-.18.16-.12.28-.3.38-.56Zm-2-.99h2.01c-.03-.3-.1-.53-.23-.68-.19-.23-.45-.35-.76-.35-.28,0-.52.09-.71.28-.19.19-.3.44-.32.75Zm3.17,1.07l.6-.09c.03.24.13.43.28.56.15.13.37.19.65.19s.49-.06.62-.17.2-.25.2-.4c0-.14-.06-.25-.18-.33-.08-.05-.29-.12-.62-.21-.45-.11-.76-.21-.93-.29s-.3-.2-.39-.34c-.09-.15-.13-.31-.13-.48,0-.16.04-.31.11-.45.07-.14.17-.25.3-.34.09-.07.22-.13.39-.18.16-.05.34-.07.53-.07.28,0,.53.04.74.12s.37.19.47.33c.1.14.17.32.21.56l-.6.08c-.03-.19-.11-.33-.24-.43-.13-.1-.31-.16-.55-.16-.28,0-.48.05-.6.14-.12.09-.18.2-.18.33,0,.08.02.15.07.21.05.07.13.12.23.16.06.02.24.07.54.16.43.12.73.21.9.28.17.07.3.18.4.32.1.14.15.31.15.52s-.06.39-.18.57c-.12.18-.29.32-.51.42-.22.1-.48.15-.76.15-.47,0-.82-.1-1.07-.29-.25-.19-.4-.48-.47-.86Zm6.85,2.53c-.34-.42-.62-.92-.85-1.49-.23-.57-.35-1.16-.35-1.77,0-.54.09-1.05.26-1.55.2-.57.52-1.14.94-1.71h.44c-.27.47-.45.81-.54,1.01-.14.31-.25.64-.33.98-.1.42-.15.85-.15,1.27,0,1.09.34,2.17,1.01,3.26h-.44Zm1.09-2.61l.59-.05c.05.28.14.48.28.6.14.12.32.19.54.19.19,0,.35-.04.49-.13.14-.09.26-.2.35-.34.09-.14.17-.34.23-.58.06-.24.09-.49.09-.75,0-.03,0-.07,0-.12-.12.19-.29.35-.5.47-.21.12-.44.18-.69.18-.41,0-.76-.15-1.04-.45s-.43-.69-.43-1.18.15-.91.45-1.22c.3-.31.67-.46,1.12-.46.32,0,.62.09.89.26.27.17.47.42.61.74.14.32.21.79.21,1.4s-.07,1.14-.21,1.52c-.14.38-.34.66-.62.86-.27.2-.59.29-.96.29-.39,0-.71-.11-.95-.32-.25-.22-.39-.52-.44-.91Zm2.5-2.19c0-.35-.09-.63-.28-.83-.19-.21-.41-.31-.67-.31s-.51.11-.71.33c-.2.22-.3.51-.3.86,0,.32.1.57.29.77.19.2.43.3.71.3s.51-.1.7-.3c.18-.2.27-.47.27-.82Z"/><path d="m47.64,36.21l.64-.05c.05.31.16.55.33.7.17.16.38.24.63.24.29,0,.54-.11.75-.33.2-.22.3-.52.3-.88s-.1-.62-.29-.82c-.2-.2-.45-.3-.77-.3-.2,0-.37.04-.53.13-.16.09-.28.21-.37.35l-.57-.07.48-2.55h2.47v.58h-1.98l-.27,1.34c.3-.21.61-.31.94-.31.43,0,.8.15,1.1.45.3.3.45.69.45,1.16s-.13.84-.39,1.17c-.32.4-.75.6-1.3.6-.45,0-.82-.13-1.11-.38-.29-.25-.45-.59-.49-1.01Z"/><path d="m53.53,37.81l.59.09c.02.18.09.32.21.4.15.11.36.17.62.17.28,0,.5-.06.65-.17.15-.11.26-.27.31-.47.03-.12.05-.39.04-.78-.27.31-.6.47-1,.47-.49,0-.88-.18-1.15-.54-.27-.36-.41-.79-.41-1.28,0-.34.06-.66.19-.95.12-.29.3-.51.54-.67.24-.16.51-.24.83-.24.42,0,.77.17,1.05.52v-.43h.56v3.11c0,.56-.06.96-.17,1.19-.11.23-.29.42-.54.55s-.55.2-.91.2c-.43,0-.78-.1-1.04-.29-.26-.19-.39-.48-.38-.87Zm.5-2.16c0,.47.09.82.28,1.03.19.22.42.33.7.33s.52-.11.7-.32c.19-.22.28-.55.28-1.01s-.1-.77-.29-1c-.2-.22-.43-.34-.71-.34s-.5.11-.69.33c-.19.22-.28.55-.28.98Zm3.89,3.32h-.44c.68-1.08,1.01-2.17,1.01-3.26,0-.42-.05-.85-.15-1.26-.08-.34-.18-.66-.32-.98-.09-.2-.27-.54-.55-1.02h.44c.42.57.74,1.14.94,1.71.17.49.26,1.01.26,1.55,0,.61-.12,1.2-.35,1.77-.23.57-.52,1.07-.85,1.49Z"/><text class="cls-10" transform="translate(4.78 84.46)"><tspan class="cls-47" x="0" y="0">Glu</tspan><tspan class="cls-2" x="10.29" y="0">c</tspan><tspan class="cls-63" x="13.72" y="0">i</tspan><tspan x="15.43" y="0">d</tspan></text><text class="cls-10" transform="translate(23.95 84.46)"><tspan class="cls-2" x="0" y="0">es</tspan><tspan x="6.86" y="0"> </tspan></text><text class="cls-10" transform="translate(32.58 84.46)"><tspan x="0" y="0">/ </tspan></text><text class="cls-10" transform="translate(36.06 84.46)"><tspan x="0" y="0">Carbohydrate </tspan></text><path d="m80.11,84.46v-1.06h-1.93v-.5l2.02-2.88h.44v2.88h.6v.5h-.6v1.06h-.54Zm0-1.56v-2l-1.39,2h1.39Z"/><path d="m84.61,81.11l-.54.04c-.05-.21-.12-.37-.21-.47-.15-.16-.33-.23-.54-.23-.17,0-.33.05-.46.15-.17.13-.31.31-.41.55-.1.24-.15.58-.15,1.03.13-.2.29-.35.48-.44.19-.1.39-.15.6-.15.36,0,.67.13.93.4.26.27.38.61.38,1.04,0,.28-.06.54-.18.78-.12.24-.29.42-.49.55-.21.13-.45.19-.71.19-.45,0-.82-.17-1.11-.5-.29-.33-.43-.88-.43-1.65,0-.86.16-1.48.48-1.87.28-.34.65-.51,1.12-.51.35,0,.64.1.86.29.22.2.36.47.4.81Zm-2.22,1.91c0,.19.04.37.12.54.08.17.19.3.33.39.14.09.29.13.45.13.23,0,.43-.09.59-.28.17-.19.25-.44.25-.76s-.08-.55-.25-.72c-.16-.18-.37-.26-.62-.26s-.46.09-.63.26c-.17.18-.26.41-.26.69Z"/><path d="m87.01,84.72l.53.08c.02.16.08.28.18.36.14.1.32.15.55.15.25,0,.45-.05.58-.15.14-.1.23-.24.28-.42.03-.11.04-.34.04-.7-.24.28-.53.42-.89.42-.44,0-.78-.16-1.03-.48-.24-.32-.36-.7-.36-1.15,0-.31.06-.59.17-.85.11-.26.27-.46.48-.6.21-.14.46-.21.74-.21.38,0,.69.15.94.46v-.39h.5v2.78c0,.5-.05.86-.15,1.06-.1.21-.26.37-.48.49-.22.12-.49.18-.82.18-.38,0-.69-.09-.93-.26s-.35-.43-.34-.78Zm.45-1.93c0,.42.08.73.25.92.17.19.38.29.63.29s.46-.1.63-.29.25-.49.25-.91-.09-.69-.26-.89c-.17-.2-.38-.3-.63-.3s-.45.1-.62.3c-.17.2-.25.49-.25.88Z"/><path d="m105.07,90.12l.54-.07c.06.31.17.53.32.67.15.14.33.2.55.2.26,0,.47-.09.65-.27.18-.18.26-.4.26-.66s-.08-.46-.25-.62c-.16-.16-.37-.24-.62-.24-.1,0-.23.02-.38.06l.06-.48s.07,0,.09,0c.23,0,.44-.06.63-.18.19-.12.28-.31.28-.56,0-.2-.07-.37-.2-.5-.14-.13-.31-.2-.52-.2s-.39.07-.53.2c-.14.13-.23.33-.27.6l-.54-.1c.07-.37.22-.65.45-.85.24-.2.53-.3.88-.3.24,0,.47.05.67.16.2.1.36.25.47.43.11.18.16.37.16.57s-.05.37-.15.52c-.1.16-.26.28-.46.38.26.06.47.19.61.38.15.19.22.43.22.72,0,.39-.14.72-.42.99-.28.27-.64.4-1.07.4-.39,0-.71-.12-.97-.35-.26-.23-.4-.53-.44-.9Zm3.43,0l.54-.07c.06.31.17.53.32.67.15.14.33.2.55.2.26,0,.47-.09.65-.27.18-.18.26-.4.26-.66s-.08-.46-.25-.62c-.16-.16-.37-.24-.62-.24-.1,0-.23.02-.38.06l.06-.48s.07,0,.09,0c.23,0,.44-.06.63-.18.19-.12.28-.31.28-.56,0-.2-.07-.37-.2-.5-.14-.13-.31-.2-.52-.2s-.39.07-.53.2c-.14.13-.23.33-.27.6l-.54-.1c.07-.37.22-.65.45-.85.24-.2.53-.3.88-.3.24,0,.47.05.67.16.2.1.36.25.47.43.11.18.16.37.16.57s-.05.37-.15.52c-.1.16-.26.28-.46.38.26.06.47.19.61.38s.22.43.22.72c0,.39-.14.72-.42.99-.28.27-.64.4-1.07.4-.39,0-.71-.12-.97-.35-.26-.23-.4-.53-.44-.9Z"/><path d="m113.78,87.92c0-.32.08-.59.24-.81.16-.22.39-.33.69-.33.28,0,.51.1.69.3.18.2.27.49.27.88s-.09.66-.28.87-.41.3-.68.3-.49-.1-.67-.3c-.18-.2-.27-.5-.27-.91Zm.95-.77c-.14,0-.25.06-.34.18-.09.12-.13.33-.13.64,0,.28.05.48.14.6.09.12.2.17.34.17s.25-.06.34-.18c.09-.12.13-.33.13-.64,0-.29-.05-.49-.14-.6-.09-.12-.2-.17-.34-.17Zm0,4.3l2.43-4.68h.44l-2.42,4.68h-.45Zm1.92-1.2c0-.32.08-.59.24-.81.16-.22.39-.33.7-.33.28,0,.51.1.69.3.18.2.27.49.27.88s-.09.66-.28.87c-.18.2-.41.3-.69.3s-.49-.1-.67-.3c-.18-.2-.27-.5-.27-.9Zm.95-.77c-.14,0-.25.06-.34.18-.09.12-.13.33-.13.64,0,.28.05.48.14.6.09.12.2.18.34.18s.25-.06.34-.18c.09-.12.13-.33.13-.64,0-.29-.05-.49-.14-.6-.09-.12-.2-.17-.34-.17Z"/><path d="m9.82,91.4v-4.44h2.99v.52h-2.41v1.37h2.08v.52h-2.08v2.02h-.59Zm3.67-3.81v-.63h.54v.63h-.54Zm0,3.81v-3.21h.54v3.21h-.54Zm1.86,0h-.51v-4.44h.54v1.58c.23-.29.52-.43.88-.43.2,0,.38.04.56.12.18.08.32.19.44.34.11.14.2.32.27.52.06.2.1.42.1.65,0,.55-.14.98-.41,1.28-.27.3-.6.45-.98.45s-.68-.16-.89-.48v.4Zm0-1.63c0,.39.05.66.16.84.17.28.4.42.7.42.24,0,.44-.1.62-.31.17-.21.26-.52.26-.92s-.08-.73-.25-.93-.37-.3-.6-.3-.44.1-.62.31c-.17.21-.26.51-.26.9Zm2.93,1.63v-3.21h.49v.49c.13-.23.24-.38.35-.45.11-.07.22-.11.35-.11.18,0,.37.06.56.18l-.19.51c-.13-.08-.27-.12-.4-.12-.12,0-.23.04-.32.11-.09.07-.16.17-.2.3-.06.19-.09.41-.09.64v1.68h-.54Zm4.25-1.04l.56.07c-.09.33-.25.58-.49.77-.24.18-.55.27-.92.27-.47,0-.84-.14-1.12-.43-.28-.29-.41-.7-.41-1.22s.14-.96.42-1.26c.28-.3.64-.45,1.08-.45s.78.15,1.05.44c.27.29.41.7.41,1.23,0,.03,0,.08,0,.15h-2.4c.02.35.12.62.3.81.18.19.4.28.67.28.2,0,.37-.05.51-.16.14-.1.25-.27.34-.5Zm-1.79-.88h1.79c-.02-.27-.09-.47-.21-.61-.17-.21-.4-.31-.67-.31-.25,0-.46.08-.63.25-.17.17-.26.39-.28.67Zm2.8.96l.54-.08c.03.22.11.38.25.5.14.11.33.17.58.17s.44-.05.56-.15c.12-.1.18-.22.18-.36,0-.12-.05-.22-.16-.29-.07-.05-.26-.11-.56-.18-.4-.1-.68-.19-.83-.26-.15-.07-.27-.18-.35-.31-.08-.13-.12-.27-.12-.43,0-.14.03-.28.1-.4.07-.12.15-.22.27-.3.08-.06.2-.12.35-.16.15-.04.3-.07.47-.07.25,0,.47.04.66.11.19.07.33.17.42.3.09.12.15.29.19.5l-.53.07c-.02-.17-.09-.29-.21-.39-.12-.09-.28-.14-.49-.14-.25,0-.43.04-.54.12-.11.08-.16.18-.16.29,0,.07.02.13.07.19.04.06.11.11.21.15.05.02.21.07.48.14.39.1.65.19.81.25.15.07.27.16.36.29.09.13.13.28.13.47s-.05.35-.16.51c-.11.16-.26.28-.46.37-.2.09-.43.13-.68.13-.42,0-.74-.09-.95-.26-.22-.17-.36-.43-.42-.77Z"/><polygon points="28.25 91.47 29.53 86.88 29.97 86.88 28.69 91.47 28.25 91.47"/><path d="m32.27,91.4v-4.44h2.99v.52h-2.41v1.37h2.08v.52h-2.08v2.02h-.59Zm3.67-3.81v-.63h.54v.63h-.54Zm0,3.81v-3.21h.54v3.21h-.54Z"/><path d="m37.8,91.4h-.51v-4.44h.54v1.58c.23-.29.52-.43.88-.43.2,0,.38.04.56.12.18.08.32.19.44.34.11.14.2.32.27.52.06.2.1.42.1.65,0,.55-.14.98-.41,1.28-.27.3-.6.45-.98.45s-.68-.16-.89-.48v.4Zm0-1.63c0,.39.05.66.16.84.17.28.4.42.7.42.24,0,.44-.1.62-.31.17-.21.26-.52.26-.92s-.08-.73-.25-.93-.37-.3-.6-.3-.44.1-.62.31c-.17.21-.26.51-.26.9Zm2.93,1.63v-3.21h.49v.49c.13-.23.24-.38.35-.45.11-.07.22-.11.35-.11.18,0,.37.06.56.18l-.19.51c-.13-.08-.27-.12-.4-.12-.12,0-.23.04-.32.11-.09.07-.16.17-.2.3-.06.19-.09.41-.09.64v1.68h-.54Zm4.25-1.04l.56.07c-.09.33-.25.58-.49.77-.24.18-.55.27-.92.27-.47,0-.84-.14-1.12-.43-.28-.29-.41-.7-.41-1.22s.14-.96.42-1.26c.28-.3.64-.45,1.08-.45s.78.15,1.05.44c.27.29.41.7.41,1.23,0,.03,0,.08,0,.15h-2.4c.02.35.12.62.3.81.18.19.4.28.67.28.2,0,.37-.05.51-.16.14-.1.25-.27.34-.5Zm-1.79-.88h1.79c-.02-.27-.09-.47-.21-.61-.17-.21-.4-.31-.67-.31-.25,0-.46.08-.63.25-.17.17-.26.39-.28.67Z"/><path d="m48.64,88.99c-.23-.08-.39-.2-.5-.35-.11-.15-.16-.34-.16-.55,0-.32.12-.59.35-.81.23-.22.54-.33.93-.33s.7.11.94.34c.24.23.35.5.35.82,0,.21-.05.38-.16.54-.11.15-.27.27-.49.35.27.09.48.23.62.43.14.2.21.43.21.71,0,.38-.13.7-.4.96-.27.26-.62.39-1.06.39s-.79-.13-1.06-.39c-.27-.26-.4-.58-.4-.97,0-.29.07-.53.22-.72.15-.19.35-.33.63-.4Zm-.28,1.13c0,.16.04.31.11.45.07.15.18.26.33.34.15.08.3.12.47.12.26,0,.48-.08.64-.25.17-.17.25-.38.25-.64s-.09-.48-.26-.65c-.17-.17-.39-.26-.66-.26s-.47.08-.64.25c-.17.17-.25.38-.25.64Zm.18-2.05c0,.21.07.38.2.51.14.13.31.2.53.2s.38-.07.52-.2c.13-.13.2-.29.2-.49s-.07-.37-.21-.5c-.14-.14-.31-.2-.52-.2s-.38.07-.52.2c-.14.13-.21.29-.21.48Z"/><path d="m53.04,91.66l.53.08c.02.16.08.28.18.36.14.1.32.15.55.15.25,0,.45-.05.58-.15.14-.1.23-.24.28-.42.03-.11.04-.34.04-.7-.24.28-.53.42-.89.42-.44,0-.78-.16-1.03-.48-.24-.32-.36-.7-.36-1.15,0-.31.06-.59.17-.85.11-.26.27-.46.48-.6.21-.14.46-.21.74-.21.38,0,.69.15.94.46v-.39h.5v2.78c0,.5-.05.86-.15,1.06-.1.21-.26.37-.48.49-.22.12-.49.18-.82.18-.38,0-.69-.09-.93-.26s-.35-.43-.34-.78Zm.45-1.93c0,.42.08.73.25.92.17.19.38.29.63.29s.46-.1.63-.29.25-.49.25-.91-.09-.69-.26-.89c-.17-.2-.38-.3-.63-.3s-.45.1-.62.3c-.17.2-.25.49-.25.88Z"/><path d="m9.59,97.09l.55-.05c.03.22.09.4.18.55.1.14.24.26.45.35.2.09.43.13.68.13.22,0,.42-.03.59-.1.17-.07.3-.16.38-.27.08-.12.13-.24.13-.38s-.04-.26-.12-.36c-.08-.1-.21-.19-.4-.26-.12-.05-.38-.12-.79-.22-.41-.1-.69-.19-.86-.28-.21-.11-.37-.25-.47-.41-.1-.16-.16-.35-.16-.55,0-.22.06-.43.19-.63.13-.19.31-.34.56-.44.24-.1.52-.15.81-.15.33,0,.62.05.87.16.25.11.44.26.58.47.14.21.21.44.22.7l-.56.04c-.03-.28-.13-.49-.31-.64-.17-.14-.43-.21-.77-.21s-.61.07-.78.2c-.16.13-.24.29-.24.47,0,.16.06.29.17.39.11.1.41.21.89.32.48.11.8.2.98.28.26.12.45.27.57.45.12.18.18.39.18.63s-.07.46-.2.67c-.14.21-.33.37-.58.49-.25.12-.54.17-.86.17-.4,0-.74-.06-1.01-.18-.27-.12-.48-.29-.64-.53-.15-.24-.24-.5-.24-.8Zm6.4,1.43v-.47c-.25.36-.59.54-1.02.54-.19,0-.37-.04-.53-.11-.16-.07-.29-.16-.37-.27-.08-.11-.14-.24-.17-.4-.02-.11-.03-.28-.03-.51v-1.99h.54v1.78c0,.28.01.48.03.58.03.14.11.26.22.34.11.08.25.12.41.12s.32-.04.46-.13c.14-.08.24-.2.3-.34.06-.14.09-.35.09-.63v-1.72h.54v3.21h-.49Zm3.41-1.18l.54.07c-.06.37-.21.66-.45.87-.24.21-.54.31-.89.31-.44,0-.79-.14-1.06-.43-.27-.29-.4-.7-.4-1.24,0-.35.06-.65.17-.91.12-.26.29-.46.53-.59.24-.13.49-.2.77-.2.35,0,.63.09.86.26.22.18.36.43.43.75l-.53.08c-.05-.22-.14-.38-.27-.49-.13-.11-.28-.16-.46-.16-.27,0-.5.1-.67.3-.17.2-.26.51-.26.93s.08.75.25.94c.17.2.38.29.65.29.21,0,.39-.07.54-.2.14-.13.23-.33.27-.61Zm1.04,1.18v-3.21h.49v.49c.13-.23.24-.38.35-.45s.22-.11.35-.11c.18,0,.37.06.56.18l-.19.51c-.13-.08-.27-.12-.4-.12-.12,0-.23.04-.32.11-.09.07-.16.17-.2.3-.06.19-.09.41-.09.64v1.68h-.54Zm4.24-1.04l.56.07c-.09.33-.25.58-.49.77-.24.18-.55.27-.92.27-.47,0-.84-.14-1.12-.43-.28-.29-.41-.7-.41-1.22s.14-.96.42-1.26c.28-.3.64-.45,1.08-.45s.78.15,1.05.44.41.7.41,1.23c0,.03,0,.08,0,.15h-2.4c.02.35.12.62.3.81.18.19.4.28.67.28.2,0,.37-.05.51-.16.14-.1.25-.27.34-.5Zm-1.79-.88h1.79c-.02-.27-.09-.47-.21-.61-.17-.21-.4-.31-.67-.31-.25,0-.46.08-.63.25-.17.17-.26.39-.28.67Zm2.79.96l.54-.08c.03.22.11.38.25.5.14.12.33.17.58.17s.44-.05.56-.15c.12-.1.18-.22.18-.36,0-.12-.05-.22-.16-.29-.07-.05-.26-.11-.56-.18-.4-.1-.68-.19-.83-.26-.15-.07-.27-.18-.35-.31-.08-.13-.12-.27-.12-.43,0-.14.03-.28.1-.4.07-.12.15-.22.27-.3.08-.06.2-.12.35-.16.15-.04.3-.07.47-.07.25,0,.47.04.66.11s.33.17.42.3c.09.12.15.29.19.5l-.53.07c-.02-.17-.09-.29-.21-.39-.12-.09-.28-.14-.49-.14-.25,0-.43.04-.54.12-.11.08-.16.18-.16.29,0,.07.02.13.07.19.04.06.11.11.21.15.05.02.21.07.48.14.39.1.65.19.81.25.15.07.27.16.36.29.09.13.13.28.13.47s-.05.35-.16.51c-.11.16-.26.28-.46.37-.2.09-.43.13-.68.13-.42,0-.74-.09-.95-.26-.22-.17-.36-.43-.42-.77Z"/><polygon points="30.41 98.59 31.69 94 32.13 94 30.84 98.59 30.41 98.59"/><path d="m34.2,97.09l.55-.05c.03.22.09.4.18.55.1.14.24.26.45.35.2.09.43.13.68.13.22,0,.42-.03.59-.1.17-.07.3-.16.38-.27.08-.12.13-.24.13-.38s-.04-.26-.12-.36c-.08-.1-.21-.19-.4-.26-.12-.05-.38-.12-.79-.22-.41-.1-.69-.19-.86-.28-.21-.11-.37-.25-.47-.41-.1-.16-.16-.35-.16-.55,0-.22.06-.43.19-.63.13-.19.31-.34.56-.44.24-.1.52-.15.81-.15.33,0,.62.05.87.16.25.11.44.26.58.47.14.21.21.44.22.7l-.56.04c-.03-.28-.13-.49-.31-.64-.17-.14-.43-.21-.77-.21s-.61.07-.78.2c-.16.13-.24.29-.24.47,0,.16.06.29.17.39.11.1.41.21.89.32.48.11.8.2.98.28.26.12.45.27.57.45.12.18.18.39.18.63s-.07.46-.2.67c-.14.21-.33.37-.58.49-.25.12-.54.17-.86.17-.4,0-.74-.06-1.01-.18-.27-.12-.48-.29-.64-.53-.15-.24-.24-.5-.24-.8Zm6.4,1.43v-.47c-.25.36-.59.54-1.02.54-.19,0-.37-.04-.53-.11-.16-.07-.29-.16-.37-.27-.08-.11-.14-.24-.17-.4-.02-.11-.03-.28-.03-.51v-1.99h.54v1.78c0,.28.01.48.03.58.03.14.11.26.22.34.11.08.25.12.41.12s.32-.04.46-.13c.14-.08.24-.2.3-.34.06-.14.09-.35.09-.63v-1.72h.54v3.21h-.49Zm1.22.27l.53.08c.02.16.08.28.18.36.14.1.32.15.55.15.25,0,.45-.05.58-.15.14-.1.23-.24.28-.42.03-.11.04-.34.04-.7-.24.28-.53.42-.89.42-.44,0-.78-.16-1.03-.48-.24-.32-.36-.7-.36-1.15,0-.31.06-.59.17-.85.11-.26.27-.46.48-.6.21-.14.46-.21.74-.21.38,0,.69.15.94.46v-.39h.5v2.78c0,.5-.05.86-.15,1.06-.1.21-.26.37-.48.49-.22.12-.49.18-.82.18-.38,0-.69-.09-.93-.26-.24-.17-.35-.43-.34-.78Zm.45-1.93c0,.42.08.73.25.92.17.19.38.29.63.29s.46-.1.63-.29c.17-.19.25-.49.25-.91s-.09-.69-.26-.89c-.17-.2-.38-.3-.63-.3s-.45.1-.62.3c-.17.2-.25.49-.25.88Zm5.28,1.66c-.06-.11-.09-.25-.11-.4-.2.17-.4.29-.58.36-.19.07-.39.11-.6.11-.35,0-.62-.09-.81-.26-.19-.17-.28-.39-.28-.66,0-.16.04-.3.11-.43.07-.13.17-.23.28-.31.12-.08.25-.14.39-.18.11-.03.27-.06.48-.08.44-.05.76-.12.97-.19,0-.07,0-.12,0-.14,0-.22-.05-.38-.15-.47-.14-.12-.35-.18-.62-.18-.26,0-.45.04-.57.13-.12.09-.21.25-.27.48l-.53-.07c.05-.23.13-.41.24-.55.11-.14.27-.25.48-.32.21-.08.45-.11.73-.11s.5.03.67.1c.17.06.3.15.38.24.08.1.14.22.17.37.02.09.03.26.03.5v.73c0,.51.01.83.03.96.02.13.07.26.14.39h-.57Zm-.15-1.61c-.2.08-.49.15-.89.21-.22.03-.38.07-.48.11-.09.04-.16.1-.21.18-.05.08-.08.16-.08.26,0,.15.05.27.16.36.11.1.27.15.48.15s.4-.05.56-.14c.16-.09.28-.22.36-.38.06-.12.09-.3.09-.54v-.2Zm1.36,1.61v-3.21h.49v.49c.13-.23.24-.38.35-.45s.22-.11.35-.11c.18,0,.37.06.56.18l-.19.51c-.13-.08-.27-.12-.4-.12-.12,0-.23.04-.32.11-.09.07-.16.17-.2.3-.06.19-.09.41-.09.64v1.68h-.54Zm1.83-.96l.54-.08c.03.22.11.38.25.5.14.12.33.17.58.17s.44-.05.56-.15c.12-.1.18-.22.18-.36,0-.12-.05-.22-.16-.29-.07-.05-.26-.11-.56-.18-.4-.1-.68-.19-.83-.26-.15-.07-.27-.18-.35-.31-.08-.13-.12-.27-.12-.43,0-.14.03-.28.1-.4.07-.12.15-.22.27-.3.08-.06.2-.12.35-.16.15-.04.3-.07.47-.07.25,0,.47.04.66.11s.33.17.42.3c.09.12.15.29.19.5l-.53.07c-.02-.17-.09-.29-.21-.39-.12-.09-.28-.14-.49-.14-.25,0-.43.04-.54.12-.11.08-.16.18-.16.29,0,.07.02.13.07.19.04.06.11.11.21.15.05.02.21.07.48.14.39.1.65.19.81.25.15.07.27.16.36.29.09.13.13.28.13.47s-.05.35-.16.51c-.11.16-.26.28-.46.37-.2.09-.43.13-.68.13-.42,0-.74-.09-.95-.26-.22-.17-.36-.43-.42-.77Z"/><path d="m55.99,98.13c-.29-.37-.44-.97-.44-1.8,0-.52.05-.95.16-1.27.11-.32.27-.57.48-.74.21-.17.48-.26.8-.26.24,0,.45.05.63.14.18.1.33.23.44.41.12.18.21.4.28.66s.1.61.1,1.05c0,.52-.05.94-.16,1.26-.11.32-.27.57-.48.74-.21.17-.48.26-.81.26-.43,0-.76-.15-1.01-.46h0Zm.4-3.3c-.19.27-.28.77-.28,1.5s.09,1.21.26,1.45c.17.24.38.36.63.36s.46-.12.63-.36c.17-.24.26-.73.26-1.45s-.09-1.22-.26-1.46c-.17-.24-.38-.36-.64-.36s-.45.11-.6.32h0Z"/><path d="m60.78,98.78l.53.08c.02.16.08.28.18.36.14.1.32.15.55.15.25,0,.45-.05.58-.15.14-.1.23-.24.28-.42.03-.11.04-.34.04-.7-.24.28-.53.42-.89.42-.44,0-.78-.16-1.03-.48-.24-.32-.36-.7-.36-1.15,0-.31.06-.59.17-.85.11-.26.27-.46.48-.6.21-.14.46-.21.74-.21.38,0,.69.15.94.46v-.39h.5v2.78c0,.5-.05.86-.15,1.06-.1.21-.26.37-.48.49-.22.12-.49.18-.82.18-.38,0-.69-.09-.93-.26-.24-.17-.35-.43-.34-.78Zm.45-1.93c0,.42.08.73.25.92.17.19.38.29.63.29s.46-.1.63-.29c.17-.19.25-.49.25-.91s-.09-.69-.26-.89c-.17-.2-.38-.3-.63-.3s-.45.1-.62.3c-.17.2-.25.49-.25.88Z"/><path d="m108.83,98.13c-.29-.37-.44-.97-.44-1.8,0-.52.05-.95.16-1.27.11-.32.27-.57.48-.74.21-.17.48-.26.8-.26.24,0,.45.05.63.14.18.1.33.23.45.41.12.18.21.4.28.66.07.26.1.61.1,1.05,0,.52-.05.94-.16,1.26-.11.32-.27.57-.48.74-.21.17-.48.26-.81.26-.43,0-.76-.15-1.01-.46h0Zm.4-3.3c-.19.27-.28.77-.28,1.5s.09,1.21.26,1.45c.17.24.38.36.63.36s.46-.12.63-.36c.17-.24.26-.73.26-1.45s-.09-1.22-.26-1.46c-.17-.24-.38-.36-.64-.36s-.45.11-.6.32h0Zm4.44.31c0-.32.08-.59.24-.81.16-.22.39-.33.69-.33.28,0,.51.1.69.3.18.2.27.49.27.88s-.09.66-.28.87c-.18.2-.41.3-.68.3s-.49-.1-.67-.3c-.18-.2-.27-.5-.27-.91Zm.95-.77c-.14,0-.25.06-.34.18-.09.12-.13.33-.13.64,0,.28.05.48.14.6.09.12.2.17.34.17s.25-.06.34-.18c.09-.12.13-.33.13-.64,0-.29-.05-.49-.14-.6-.09-.12-.2-.17-.34-.17Zm0,4.3l2.43-4.68h.44l-2.42,4.68h-.45Zm1.92-1.2c0-.32.08-.59.24-.81.16-.22.39-.33.7-.33.28,0,.51.1.69.3.18.2.27.49.27.88s-.09.66-.28.87c-.18.2-.41.3-.69.3s-.49-.1-.67-.3-.27-.5-.27-.9Zm.95-.77c-.14,0-.25.06-.34.18-.09.12-.13.33-.13.64,0,.28.05.48.14.6.09.12.2.18.34.18s.25-.06.34-.18c.09-.12.13-.33.13-.64,0-.29-.05-.49-.14-.6-.09-.12-.2-.17-.34-.17Z"/><text class="cls-10" transform="translate(5.1 106.93)"><tspan class="cls-62" x="0" y="0">P</tspan><tspan class="cls-63" x="4.13" y="0">r</tspan><tspan class="cls-33" x="6.53" y="0">ot</tspan><tspan class="cls-63" x="12.37" y="0">é</tspan><tspan x="15.8" y="0">i</tspan></text><text class="cls-10" transform="translate(22.6 106.93)"><tspan class="cls-62" x="0" y="0">n</tspan><tspan class="cls-47" x="3.78" y="0">es</tspan><tspan x="10.65" y="0"> </tspan></text><text class="cls-10" transform="translate(35 106.93)"><tspan x="0" y="0">/</tspan></text><text class="cls-10" transform="translate(36.72 106.93)"><tspan x="0" y="0"> </tspan></text><text class="cls-10" transform="translate(38.52 106.93)"><tspan class="cls-62" x="0" y="0">P</tspan><tspan class="cls-63" x="4.13" y="0">r</tspan><tspan class="cls-33" x="6.53" y="0">ot</tspan><tspan class="cls-63" x="12.37" y="0">e</tspan><tspan x="15.8" y="0">i</tspan></text><text class="cls-10" transform="translate(56.01 106.93)"><tspan class="cls-62" x="0" y="0">n</tspan><tspan x="3.78" y="0"> </tspan></text><path d="m61.87,105.91l.52-.05c.04.25.13.42.25.54.13.11.29.17.48.17.17,0,.31-.04.44-.12.13-.08.23-.18.31-.31.08-.13.15-.3.2-.52.05-.22.08-.44.08-.67,0-.02,0-.06,0-.11-.11.17-.26.31-.45.42-.19.11-.39.16-.61.16-.37,0-.68-.13-.93-.4s-.38-.62-.38-1.05.13-.81.4-1.09c.27-.27.6-.41,1-.41.29,0,.55.08.79.23.24.16.42.38.54.66.12.29.19.7.19,1.25s-.06,1.02-.18,1.35c-.12.34-.31.59-.55.77-.24.18-.53.26-.86.26-.35,0-.63-.1-.85-.29-.22-.19-.35-.46-.4-.81Zm2.23-1.96c0-.31-.08-.56-.25-.74-.17-.18-.37-.28-.6-.28s-.45.1-.63.3c-.18.2-.27.45-.27.77,0,.28.09.51.26.69.17.18.38.26.63.26s.46-.09.62-.26c.16-.18.24-.42.24-.73Z"/><path d="m67.02,107.2l.53.08c.02.16.08.28.18.36.14.1.32.15.55.15.25,0,.45-.05.58-.15.14-.1.23-.24.28-.42.03-.11.04-.34.04-.7-.24.28-.53.42-.89.42-.44,0-.78-.16-1.03-.48-.24-.32-.36-.7-.36-1.15,0-.31.06-.59.17-.85.11-.26.27-.46.48-.6.21-.14.46-.21.74-.21.38,0,.69.15.94.46v-.39h.5v2.78c0,.5-.05.86-.15,1.06-.1.21-.26.37-.48.49-.22.12-.49.18-.82.18-.38,0-.69-.09-.93-.26-.24-.17-.35-.43-.34-.78Zm.45-1.93c0,.42.08.73.25.92.17.19.38.29.63.29s.46-.1.63-.29c.17-.19.25-.49.25-.91s-.09-.69-.26-.89c-.17-.2-.38-.3-.63-.3s-.45.1-.62.3c-.17.2-.25.49-.25.88Z"/><text class="cls-23" transform="translate(4.78 137.19)"><tspan class="cls-45" x="0" y="0">Potassiu</tspan><tspan x="23.57" y="0">m</tspan></text><path d="m38.38,133.84l-.54.04c-.05-.21-.12-.37-.21-.47-.15-.16-.33-.23-.54-.23-.17,0-.33.05-.46.15-.17.13-.31.31-.41.55-.1.24-.15.58-.15,1.03.13-.2.29-.35.48-.44.19-.1.39-.15.6-.15.36,0,.67.13.93.4.26.27.38.61.38,1.04,0,.28-.06.54-.18.78-.12.24-.29.42-.49.55-.21.13-.45.19-.71.19-.45,0-.82-.17-1.11-.5-.29-.33-.43-.88-.43-1.65,0-.86.16-1.48.48-1.87.28-.34.65-.51,1.12-.51.35,0,.64.1.86.29.22.2.36.47.4.81Zm-2.22,1.91c0,.19.04.37.12.54.08.17.19.3.33.39.14.09.29.13.45.13.23,0,.43-.09.59-.28.17-.19.25-.44.25-.76s-.08-.55-.25-.72c-.16-.18-.37-.26-.62-.26s-.46.09-.63.26c-.17.18-.26.41-.26.69Zm4.87,1.44h-.54v-3.47c-.13.13-.3.25-.52.38-.21.13-.4.22-.57.28v-.53c.3-.14.57-.32.8-.52.23-.2.39-.4.48-.59h.35v4.46Z"/><path d="m44.3,137.19v-3.21h.49v.45c.1-.16.24-.28.4-.38.17-.1.36-.14.57-.14.24,0,.43.05.59.15.15.1.26.24.32.41.25-.38.59-.56.99-.56.32,0,.56.09.74.26.17.18.26.45.26.82v2.21h-.54v-2.02c0-.22-.02-.37-.05-.47-.04-.1-.1-.17-.19-.23-.09-.06-.2-.09-.33-.09-.23,0-.41.08-.56.23-.15.15-.22.39-.22.72v1.87h-.54v-2.09c0-.24-.04-.42-.13-.54-.09-.12-.23-.18-.44-.18-.15,0-.3.04-.43.12-.13.08-.22.2-.28.35-.06.16-.09.38-.09.67v1.67h-.54Zm5.04.27l.53.08c.02.16.08.28.18.36.14.1.32.15.55.15.25,0,.45-.05.58-.15.14-.1.23-.24.28-.42.03-.11.04-.34.04-.7-.24.28-.53.42-.89.42-.44,0-.78-.16-1.03-.48-.24-.32-.36-.7-.36-1.15,0-.31.06-.59.17-.85.11-.26.27-.46.48-.6.21-.14.46-.21.74-.21.38,0,.69.15.94.46v-.39h.5v2.78c0,.5-.05.86-.15,1.06-.1.21-.26.37-.48.49-.22.12-.49.18-.82.18-.38,0-.69-.09-.93-.26-.24-.17-.35-.43-.34-.78Zm.45-1.93c0,.42.08.73.25.92.17.19.38.29.63.29s.46-.1.63-.29c.17-.19.25-.49.25-.91s-.09-.69-.26-.89c-.17-.2-.38-.3-.63-.3s-.45.1-.62.3c-.17.2-.25.49-.25.88Z"/><path d="m8.42,144.8l.59.15c-.12.48-.34.85-.66,1.1-.32.25-.71.38-1.17.38s-.87-.1-1.17-.29c-.3-.19-.53-.48-.68-.85-.16-.37-.23-.77-.23-1.19,0-.46.09-.87.26-1.21.18-.34.43-.61.75-.78.33-.18.68-.27,1.08-.27.44,0,.82.11,1.12.34.3.23.51.54.63.95l-.58.14c-.1-.32-.25-.56-.45-.71-.2-.15-.44-.22-.74-.22-.34,0-.63.08-.86.25-.23.16-.39.38-.48.66-.09.28-.14.56-.14.85,0,.38.05.71.16.99.11.28.28.49.51.63.23.14.48.21.75.21.33,0,.61-.09.84-.28.23-.19.38-.47.46-.84Zm3.42,1.56c-.06-.11-.09-.25-.11-.4-.2.17-.4.29-.58.36-.19.07-.39.11-.6.11-.35,0-.62-.09-.81-.26-.19-.17-.28-.39-.28-.66,0-.16.04-.3.11-.43.07-.13.17-.23.28-.31.12-.08.25-.14.39-.18.11-.03.27-.06.48-.08.44-.05.76-.12.97-.19,0-.07,0-.12,0-.14,0-.22-.05-.38-.15-.47-.14-.12-.35-.18-.62-.18-.26,0-.45.04-.57.13-.12.09-.21.25-.27.48l-.53-.07c.05-.23.13-.41.24-.55.11-.14.27-.25.48-.32.21-.08.45-.11.73-.11s.5.03.67.1c.17.06.3.15.38.24.08.1.14.22.17.37.02.09.03.26.03.5v.73c0,.51.01.83.03.96.02.13.07.26.14.39h-.57Zm-.15-1.61c-.2.08-.49.15-.89.21-.22.03-.38.07-.48.11-.09.04-.16.1-.21.18-.05.08-.08.16-.08.26,0,.15.05.27.16.36.11.1.27.15.48.15s.4-.05.56-.14c.16-.09.28-.22.36-.38.06-.12.09-.3.09-.54v-.2Zm1.36,1.61v-4.44h.54v4.44h-.54Zm3.46-1.18l.54.07c-.06.37-.21.66-.45.87-.24.21-.54.31-.89.31-.44,0-.79-.14-1.06-.43-.27-.29-.4-.7-.4-1.24,0-.35.06-.65.17-.91.12-.26.29-.46.53-.59.24-.13.49-.2.77-.2.35,0,.63.09.86.26.22.18.36.43.43.75l-.53.08c-.05-.22-.14-.38-.27-.49-.13-.11-.28-.16-.46-.16-.27,0-.5.1-.67.3-.17.2-.26.51-.26.93s.08.75.25.94c.17.2.38.29.65.29.21,0,.39-.07.54-.2.14-.13.23-.33.27-.61Zm.98-2.63v-.63h.54v.63h-.54Zm0,3.81v-3.21h.54v3.21h-.54Zm3.45,0v-.47c-.25.36-.59.54-1.02.54-.19,0-.37-.04-.53-.11-.16-.07-.29-.16-.37-.27-.08-.11-.14-.24-.17-.4-.02-.11-.03-.28-.03-.51v-1.99h.54v1.78c0,.28.01.48.03.58.03.14.11.26.22.34.11.08.25.12.41.12s.32-.04.46-.13c.14-.08.24-.2.3-.34.06-.14.09-.35.09-.63v-1.72h.54v3.21h-.49Zm1.31,0v-3.21h.49v.45c.1-.16.24-.28.4-.38.17-.1.36-.14.57-.14.24,0,.43.05.59.15.15.1.26.24.32.41.25-.38.59-.56.99-.56.32,0,.56.09.74.26.17.18.26.45.26.82v2.21h-.54v-2.02c0-.22-.02-.37-.05-.47-.04-.1-.1-.17-.19-.23-.09-.06-.2-.09-.33-.09-.23,0-.41.08-.56.23-.15.15-.22.39-.22.72v1.87h-.54v-2.09c0-.24-.04-.42-.13-.54-.09-.12-.23-.18-.44-.18-.15,0-.3.04-.43.12-.13.08-.22.2-.28.35-.06.16-.09.38-.09.67v1.67h-.54Z"/><path d="m32.01,145.83v.52h-2.93c0-.13.02-.26.06-.38.07-.2.19-.4.36-.59.16-.19.4-.42.71-.67.48-.4.81-.71.98-.94.17-.23.25-.45.25-.66s-.08-.4-.23-.55c-.15-.15-.36-.22-.6-.22-.26,0-.47.08-.63.24-.16.16-.24.38-.24.65l-.56-.06c.04-.42.18-.74.43-.95.25-.22.59-.33,1.01-.33s.76.12,1.01.35c.25.24.37.53.37.88,0,.18-.04.35-.11.52-.07.17-.19.35-.36.54-.17.19-.45.45-.84.78-.33.27-.54.46-.63.56-.09.1-.17.2-.23.3h2.18Zm.56-.65l.54-.07c.06.31.17.53.32.67.15.14.33.2.55.2.26,0,.47-.09.65-.27.18-.18.26-.4.26-.66s-.08-.46-.25-.62c-.16-.16-.37-.24-.62-.24-.1,0-.23.02-.38.06l.06-.48s.07,0,.09,0c.23,0,.44-.06.63-.18.19-.12.28-.31.28-.56,0-.2-.07-.37-.2-.5-.14-.13-.31-.2-.52-.2s-.39.07-.53.2c-.14.13-.23.33-.27.6l-.54-.1c.07-.37.22-.65.45-.85.24-.2.53-.3.88-.3.24,0,.47.05.67.16.2.1.36.25.47.43.11.18.16.37.16.57s-.05.37-.15.52c-.1.16-.26.28-.46.38.26.06.47.19.61.38.15.19.22.43.22.72,0,.39-.14.72-.42.99-.28.27-.64.4-1.07.4-.39,0-.71-.12-.97-.35-.26-.23-.4-.53-.44-.9Z"/><path d="m37.9,146.36v-3.21h.49v.45c.1-.16.24-.28.4-.38.17-.1.36-.14.57-.14.24,0,.43.05.59.15.15.1.26.24.32.41.25-.38.59-.56.99-.56.32,0,.56.09.74.26.17.18.26.45.26.82v2.21h-.54v-2.02c0-.22-.02-.37-.05-.47-.04-.1-.1-.17-.19-.23-.09-.06-.2-.09-.33-.09-.23,0-.41.08-.56.23-.15.15-.22.39-.22.72v1.87h-.54v-2.09c0-.24-.04-.42-.13-.54-.09-.12-.23-.18-.44-.18-.15,0-.3.04-.43.12-.13.08-.22.2-.28.35-.06.16-.09.38-.09.67v1.67h-.54Zm5.04.27l.53.08c.02.16.08.28.18.36.14.1.32.15.55.15.25,0,.45-.05.58-.15.14-.1.23-.24.28-.42.03-.11.04-.34.04-.7-.24.28-.53.42-.89.42-.44,0-.78-.16-1.03-.48-.24-.32-.36-.7-.36-1.15,0-.31.06-.59.17-.85.11-.26.27-.46.48-.6.21-.14.46-.21.74-.21.38,0,.69.15.94.46v-.39h.5v2.78c0,.5-.05.86-.15,1.06-.1.21-.26.37-.48.49-.22.12-.49.18-.82.18-.38,0-.69-.09-.93-.26-.24-.17-.35-.43-.34-.78Zm.45-1.93c0,.42.08.73.25.92.17.19.38.29.63.29s.46-.1.63-.29c.17-.19.25-.49.25-.91s-.09-.69-.26-.89c-.17-.2-.38-.3-.63-.3s-.45.1-.62.3c-.17.2-.25.49-.25.88Z"/><path d="m5.29,155.89v-4.44h2.99v.52h-2.41v1.37h2.08v.52h-2.08v2.02h-.59Zm5.93-1.04l.56.07c-.09.33-.25.58-.49.77-.24.18-.55.27-.92.27-.47,0-.84-.14-1.12-.43-.28-.29-.41-.7-.41-1.22s.14-.96.42-1.26c.28-.3.64-.45,1.08-.45s.78.15,1.05.44c.27.29.41.7.41,1.23,0,.03,0,.08,0,.15h-2.4c.02.35.12.62.3.81.18.19.4.28.67.28.2,0,.37-.05.51-.16.14-.1.25-.27.34-.5Zm-1.79-.88h1.79c-.02-.27-.09-.47-.21-.61-.17-.21-.4-.31-.67-.31-.25,0-.46.08-.63.25-.17.17-.26.39-.28.67Zm3.07,1.92v-3.21h.49v.49c.13-.23.24-.38.35-.45.11-.07.22-.11.35-.11.18,0,.37.06.56.18l-.19.51c-.13-.08-.27-.12-.4-.12-.12,0-.23.04-.32.11-.09.07-.16.17-.2.3-.06.19-.09.41-.09.64v1.68h-.54Z"/><path d="m15.89,155.96l1.29-4.59h.44l-1.28,4.59h-.44Zm4.1-.08v-4.44h.59v4.44h-.59Zm1.58,0v-3.21h.49v.49c.13-.23.24-.38.35-.45.11-.07.22-.11.35-.11.18,0,.37.06.56.18l-.19.51c-.13-.08-.27-.12-.4-.12-.12,0-.23.04-.32.11-.09.07-.16.17-.2.3-.06.19-.09.41-.09.64v1.68h-.54Zm1.9-1.61c0-.6.17-1.04.5-1.32.28-.24.61-.36,1.01-.36.44,0,.8.14,1.08.43.28.29.42.69.42,1.2,0,.41-.06.74-.19.98-.12.24-.3.42-.54.55-.24.13-.5.2-.78.2-.45,0-.81-.14-1.09-.43-.28-.29-.42-.7-.42-1.25Zm.56,0c0,.41.09.72.27.92.18.2.41.31.68.31s.5-.1.67-.31c.18-.21.27-.52.27-.94,0-.4-.09-.7-.27-.9-.18-.2-.41-.31-.67-.31s-.5.1-.68.31c-.18.2-.27.51-.27.92Zm3.13,1.61v-3.21h.49v.46c.24-.35.58-.53,1.02-.53.19,0,.37.03.53.1.16.07.28.16.36.27.08.11.14.25.17.4.02.1.03.28.03.53v1.98h-.54v-1.96c0-.22-.02-.39-.06-.5-.04-.11-.12-.2-.23-.26-.11-.07-.23-.1-.38-.1-.23,0-.43.07-.6.22-.17.15-.25.43-.25.84v1.76h-.54Z"/><path d="m32.19,154.71l.54-.07c.06.31.17.53.32.67.15.14.33.2.55.2.26,0,.47-.09.65-.27.18-.18.26-.4.26-.66s-.08-.46-.25-.62c-.16-.16-.37-.24-.62-.24-.1,0-.23.02-.38.06l.06-.48s.07,0,.09,0c.23,0,.44-.06.63-.18.19-.12.28-.31.28-.56,0-.2-.07-.37-.2-.5-.14-.13-.31-.2-.52-.2s-.39.07-.53.2c-.14.13-.23.33-.27.6l-.54-.1c.07-.37.22-.65.45-.85.24-.2.53-.3.88-.3.24,0,.47.05.67.16.2.1.36.25.47.43.11.18.16.37.16.57s-.05.37-.15.52c-.1.16-.26.28-.46.38.26.06.47.19.61.38.15.19.22.43.22.72,0,.39-.14.72-.42.99-.28.27-.64.4-1.07.4-.39,0-.71-.12-.97-.35-.26-.23-.4-.53-.44-.9Z"/><path d="m37.52,155.89v-3.21h.49v.45c.1-.16.24-.28.4-.38.17-.1.36-.14.57-.14.24,0,.43.05.59.15.15.1.26.24.32.41.25-.38.59-.56.99-.56.32,0,.56.09.74.26.17.18.26.45.26.82v2.21h-.54v-2.02c0-.22-.02-.37-.05-.47-.04-.1-.1-.17-.19-.23-.09-.06-.2-.09-.33-.09-.23,0-.41.08-.56.23-.15.15-.22.39-.22.72v1.87h-.54v-2.09c0-.24-.04-.42-.13-.54-.09-.12-.23-.18-.44-.18-.15,0-.3.04-.43.12-.13.08-.22.2-.28.35-.06.16-.09.38-.09.67v1.67h-.54Zm5.1.27l.53.08c.02.16.08.28.18.36.14.1.32.15.55.15.25,0,.45-.05.58-.15.14-.1.23-.24.28-.42.03-.11.04-.34.04-.7-.24.28-.53.42-.89.42-.44,0-.78-.16-1.03-.48-.24-.32-.36-.7-.36-1.15,0-.31.06-.59.17-.85.11-.26.27-.46.48-.6.21-.14.46-.21.74-.21.38,0,.69.15.94.46v-.39h.5v2.78c0,.5-.05.86-.15,1.06-.1.21-.26.37-.48.49-.22.12-.49.18-.82.18-.38,0-.69-.09-.93-.26-.24-.17-.35-.43-.34-.78Zm.45-1.93c0,.42.08.73.25.92.17.19.38.29.63.29s.46-.1.63-.29c.17-.19.25-.49.25-.91s-.09-.69-.26-.89c-.17-.2-.38-.3-.63-.3s-.45.1-.62.3c-.17.2-.25.49-.25.88Z"/><path d="m111.25,145.83v.52h-2.93c0-.13.02-.26.06-.38.07-.2.19-.4.36-.59.16-.19.4-.42.71-.67.48-.4.81-.71.98-.94.17-.23.25-.45.25-.66s-.08-.4-.23-.55c-.15-.15-.36-.22-.6-.22-.26,0-.47.08-.63.24s-.24.38-.24.65l-.56-.06c.04-.42.18-.74.43-.95.25-.22.59-.33,1.01-.33s.76.12,1.01.35c.25.24.37.53.37.88,0,.18-.04.35-.11.52-.07.17-.19.35-.36.54-.17.19-.45.45-.84.78-.33.27-.54.46-.63.56-.09.1-.17.2-.23.3h2.18Z"/><path d="m113.67,142.99c0-.32.08-.59.24-.81.16-.22.39-.33.69-.33.28,0,.51.1.69.3.18.2.27.49.27.88s-.09.66-.28.87c-.18.2-.41.3-.68.3s-.49-.1-.67-.3-.27-.5-.27-.91Zm.95-.77c-.14,0-.25.06-.34.18-.09.12-.13.33-.13.64,0,.28.05.48.14.6.09.12.2.17.34.17s.25-.06.34-.18c.09-.12.13-.33.13-.64,0-.29-.05-.49-.14-.6-.09-.12-.2-.17-.34-.17Zm0,4.3l2.43-4.68h.44l-2.42,4.68h-.45Zm1.92-1.2c0-.32.08-.59.24-.81.16-.22.39-.33.7-.33.28,0,.51.1.69.3.18.2.27.49.27.88s-.09.66-.28.87c-.18.2-.41.3-.69.3s-.49-.1-.67-.3-.27-.5-.27-.9Zm.95-.77c-.14,0-.25.06-.34.18-.09.12-.13.33-.13.64,0,.28.05.48.14.6.09.12.2.18.34.18s.25-.06.34-.18c.09-.12.13-.33.13-.64,0-.29-.05-.49-.14-.6-.09-.12-.2-.17-.34-.17Z"/><path d="m107.83,155.36v.52h-2.93c0-.13.02-.26.06-.38.07-.2.19-.4.36-.59.16-.19.4-.42.71-.67.48-.4.81-.71.98-.94.17-.23.25-.45.25-.66s-.08-.4-.23-.55c-.15-.15-.36-.22-.6-.22-.26,0-.47.08-.63.24-.16.16-.24.38-.24.65l-.56-.06c.04-.42.18-.74.43-.95.25-.22.59-.33,1.01-.33s.76.12,1.01.35c.25.24.37.53.37.88,0,.18-.04.35-.11.52-.07.17-.19.35-.36.54-.17.19-.45.45-.84.78-.33.27-.54.46-.63.56-.09.1-.17.2-.23.3h2.18Zm2.61.52h-.54v-3.47c-.13.13-.3.25-.52.38-.21.13-.4.22-.57.28v-.53c.3-.14.57-.32.8-.52.23-.2.39-.4.48-.59h.35v4.46Z"/><path d="m113.67,152.51c0-.32.08-.59.24-.81.16-.22.39-.33.69-.33.28,0,.51.1.69.3.18.2.27.49.27.88s-.09.66-.28.87c-.18.2-.41.3-.68.3s-.49-.1-.67-.3-.27-.5-.27-.91Zm.95-.77c-.14,0-.25.06-.34.18-.09.12-.13.33-.13.64,0,.28.05.48.14.6.09.12.2.17.34.17s.25-.06.34-.18c.09-.12.13-.33.13-.64,0-.29-.05-.49-.14-.6-.09-.12-.2-.17-.34-.17Zm0,4.3l2.43-4.68h.44l-2.42,4.68h-.45Zm1.92-1.2c0-.32.08-.59.24-.81.16-.22.39-.33.7-.33.28,0,.51.1.69.3.18.2.27.49.27.88s-.09.66-.28.87c-.18.2-.41.3-.69.3s-.49-.1-.67-.3-.27-.5-.27-.9Zm.95-.77c-.14,0-.25.06-.34.18-.09.12-.13.33-.13.64,0,.28.05.48.14.6.09.12.2.18.34.18s.25-.06.34-.18c.09-.12.13-.33.13-.64,0-.29-.05-.49-.14-.6-.09-.12-.2-.17-.34-.17Z"/><text class="cls-11" transform="translate(4.78 116.75)"><tspan class="cls-64" x="0" y="0">C</tspan><tspan class="cls-34" x="4.46" y="0">ho</tspan><tspan class="cls-66" x="12.03" y="0">l</tspan><tspan class="cls-48" x="13.78" y="0">estér</tspan><tspan class="cls-34" x="28.54" y="0">o</tspan><tspan class="cls-50" x="32.32" y="0">l / </tspan><tspan class="cls-15" x="39.33" y="0">C</tspan><tspan class="cls-34" x="43.78" y="0">ho</tspan><tspan class="cls-50" x="51.34" y="0">l</tspan><tspan class="cls-64" x="53.09" y="0">ester</tspan><tspan class="cls-34" x="67.85" y="0">o</tspan><tspan class="cls-50" x="71.63" y="0">l</tspan><tspan x="73.38" y="0"> </tspan></text><path d="m80.61,116.37c-.29-.37-.44-.97-.44-1.8,0-.52.05-.95.16-1.27.11-.32.27-.57.48-.74.21-.17.48-.26.8-.26.24,0,.45.05.63.14.18.1.33.23.44.41.12.18.21.4.28.66.07.26.1.61.1,1.05,0,.52-.05.94-.16,1.26-.11.32-.27.57-.48.74-.21.17-.48.26-.81.26-.43,0-.76-.15-1.01-.46h0Zm.4-3.3c-.19.27-.28.77-.28,1.5s.09,1.21.26,1.45c.17.24.38.36.63.36s.46-.12.63-.36c.17-.24.26-.73.26-1.45s-.09-1.22-.26-1.46c-.17-.24-.38-.36-.64-.36s-.45.11-.6.32h0Zm4.49,3.69v-3.21h.49v.45c.1-.16.24-.28.4-.38.17-.1.36-.14.57-.14.24,0,.43.05.59.15.15.1.26.24.32.41.25-.38.59-.56.99-.56.32,0,.56.09.74.26.17.18.26.45.26.82v2.21h-.54v-2.03c0-.22-.02-.37-.05-.47-.04-.1-.1-.17-.19-.23-.09-.06-.2-.09-.33-.09-.23,0-.41.08-.56.23-.15.15-.22.39-.22.72v1.87h-.54v-2.09c0-.24-.04-.42-.13-.54-.09-.12-.23-.18-.44-.18-.15,0-.3.04-.43.12-.13.08-.22.2-.28.35-.06.16-.09.38-.09.67v1.67h-.54Zm5.17.27l.53.08c.02.16.08.28.18.36.14.1.32.15.55.15.25,0,.45-.05.58-.15.14-.1.23-.24.28-.42.03-.11.04-.34.04-.7-.24.28-.53.42-.89.42-.44,0-.78-.16-1.03-.48-.24-.32-.36-.7-.36-1.15,0-.31.06-.59.17-.85.11-.26.27-.46.48-.6.21-.14.46-.21.74-.21.38,0,.69.15.94.46v-.39h.5v2.78c0,.5-.05.86-.15,1.06-.1.21-.26.37-.48.49-.22.12-.49.18-.82.18-.38,0-.69-.09-.93-.26-.24-.17-.35-.43-.34-.78Zm.45-1.93c0,.42.08.73.25.92.17.19.38.29.63.29s.46-.1.63-.29c.17-.19.25-.49.25-.91s-.09-.69-.26-.89c-.17-.2-.38-.3-.63-.3s-.45.1-.62.3c-.17.2-.25.49-.25.88Z"/><text class="cls-10" transform="translate(4.67 126.18)"><tspan class="cls-52" x="0" y="0">Sodiu</tspan><tspan class="cls-68" x="17.31" y="0">m</tspan></text><text class="cls-10" transform="translate(27.52 126.18)"><tspan x="0" y="0"> </tspan></text><path d="m31.3,126.18v-1.06h-1.93v-.5l2.02-2.88h.44v2.88h.6v.5h-.6v1.06h-.54Zm0-1.56v-2l-1.39,2h1.39Zm3.73,1.56h-.54v-3.47c-.13.13-.3.25-.52.38-.21.13-.4.22-.57.28v-.53c.3-.14.57-.32.8-.52.23-.2.39-.4.48-.59h.35v4.46Zm1.45-1.03l.52-.05c.04.25.13.42.25.54.13.11.29.17.48.17.17,0,.31-.04.44-.12.13-.08.23-.18.31-.31.08-.13.15-.3.2-.52.05-.22.08-.44.08-.67,0-.02,0-.06,0-.11-.11.17-.26.31-.45.42-.19.11-.39.16-.61.16-.37,0-.68-.13-.93-.4s-.38-.62-.38-1.05.13-.81.4-1.09c.27-.27.6-.41,1-.41.29,0,.55.08.79.23.24.16.42.38.54.66.12.29.19.7.19,1.25s-.06,1.02-.18,1.35c-.12.34-.31.59-.55.77-.24.18-.53.26-.86.26-.35,0-.63-.1-.85-.29-.22-.19-.35-.46-.4-.81Zm2.23-1.96c0-.31-.08-.56-.25-.74-.17-.18-.37-.28-.6-.28s-.45.1-.63.3c-.18.2-.27.45-.27.77,0,.28.09.51.26.69.17.18.38.26.63.26s.46-.09.62-.26c.16-.18.24-.42.24-.73Z"/><path d="m41.73,126.18v-3.21h.49v.45c.1-.16.24-.28.4-.38.17-.1.36-.14.57-.14.24,0,.43.05.59.15.15.1.26.24.32.41.25-.38.59-.56.99-.56.32,0,.56.09.74.26.17.18.26.45.26.82v2.21h-.54v-2.02c0-.22-.02-.37-.05-.47-.04-.1-.1-.17-.19-.23-.09-.06-.2-.09-.33-.09-.23,0-.41.08-.56.23-.15.15-.22.39-.22.72v1.87h-.54v-2.09c0-.24-.04-.42-.13-.54-.09-.12-.23-.18-.44-.18-.15,0-.3.04-.43.12-.13.08-.22.2-.28.35-.06.16-.09.38-.09.67v1.67h-.54Zm5.04.27l.53.08c.02.16.08.28.18.36.14.1.32.15.55.15.25,0,.45-.05.58-.15.14-.1.23-.24.28-.42.03-.11.04-.34.04-.7-.24.28-.53.42-.89.42-.44,0-.78-.16-1.03-.48-.24-.32-.36-.7-.36-1.15,0-.31.06-.59.17-.85.11-.26.27-.46.48-.6.21-.14.46-.21.74-.21.38,0,.69.15.94.46v-.39h.5v2.78c0,.5-.05.86-.15,1.06-.1.21-.26.37-.48.49-.22.12-.49.18-.82.18-.38,0-.69-.09-.93-.26-.24-.17-.35-.43-.34-.78Zm.45-1.93c0,.42.08.73.25.92.17.19.38.29.63.29s.46-.1.63-.29c.17-.19.25-.49.25-.91s-.09-.69-.26-.89c-.17-.2-.38-.3-.63-.3s-.45.1-.62.3c-.17.2-.25.49-.25.88Z"/><path d="m108.43,132.97v-.52h2.87v.42c-.28.3-.56.7-.84,1.2-.28.5-.49,1.01-.64,1.54-.11.37-.18.78-.21,1.22h-.56c0-.35.07-.77.21-1.27.13-.49.32-.97.56-1.43.25-.46.51-.85.78-1.16h-2.17Z"/><path d="m113.67,133.46c0-.32.08-.59.24-.81.16-.22.39-.33.69-.33.28,0,.51.1.69.3.18.2.27.49.27.88s-.09.66-.28.87c-.18.2-.41.3-.68.3s-.49-.1-.67-.3-.27-.5-.27-.91Zm.95-.77c-.14,0-.25.06-.34.18-.09.12-.13.33-.13.64,0,.28.05.48.14.6.09.12.2.17.34.17s.25-.06.34-.18c.09-.12.13-.33.13-.64,0-.29-.05-.49-.14-.6-.09-.12-.2-.17-.34-.17Zm0,4.3l2.43-4.68h.44l-2.42,4.68h-.45Zm1.92-1.2c0-.32.08-.59.24-.81.16-.22.39-.33.7-.33.28,0,.51.1.69.3.18.2.27.49.27.88s-.09.66-.28.87c-.18.2-.41.3-.69.3s-.49-.1-.67-.3-.27-.5-.27-.9Zm.95-.77c-.14,0-.25.06-.34.18-.09.12-.13.33-.13.64,0,.28.05.48.14.6.09.12.2.18.34.18s.25-.06.34-.18c.09-.12.13-.33.13-.64,0-.29-.05-.49-.14-.6-.09-.12-.2-.17-.34-.17Z"/><path d="m107.13,126.43h-.54v-3.47c-.13.13-.3.25-.52.38-.21.13-.4.22-.57.28v-.53c.3-.14.57-.32.8-.52.23-.2.39-.4.48-.59h.35v4.46Z"/><path d="m108.53,122.57v-.52h2.87v.42c-.28.3-.56.7-.84,1.2-.28.5-.49,1.01-.64,1.54-.11.37-.18.78-.21,1.22h-.56c0-.35.07-.77.21-1.27.13-.49.32-.97.56-1.43.25-.46.51-.85.78-1.16h-2.17Z"/><path d="m113.78,123.06c0-.32.08-.59.24-.81.16-.22.39-.33.69-.33.28,0,.51.1.69.3.18.2.27.49.27.88s-.09.66-.28.87c-.18.2-.41.3-.68.3s-.49-.1-.67-.3-.27-.5-.27-.91Zm.95-.77c-.14,0-.25.06-.34.18-.09.12-.13.33-.13.64,0,.28.05.48.14.6.09.12.2.17.34.17s.25-.06.34-.18c.09-.12.13-.33.13-.64,0-.29-.05-.49-.14-.6-.09-.12-.2-.17-.34-.17Zm0,4.3l2.43-4.68h.44l-2.42,4.68h-.45Zm1.92-1.2c0-.32.08-.59.24-.81.16-.22.39-.33.7-.33.28,0,.51.1.69.3.18.2.27.49.27.88s-.09.66-.28.87c-.18.2-.41.3-.69.3s-.49-.1-.67-.3-.27-.5-.27-.9Zm.95-.77c-.14,0-.25.06-.34.18-.09.12-.13.33-.13.64,0,.28.05.48.14.6.09.12.2.18.34.18s.25-.06.34-.18c.09-.12.13-.33.13-.64,0-.29-.05-.49-.14-.6-.09-.12-.2-.17-.34-.17Z"/><text class="cls-7" transform="translate(4.78 165.23)"><tspan class="cls-53" x="0" y="0">*</tspan><tspan class="cls-40" x="1.49" y="0">5</tspan><tspan class="cls-13" x="3.52" y="0">%</tspan><tspan class="cls-44" x="7.13" y="0"> </tspan><tspan class="cls-18" x="8.15" y="0">ou</tspan><tspan class="cls-49" x="12.39" y="0"> </tspan><tspan class="cls-4" x="13.41" y="0">m</tspan><tspan class="cls-53" x="16.55" y="0">o</tspan><tspan class="cls-28" x="18.68" y="0">i</tspan><tspan class="cls-30" x="19.51" y="0">n</tspan><tspan class="cls-51" x="21.63" y="0">s</tspan><tspan class="cls-49" x="23.57" y="0"> </tspan><tspan class="cls-56" x="24.59" y="0">c</tspan><tspan class="cls-61" x="26.62" y="0">’</tspan><tspan class="cls-18" x="27.45" y="0">e</tspan><tspan class="cls-24" x="29.57" y="0">s</tspan><tspan class="cls-44" x="31.51" y="0">t</tspan><tspan x="32.53" y="0"> </tspan></text><text class="cls-6" transform="translate(38.37 165.23)"><tspan x="0" y="0">peu</tspan></text><text class="cls-7" transform="translate(45.12 165.23)"><tspan class="cls-44" x="0" y="0">, </tspan><tspan class="cls-30" x="2.04" y="0">1</tspan><tspan class="cls-41" x="4.16" y="0">5</tspan><tspan class="cls-3" x="6.2" y="0">%</tspan><tspan class="cls-55" x="9.8" y="0"> </tspan><tspan class="cls-30" x="10.82" y="0">ou</tspan><tspan class="cls-49" x="15.07" y="0"> </tspan><tspan class="cls-30" x="16.09" y="0">p</tspan><tspan class="cls-61" x="18.21" y="0">l</tspan><tspan class="cls-30" x="19.04" y="0">u</tspan><tspan class="cls-51" x="21.17" y="0">s</tspan><tspan class="cls-49" x="23.11" y="0"> </tspan><tspan class="cls-51" x="24.13" y="0">c</tspan><tspan class="cls-36" x="26.06" y="0">’</tspan><tspan class="cls-53" x="26.99" y="0">e</tspan><tspan class="cls-24" x="29.11" y="0">s</tspan><tspan class="cls-55" x="31.05" y="0">t</tspan><tspan class="cls-32" x="32.07" y="0"> </tspan></text><text class="cls-6" transform="translate(78.15 165.23)"><tspan x="0" y="0">beaucoup</tspan></text><text class="cls-7" transform="translate(4.78 170.69)"><tspan x="0" y="0">*</tspan><tspan class="cls-41" x="1.48" y="0">5</tspan><tspan class="cls-3" x="3.51" y="0">%</tspan><tspan class="cls-44" x="7.12" y="0"> </tspan><tspan class="cls-53" x="8.14" y="0">o</tspan><tspan class="cls-54" x="10.26" y="0">r</tspan><tspan class="cls-55" x="11.56" y="0"> </tspan><tspan class="cls-60" x="12.57" y="0">l</tspan><tspan class="cls-18" x="13.41" y="0">e</tspan><tspan class="cls-16" x="15.53" y="0">ss</tspan><tspan class="cls-20" x="19.4" y="0"> </tspan><tspan class="cls-61" x="20.41" y="0">i</tspan><tspan class="cls-54" x="21.25" y="0">s</tspan><tspan class="cls-42" x="23.18" y="0"> </tspan></text><text class="cls-8" transform="translate(29.11 170.69)"><tspan class="cls-53" x="0" y="0">a</tspan><tspan class="cls-44" x="2.12" y="0" xml:space="preserve"> li</tspan><tspan class="cls-19" x="5.18" y="0">tt</tspan><tspan class="cls-44" x="7.77" y="0">l</tspan><tspan x="8.79" y="0">e</tspan></text><text class="cls-7" transform="translate(40.03 170.69)"><tspan class="cls-44" x="0" y="0">, </tspan><tspan class="cls-17" x="2.04" y="0">1</tspan><tspan class="cls-40" x="4.16" y="0">5</tspan><tspan class="cls-13" x="6.2" y="0">%</tspan><tspan class="cls-44" x="9.81" y="0"> </tspan><tspan class="cls-17" x="10.83" y="0">or</tspan><tspan class="cls-44" x="14.24" y="0"> </tspan><tspan class="cls-28" x="15.25" y="0">m</tspan><tspan class="cls-30" x="18.4" y="0">o</tspan><tspan class="cls-65" x="20.52" y="0">re</tspan><tspan class="cls-49" x="23.94" y="0"> </tspan><tspan class="cls-61" x="24.96" y="0">i</tspan><tspan class="cls-24" x="25.79" y="0">s</tspan><tspan x="27.73" y="0"> </tspan></text><text class="cls-8" transform="translate(68.9 170.69)"><tspan class="cls-65" x="0" y="0">a</tspan><tspan class="cls-44" x="2.13" y="0" xml:space="preserve"> l</tspan><tspan class="cls-26" x="4.17" y="0">ot</tspan></text></svg>