<?xml version="1.0" encoding="UTF-8"?><svg id="Layer_1" xmlns="http://www.w3.org/2000/svg" xmlns:xlink="http://www.w3.org/1999/xlink" viewBox="0 0 154.44 225.48"><defs><style>.cls-1,.cls-2,.cls-3,.cls-4,.cls-5{font-weight:700;}.cls-1,.cls-6,.cls-7{font-size:8.04px;}.cls-1,.cls-3,.cls-4,.cls-5{font-family:Arial-BoldMT, Arial;}.cls-8{fill:none;}.cls-9{letter-spacing:0em;}.cls-10{letter-spacing:-.01em;}.cls-11{letter-spacing:-.04em;}.cls-12{letter-spacing:.05em;}.cls-13{clip-path:url(#clippath);}.cls-14{letter-spacing:.05em;}.cls-15{letter-spacing:0em;}.cls-16{letter-spacing:0em;}.cls-17{letter-spacing:0em;}.cls-18{letter-spacing:0em;}.cls-19{letter-spacing:0em;}.cls-20{letter-spacing:0em;}.cls-21{letter-spacing:0em;}.cls-22{letter-spacing:0em;}.cls-23{letter-spacing:0em;}.cls-24{letter-spacing:.02em;}.cls-25{letter-spacing:-.05em;}.cls-26{letter-spacing:-.05em;}.cls-27{letter-spacing:0em;}.cls-28{letter-spacing:0em;}.cls-29{letter-spacing:0em;}.cls-30{letter-spacing:8.37em;}.cls-31{letter-spacing:0em;}.cls-32{letter-spacing:0em;}.cls-2{font-family:ArialNarrow-Bold, 'Arial Narrow';}.cls-2,.cls-33,.cls-4{font-size:6px;}.cls-34{letter-spacing:0em;}.cls-33{font-family:ArialNarrow, 'Arial Narrow';}.cls-35{letter-spacing:-.02em;}.cls-6,.cls-36{font-family:ArialMT, Arial;}.cls-37{letter-spacing:-.05em;}.cls-7{font-family:HelveticaLTStd-Roman, 'Helvetica LT Std';}.cls-38{letter-spacing:.02em;}.cls-39{letter-spacing:.02em;}.cls-40{letter-spacing:0em;}.cls-41{letter-spacing:0em;}.cls-42{letter-spacing:-.02em;}.cls-43{letter-spacing:0em;}.cls-44{letter-spacing:0em;}.cls-45{letter-spacing:0em;}.cls-46{letter-spacing:0em;}.cls-47{letter-spacing:.02em;}.cls-48{letter-spacing:-.03em;}.cls-49{letter-spacing:0em;}.cls-50{letter-spacing:-.02em;}.cls-51{letter-spacing:0em;}.cls-3{font-size:12.96px;}.cls-52{letter-spacing:0em;}.cls-53{letter-spacing:0em;}.cls-54{letter-spacing:0em;}.cls-55{letter-spacing:0em;}.cls-56{letter-spacing:0em;}.cls-57{letter-spacing:0em;}.cls-58{letter-spacing:0em;}.cls-59{letter-spacing:0em;}.cls-60{letter-spacing:0em;}.cls-61{letter-spacing:.03em;}.cls-62{letter-spacing:7.13em;}.cls-63{letter-spacing:-.07em;}.cls-64{letter-spacing:0em;}.cls-5{font-size:9.96px;}.cls-65{letter-spacing:0em;}.cls-66{letter-spacing:0em;}.cls-67{letter-spacing:0em;}.cls-68{letter-spacing:0em;}.cls-69{letter-spacing:0em;}.cls-36{font-size:9px;}.cls-70{letter-spacing:0em;}.cls-71{letter-spacing:0em;}.cls-72{letter-spacing:0em;}.cls-73{letter-spacing:0em;}.cls-74{letter-spacing:0em;}.cls-75{letter-spacing:0em;}</style><clipPath id="clippath"><rect class="cls-8" x="40.2" y="101.16" width="4.56" height="9.24"/></clipPath></defs><rect width="154.44" height=".96"/><rect x="153.48" y="0" width=".96" height="225.48"/><rect y="224.52" width="154.44" height=".96"/><rect y="0" width=".96" height="225.48"/><rect x="3.96" y="51.96" width="147.96" height=".96"/><rect x="3.96" y="65.4" width="65.28" height="2.52"/><rect x="3.96" y="99.48" width="147.96" height=".96"/><rect x="3.96" y="165.96" width="147.96" height="2.52"/><rect x="3.96" y="179.88" width="147.96" height=".96"/><rect x="3.96" y="192" width="147.96" height=".96"/><rect x="3.96" y="153.6" width="147.96" height=".96"/><rect x="3.96" y="140.88" width="147.96" height=".96"/><rect x="3.96" y="129" width="147.96" height=".96"/><rect x="3.96" y="204.24" width="147.96" height="2.52"/><text class="cls-3" transform="translate(2.88 14.04)"><tspan class="cls-37" x="0" y="0">V</tspan><tspan x="7.93" y="0">aleur nutriti</tspan><tspan class="cls-35" x="79.22" y="0">v</tspan><tspan x="86.18" y="0">e</tspan></text><text class="cls-3" transform="translate(2.88 27.84)"><tspan x="0" y="0">Nutrition Facts</tspan></text><text class="cls-36" transform="translate(2.88 39.12)"><tspan class="cls-56" x="0" y="0">pour 2 tranches (66 g</tspan><tspan x="86.12" y="0">)</tspan></text><text class="cls-4" transform="translate(87.96 60.72)"><tspan class="cls-26" x="0" y="0">%</tspan><tspan class="cls-66" x="5.04" y="0"> </tspan><tspan class="cls-50" x="6.72" y="0">v</tspan><tspan class="cls-31" x="9.96" y="0">a</tspan><tspan class="cls-66" x="13.32" y="0">l</tspan><tspan class="cls-31" x="14.99" y="0">e</tspan><tspan class="cls-10" x="18.35" y="0">ur</tspan><tspan class="cls-41" x="24.23" y="0"> </tspan><tspan class="cls-28" x="25.91" y="0">q</tspan><tspan class="cls-10" x="29.63" y="0">u</tspan><tspan class="cls-55" x="33.23" y="0">o</tspan><tspan class="cls-32" x="36.95" y="0">t</tspan><tspan class="cls-41" x="38.99" y="0">i</tspan><tspan class="cls-55" x="40.67" y="0">d</tspan><tspan class="cls-41" x="44.38" y="0">i</tspan><tspan class="cls-31" x="46.06" y="0">e</tspan><tspan class="cls-10" x="49.42" y="0">nn</tspan><tspan class="cls-31" x="56.63" y="0">e</tspan><tspan class="cls-66" x="59.98" y="0"> </tspan><tspan x="61.66" y="0">*</tspan></text><text class="cls-4" transform="translate(109.68 67.32)"><tspan class="cls-26" x="0" y="0">%</tspan><tspan class="cls-66" x="5.04" y="0"> </tspan><tspan class="cls-75" x="6.72" y="0">Da</tspan><tspan class="cls-41" x="14.4" y="0">il</tspan><tspan class="cls-50" x="17.76" y="0">y</tspan><tspan class="cls-66" x="21" y="0"> </tspan><tspan class="cls-63" x="22.68" y="0">V</tspan><tspan class="cls-20" x="26.29" y="0">a</tspan><tspan class="cls-41" x="29.63" y="0">l</tspan><tspan class="cls-10" x="31.31" y="0">u</tspan><tspan class="cls-31" x="34.91" y="0">e</tspan><tspan class="cls-41" x="38.27" y="0"> </tspan><tspan x="39.95" y="0">*</tspan></text><text class="cls-5" transform="translate(3.96 63)"><tspan class="cls-71" x="0" y="0">Cal</tspan><tspan class="cls-58" x="15.47" y="0">o</tspan><tspan class="cls-51" x="21.58" y="0">ries 21</tspan><tspan x="53.08" y="0">0</tspan></text><text class="cls-1" transform="translate(3.96 78.48)"><tspan class="cls-19" x="0" y="0">Lipides / Fa</tspan><tspan class="cls-52" x="44.32" y="0">t</tspan><tspan x="46.97" y="0"> </tspan></text><text class="cls-6" transform="translate(53.28 78.48)"><tspan class="cls-52" x="0" y="0">4</tspan><tspan class="cls-73" x="4.44" y="0">,</tspan><tspan class="cls-68" x="6.71" y="0">5</tspan><tspan class="cls-73" x="11.15" y="0"> </tspan><tspan x="13.43" y="0">g</tspan></text><text class="cls-6" transform="translate(138 78.24)"><tspan class="cls-52" x="0" y="0">6</tspan><tspan class="cls-73" x="4.44" y="0"> </tspan><tspan x="6.71" y="0">%</tspan></text><text class="cls-6" transform="translate(9.84 86.88)"><tspan class="cls-15" x="0" y="0">s</tspan><tspan class="cls-52" x="4.08" y="0">a</tspan><tspan class="cls-73" x="8.52" y="0">t</tspan><tspan class="cls-52" x="10.79" y="0">uré</tspan><tspan class="cls-15" x="22.31" y="0">s</tspan><tspan class="cls-73" x="26.39" y="0" xml:space="preserve"> / </tspan><tspan class="cls-17" x="33.21" y="0">S</tspan><tspan class="cls-68" x="38.61" y="0">a</tspan><tspan class="cls-73" x="43.05" y="0">t</tspan><tspan class="cls-52" x="45.32" y="0">ura</tspan><tspan class="cls-73" x="56.84" y="0">t</tspan><tspan class="cls-52" x="59.12" y="0">ed</tspan><tspan class="cls-24" x="68" y="0"> </tspan><tspan class="cls-68" x="70.39" y="0">0</tspan><tspan class="cls-73" x="74.83" y="0">,</tspan><tspan class="cls-52" x="77.1" y="0">5</tspan><tspan class="cls-73" x="81.54" y="0"> </tspan><tspan x="83.82" y="0">g</tspan></text><text class="cls-6" transform="translate(10.92 96.12)"><tspan class="cls-70" x="0" y="0">+</tspan><tspan class="cls-73" x="4.69" y="0" xml:space="preserve"> t</tspan><tspan class="cls-52" x="9.24" y="0">ran</tspan><tspan class="cls-15" x="20.76" y="0">s</tspan><tspan class="cls-22" x="24.83" y="0"> </tspan><tspan class="cls-73" x="27" y="0">/ </tspan><tspan class="cls-70" x="31.54" y="0">+</tspan><tspan class="cls-54" x="36.23" y="0"> </tspan><tspan class="cls-48" x="38.51" y="0">T</tspan><tspan class="cls-52" x="43.19" y="0">ran</tspan><tspan class="cls-15" x="54.72" y="0">s</tspan><tspan class="cls-54" x="58.79" y="0"> </tspan><tspan class="cls-68" x="61.07" y="0">0</tspan><tspan class="cls-73" x="65.5" y="0"> </tspan><tspan x="67.78" y="0">g</tspan></text><text class="cls-6" transform="translate(138 91.68)"><tspan class="cls-52" x="0" y="0">3</tspan><tspan class="cls-73" x="4.44" y="0"> </tspan><tspan x="6.71" y="0">%</tspan></text><text class="cls-36" transform="translate(2.88 48.84)"><tspan class="cls-56" x="0" y="0">Per 2 slices (66 g</tspan><tspan x="70.02" y="0">)</tspan></text><text class="cls-1" transform="translate(3.96 108.6)"><tspan class="cls-44" x="0" y="0">G</tspan><tspan class="cls-73" x="6.24" y="0">l</tspan><tspan class="cls-44" x="8.51" y="0">uc</tspan><tspan class="cls-73" x="17.86" y="0">i</tspan><tspan class="cls-19" x="20.14" y="0">d</tspan><tspan class="cls-44" x="25.06" y="0">es</tspan><tspan x="33.97" y="0"> </tspan></text><g class="cls-13"><text class="cls-1" transform="translate(40.2 108.6)"><tspan x="0" y="0">/</tspan></text></g><text class="cls-1" transform="translate(42.48 108.6)"><tspan x="0" y="0"> </tspan><tspan class="cls-69" x="2.23" y="0">C</tspan><tspan class="cls-57" x="8" y="0">arboh</tspan><tspan class="cls-25" x="30.33" y="0">y</tspan><tspan x="34.42" y="0">dra</tspan><tspan class="cls-52" x="46.93" y="0">t</tspan><tspan x="49.58" y="0">e </tspan></text><text class="cls-6" transform="translate(98.76 108.6)"><tspan class="cls-52" x="0" y="0">35</tspan><tspan class="cls-73" x="8.88" y="0"> </tspan><tspan x="11.15" y="0">g</tspan></text><text class="cls-6" transform="translate(9.84 117.6)"><tspan class="cls-44" x="0" y="0">F</tspan><tspan class="cls-40" x="4.9" y="0">i</tspan><tspan class="cls-65" x="6.69" y="0">bre</tspan><tspan class="cls-15" x="18.26" y="0">s</tspan><tspan class="cls-54" x="22.34" y="0" xml:space="preserve"> / </tspan><tspan class="cls-44" x="29.16" y="0">F</tspan><tspan class="cls-19" x="34.05" y="0">i</tspan><tspan class="cls-44" x="35.85" y="0">bre</tspan><tspan class="cls-73" x="47.42" y="0"> </tspan><tspan class="cls-44" x="49.69" y="0">2</tspan><tspan class="cls-73" x="54.15" y="0"> </tspan><tspan class="cls-30" x="56.42" y="0">g</tspan><tspan class="cls-68" x="128.18" y="0">7</tspan><tspan class="cls-73" x="132.62" y="0"> </tspan><tspan x="134.9" y="0">%</tspan></text><text class="cls-6" transform="translate(9.84 126.84)"><tspan class="cls-23" x="0" y="0">S</tspan><tspan class="cls-52" x="5.39" y="0">u</tspan><tspan class="cls-15" x="9.83" y="0">c</tspan><tspan class="cls-49" x="13.91" y="0">re</tspan><tspan class="cls-60" x="20.99" y="0">s</tspan><tspan class="cls-73" x="25.07" y="0" xml:space="preserve"> / </tspan><tspan class="cls-23" x="31.89" y="0">S</tspan><tspan class="cls-52" x="37.29" y="0">ugar</tspan><tspan class="cls-15" x="53.25" y="0">s</tspan><tspan class="cls-73" x="57.33" y="0"> </tspan><tspan class="cls-52" x="59.6" y="0">0</tspan><tspan class="cls-73" x="64.04" y="0"> </tspan><tspan class="cls-62" x="66.31" y="0">g</tspan><tspan class="cls-52" x="128.11" y="0">0</tspan><tspan class="cls-73" x="132.55" y="0"> </tspan><tspan x="134.82" y="0">%</tspan></text><text class="cls-1" transform="translate(3.96 138.6)"><tspan class="cls-23" x="0" y="0">P</tspan><tspan class="cls-45" x="5.39" y="0">r</tspan><tspan class="cls-44" x="8.52" y="0">oté</tspan><tspan class="cls-73" x="20.53" y="0">i</tspan><tspan class="cls-44" x="22.8" y="0">nes</tspan><tspan class="cls-73" x="36.61" y="0" xml:space="preserve"> / </tspan><tspan class="cls-23" x="43.43" y="0">P</tspan><tspan class="cls-70" x="48.82" y="0">r</tspan><tspan class="cls-44" x="51.94" y="0">ote</tspan><tspan class="cls-73" x="63.96" y="0">i</tspan><tspan class="cls-43" x="66.23" y="0">n</tspan><tspan class="cls-57" x="71.13" y="0"> </tspan></text><text class="cls-6" transform="translate(77.4 138.6)"><tspan class="cls-52" x="0" y="0">6</tspan><tspan class="cls-73" x="4.44" y="0"> </tspan><tspan class="cls-57" x="6.71" y="0">g</tspan></text><text class="cls-7" transform="translate(3.96 176.76)"><tspan class="cls-11" x="0" y="0">P</tspan><tspan class="cls-9" x="5.04" y="0">o</tspan><tspan class="cls-22" x="9.49" y="0">t</tspan><tspan class="cls-9" x="11.65" y="0">a</tspan><tspan class="cls-15" x="16.1" y="0">ss</tspan><tspan class="cls-40" x="24.25" y="0">i</tspan><tspan class="cls-27" x="26.04" y="0">u</tspan><tspan x="30.49" y="0">m</tspan></text><text class="cls-6" transform="translate(41.16 176.76)"><tspan class="cls-73" x="0" y="0"> </tspan><tspan class="cls-52" x="2.27" y="0">75</tspan><tspan class="cls-73" x="11.15" y="0"> </tspan><tspan class="cls-47" x="13.43" y="0">m</tspan><tspan class="cls-57" x="20.26" y="0">g</tspan></text><text class="cls-6" transform="translate(3.96 188.88)"><tspan class="cls-69" x="0" y="0">C</tspan><tspan class="cls-68" x="5.77" y="0">a</tspan><tspan class="cls-40" x="10.21" y="0">l</tspan><tspan class="cls-15" x="12" y="0">c</tspan><tspan class="cls-40" x="16.08" y="0">i</tspan><tspan class="cls-52" x="17.87" y="0">u</tspan><tspan class="cls-38" x="22.31" y="0">m</tspan><tspan class="cls-73" x="29.14" y="0"> </tspan><tspan class="cls-52" x="31.42" y="0">10</tspan><tspan class="cls-73" x="40.3" y="0"> </tspan><tspan class="cls-38" x="42.57" y="0">m</tspan><tspan x="49.4" y="0">g</tspan></text><text class="cls-6" transform="translate(3.96 201.24)"><tspan class="cls-9" x="0" y="0">Fer</tspan><tspan class="cls-73" x="11.99" y="0" xml:space="preserve"> / I</tspan><tspan class="cls-52" x="21.08" y="0">r</tspan><tspan class="cls-27" x="23.73" y="0">on</tspan><tspan class="cls-73" x="32.62" y="0"> </tspan><tspan class="cls-27" x="34.9" y="0">2</tspan><tspan class="cls-73" x="39.34" y="0">,</tspan><tspan class="cls-27" x="41.62" y="0">5</tspan><tspan class="cls-73" x="46.07" y="0"> </tspan><tspan class="cls-38" x="48.34" y="0">m</tspan><tspan x="55.17" y="0">g</tspan></text><text class="cls-6" transform="translate(138 188.88)"><tspan class="cls-52" x="0" y="0">1</tspan><tspan class="cls-73" x="4.44" y="0"> </tspan><tspan x="6.71" y="0">%</tspan></text><text class="cls-6" transform="translate(133.56 201.24)"><tspan class="cls-52" x="0" y="0">14</tspan><tspan class="cls-73" x="8.88" y="0"> </tspan><tspan x="11.15" y="0">%</tspan></text><text class="cls-1" transform="translate(3.96 150.48)"><tspan class="cls-45" x="0" y="0">Cho</tspan><tspan class="cls-73" x="15.6" y="0">l</tspan><tspan class="cls-70" x="17.88" y="0">estéro</tspan><tspan class="cls-73" x="41.96" y="0">l / </tspan><tspan class="cls-69" x="51.06" y="0">C</tspan><tspan class="cls-70" x="56.82" y="0">ho</tspan><tspan class="cls-73" x="66.63" y="0">l</tspan><tspan class="cls-70" x="68.9" y="0">estero</tspan><tspan class="cls-73" x="92.99" y="0">l</tspan><tspan x="95.26" y="0"> </tspan></text><text class="cls-6" transform="translate(101.4 150.48)"><tspan class="cls-52" x="0" y="0">0</tspan><tspan class="cls-73" x="4.44" y="0"> </tspan><tspan class="cls-38" x="6.71" y="0">m</tspan><tspan class="cls-57" x="13.55" y="0">g</tspan></text><text class="cls-1" transform="translate(3.96 162)"><tspan class="cls-18" x="0" y="0">Sodiu</tspan><tspan class="cls-34" x="22.41" y="0">m</tspan><tspan class="cls-57" x="29.61" y="0"> </tspan></text><text class="cls-6" transform="translate(35.88 162)"><tspan class="cls-52" x="0" y="0">290</tspan><tspan class="cls-73" x="13.32" y="0"> </tspan><tspan class="cls-38" x="15.59" y="0">m</tspan><tspan x="22.43" y="0">g</tspan></text><text class="cls-6" transform="translate(138 176.52)"><tspan class="cls-52" x="0" y="0">2</tspan><tspan class="cls-73" x="4.44" y="0"> </tspan><tspan x="6.71" y="0">%</tspan></text><text class="cls-6" transform="translate(133.56 161.76)"><tspan class="cls-52" x="0" y="0">13</tspan><tspan class="cls-73" x="8.88" y="0"> </tspan><tspan x="11.15" y="0">%</tspan></text><text class="cls-33" transform="translate(3.96 213.36)"><tspan class="cls-31" x="0" y="0">*</tspan><tspan class="cls-42" x="1.93" y="0">5</tspan><tspan class="cls-14" x="4.57" y="0">%</tspan><tspan class="cls-59" x="9.25" y="0"> </tspan><tspan class="cls-31" x="10.57" y="0">ou</tspan><tspan class="cls-53" x="16.07" y="0"> </tspan><tspan class="cls-29" x="17.39" y="0">m</tspan><tspan class="cls-31" x="21.48" y="0">o</tspan><tspan class="cls-64" x="24.23" y="0">i</tspan><tspan class="cls-31" x="25.31" y="0">n</tspan><tspan class="cls-28" x="28.06" y="0">s</tspan><tspan class="cls-59" x="30.58" y="0"> </tspan><tspan class="cls-61" x="31.9" y="0">c</tspan><tspan class="cls-64" x="34.53" y="0">’</tspan><tspan class="cls-31" x="35.62" y="0">e</tspan><tspan class="cls-28" x="38.37" y="0">s</tspan><tspan class="cls-59" x="40.88" y="0">t</tspan><tspan x="42.2" y="0"> </tspan></text><text class="cls-2" transform="translate(47.52 213.36)"><tspan class="cls-20" x="0" y="0">pe</tspan><tspan x="5.75" y="0">u</tspan></text><text class="cls-33" transform="translate(56.28 213.36)"><tspan class="cls-53" x="0" y="0">, </tspan><tspan class="cls-31" x="2.64" y="0">1</tspan><tspan class="cls-50" x="5.39" y="0">5</tspan><tspan class="cls-12" x="8.04" y="0">%</tspan><tspan class="cls-53" x="12.71" y="0"> </tspan><tspan class="cls-31" x="14.03" y="0">ou</tspan><tspan class="cls-53" x="19.54" y="0"> </tspan><tspan class="cls-31" x="20.86" y="0">p</tspan><tspan class="cls-64" x="23.61" y="0">l</tspan><tspan class="cls-31" x="24.69" y="0">u</tspan><tspan class="cls-28" x="27.45" y="0">s</tspan><tspan class="cls-53" x="29.96" y="0"> </tspan><tspan class="cls-55" x="31.28" y="0">c</tspan><tspan class="cls-39" x="33.8" y="0">’</tspan><tspan class="cls-31" x="34.99" y="0">e</tspan><tspan class="cls-28" x="37.75" y="0">s</tspan><tspan class="cls-59" x="40.26" y="0">t</tspan><tspan x="41.58" y="0"> </tspan></text><text class="cls-2" transform="translate(99.12 213.36)"><tspan x="0" y="0">beaucoup</tspan></text><text class="cls-33" transform="translate(3.96 220.44)"><tspan x="0" y="0">*</tspan><tspan class="cls-42" x="1.91" y="0">5</tspan><tspan class="cls-14" x="4.55" y="0">%</tspan><tspan class="cls-59" x="9.23" y="0"> </tspan><tspan class="cls-31" x="10.55" y="0">o</tspan><tspan class="cls-21" x="13.3" y="0">r</tspan><tspan class="cls-53" x="14.98" y="0"> </tspan><tspan class="cls-46" x="16.3" y="0">l</tspan><tspan class="cls-31" x="17.39" y="0">e</tspan><tspan class="cls-55" x="20.14" y="0">ss</tspan><tspan class="cls-53" x="25.17" y="0"> </tspan><tspan class="cls-67" x="26.49" y="0">i</tspan><tspan class="cls-28" x="27.58" y="0">s</tspan><tspan x="30.09" y="0"> </tspan></text><text class="cls-2" transform="translate(35.52 220.44)"><tspan class="cls-31" x="0" y="0">a</tspan><tspan class="cls-53" x="2.75" y="0" xml:space="preserve"> li</tspan><tspan class="cls-21" x="6.71" y="0">tt</tspan><tspan class="cls-53" x="10.07" y="0">l</tspan><tspan x="11.39" y="0">e</tspan></text><text class="cls-33" transform="translate(49.68 220.44)"><tspan class="cls-53" x="0" y="0">, </tspan><tspan class="cls-72" x="2.64" y="0">1</tspan><tspan class="cls-42" x="5.4" y="0">5</tspan><tspan class="cls-12" x="8.04" y="0">%</tspan><tspan class="cls-53" x="12.71" y="0"> </tspan><tspan class="cls-16" x="14.04" y="0">or</tspan><tspan class="cls-53" x="18.46" y="0"> </tspan><tspan class="cls-29" x="19.78" y="0">m</tspan><tspan class="cls-31" x="23.86" y="0">o</tspan><tspan class="cls-16" x="26.61" y="0">re</tspan><tspan class="cls-53" x="31.03" y="0"> </tspan><tspan class="cls-64" x="32.35" y="0">i</tspan><tspan class="cls-28" x="33.44" y="0">s</tspan><tspan x="35.95" y="0"> </tspan></text><text class="cls-2" transform="translate(87.12 220.44)"><tspan class="cls-74" x="0" y="0">a</tspan><tspan class="cls-53" x="2.77" y="0" xml:space="preserve"> l</tspan><tspan x="5.41" y="0">o</tspan><tspan class="cls-74" x="8.41" y="0">t</tspan><tspan x="10.08" y="0"> </tspan></text></svg>