<?xml version="1.0" encoding="UTF-8"?><svg id="Layer_1" xmlns="http://www.w3.org/2000/svg" viewBox="0 0 120.96 181.83"><defs><style>.cls-1,.cls-2{font-size:8.4px;}.cls-1,.cls-2,.cls-3,.cls-4,.cls-5,.cls-6,.cls-7,.cls-8,.cls-9{fill:#231f20;}.cls-1,.cls-6,.cls-8,.cls-9{font-family:Arial-BoldMT, Arial;font-weight:700;}.cls-2,.cls-3,.cls-4,.cls-5,.cls-7{font-family:ArialMT, Arial;}.cls-10{letter-spacing:-.15em;}.cls-11,.cls-12{stroke-width:.84px;}.cls-11,.cls-12,.cls-13{fill:none;stroke:#231f20;}.cls-11,.cls-13{stroke-miterlimit:10;}.cls-3{font-size:7.56px;}.cls-13{stroke-width:1.68px;}.cls-4{font-size:5.29px;}.cls-5,.cls-9{font-size:4.37px;}.cls-14{letter-spacing:-.05em;}.cls-6,.cls-7{font-size:6.72px;}.cls-8{font-size:10.92px;}</style></defs><line class="cls-13" x1="3.36" y1="24.58" x2="118.44" y2="24.58"/><line class="cls-13" x1="3.36" y1="38.86" x2="54.6" y2="38.86"/><line class="cls-11" x1="3.36" y1="69.86" x2="117.6" y2="69.86"/><line class="cls-11" x1="3.36" y1="100.77" x2="117.6" y2="100.77"/><line class="cls-11" x1="3.36" y1="112.19" x2="117.6" y2="112.19"/><line class="cls-11" x1="3.36" y1="123.62" x2="117.6" y2="123.62"/><line class="cls-13" x1="3.36" y1="135.8" x2="117.6" y2="135.8"/><line class="cls-11" x1="3.36" y1="147.64" x2="117.6" y2="147.64"/><line class="cls-11" x1="3.36" y1="158.23" x2="117.6" y2="158.23"/><line class="cls-13" x1="3.36" y1="170.91" x2="117.6" y2="170.91"/><text class="cls-8" transform="translate(3.36 11.31)"><tspan class="cls-14" x="0" y="0">V</tspan><tspan x="6.68" y="0">aleur nutritive</tspan></text><text class="cls-3" transform="translate(3.36 20.38)"><tspan x="0" y="0">pour 1 pain (30 g)</tspan></text><text class="cls-1" transform="translate(3.36 33.82)"><tspan x="0" y="0">Calories 60</tspan></text><text class="cls-2" transform="translate(48.18 33.82)"><tspan x="0" y="0"> </tspan></text><text class="cls-4" transform="translate(65.27 33.82) scale(1 1.11)"><tspan x="0" y="0">% valeur quotidienne*</tspan></text><text class="cls-6" transform="translate(3.36 46.93)"><tspan x="0" y="0">Lipides </tspan></text><text class="cls-7" transform="translate(28.75 46.93)"><tspan x="0" y="0">0,4 g </tspan></text><text class="cls-6" transform="translate(105.18 46.93)"><tspan x="0" y="0">1</tspan></text><text class="cls-7" transform="translate(108.92 46.93)"><tspan x="0" y="0" xml:space="preserve"> %</tspan></text><text class="cls-7" transform="translate(6.72 56.67)"><tspan x="0" y="0">saturés 0,1 g </tspan></text><text class="cls-6" transform="translate(105.18 56.67)"><tspan x="0" y="0">0</tspan></text><text class="cls-7" transform="translate(108.92 56.67)"><tspan x="0" y="0" xml:space="preserve"> %</tspan></text><text class="cls-7" transform="translate(6.72 66.41)"><tspan x="0" y="0">+ trans 0 </tspan></text><text class="cls-6" transform="translate(3.36 77.84)"><tspan x="0" y="0">Glucides</tspan></text><text class="cls-7" transform="translate(31.75 77.84)"><tspan x="0" y="0" xml:space="preserve"> 13 g </tspan></text><text class="cls-7" transform="translate(6.72 87.58)"><tspan x="0" y="0">Fibres 0 g </tspan></text><text class="cls-6" transform="translate(105.18 87.58)"><tspan x="0" y="0">0</tspan></text><text class="cls-7" transform="translate(108.92 87.58)"><tspan x="0" y="0" xml:space="preserve"> %</tspan></text><text class="cls-7" transform="translate(6.72 97.33)"><tspan x="0" y="0">Sucres 0 g </tspan></text><text class="cls-6" transform="translate(105.18 97.33)"><tspan x="0" y="0">0</tspan></text><text class="cls-7" transform="translate(108.92 97.33)"><tspan x="0" y="0" xml:space="preserve"> %</tspan></text><text class="cls-6" transform="translate(3.36 108.75)"><tspan x="0" y="0">Protéines 2 g</tspan></text><text class="cls-6" transform="translate(3.36 120.17)"><tspan x="0" y="0">Cholestérol 0 mg</tspan></text><text class="cls-6" transform="translate(3.36 131.6)"><tspan x="0" y="0">Sodium </tspan></text><text class="cls-7" transform="translate(29.86 131.6)"><tspan x="0" y="0">105 mg</tspan></text><text class="cls-6" transform="translate(105.17 131.6)"><tspan x="0" y="0">5</tspan></text><text class="cls-7" transform="translate(108.91 131.6)"><tspan x="0" y="0" xml:space="preserve"> %</tspan></text><text class="cls-7" transform="translate(3.36 143.86)"><tspan x="0" y="0">Potassium 20 mg </tspan></text><text class="cls-7" transform="translate(105.18 143.86)"><tspan x="0" y="0">0 %</tspan></text><text class="cls-7" transform="translate(3.36 154.45)"><tspan x="0" y="0">Calcium 0 mg </tspan></text><text class="cls-7" transform="translate(105.18 154.45)"><tspan x="0" y="0">0 %</tspan></text><text class="cls-7" transform="translate(3.36 166.71)"><tspan x="0" y="0">Fer 0,75 mg </tspan></text><text class="cls-7" transform="translate(105.18 166.71)"><tspan x="0" y="0">4 %</tspan></text><text class="cls-5" transform="translate(3.36 178.47) scale(1 1.25)"><tspan x="0" y="0">*5 % ou moins c’est </tspan></text><text class="cls-9" transform="translate(42.93 178.47) scale(1 1.25)"><tspan x="0" y="0">peu</tspan></text><text class="cls-5" transform="translate(50.7 178.47) scale(1 1.25)"><tspan class="cls-10" x="0" y="0"> </tspan><tspan x=".55" y="0">; 15 % ou plus c’est </tspan></text><text class="cls-9" transform="translate(90.33 178.47) scale(1 1.25)"><tspan x="0" y="0">beaucoup.</tspan></text><rect class="cls-12" x=".42" y=".42" width="120.12" height="180.99"/></svg>